<?xml version="1.0" encoding="UTF-8"?>
<svg xmlns="http://www.w3.org/2000/svg" width="206.241" height="81.749" viewBox="0 0 206.241 81.749">
  <g id="Gruppe_27" data-name="Gruppe 27" transform="translate(-668 -553.251)">
    <g id="Gruppe_3" data-name="Gruppe 3" transform="translate(608.737 553.251)">
      <g id="Gruppe_4" data-name="Gruppe 4" transform="translate(59.263 -0.001)">
        <path id="Pfad_19" data-name="Pfad 19" d="M128.768,26.415a10.11,10.11,0,0,0-1.09,1.088c-.217.249-.442.532-.673.845.234-.283.457-.542.666-.776.431-.482.8-.867,1.1-1.156" transform="translate(-77.338 -7.048)" fill="#fff"></path>
        <path id="Pfad_20" data-name="Pfad 20" d="M167.512,14.462a18.95,18.95,0,0,0-2.1-4.3,13.161,13.161,0,0,0-3.488-3.582,12.2,12.2,0,0,0-2.268-1.223c-.4-.165-.809-.308-1.221-.432-.1-.031-.207-.061-.312-.089l-.3-.08-.592-.153c-3.159-.8-6.4-1.391-9.691-1.889s-6.641-.889-10.036-1.219C130.724.839,123.75.435,116.635.206S102.261-.071,94.888.1C90.84.206,86.825.37,82.845.67c-1.99.153-3.971.336-5.951.61-.992.141-1.98.3-2.988.534-.252.06-.506.125-.765.2l-.155.048-.189.054c-.13.038-.256.077-.383.118a12.328,12.328,0,0,0-1.479.595,13.291,13.291,0,0,0-2.642,1.687,16.19,16.19,0,0,0-2.168,2.155,22.909,22.909,0,0,0-3.119,5.009,34.686,34.686,0,0,0-1.955,5.379,46.547,46.547,0,0,0-1.158,5.475A58.581,58.581,0,0,0,59.3,33.4a57.731,57.731,0,0,0,1.326,10.46,45.418,45.418,0,0,0,1.408,4.968,34.18,34.18,0,0,0,2.018,4.691,23.557,23.557,0,0,0,2.807,4.23,15.485,15.485,0,0,0,3.84,3.337,12.241,12.241,0,0,0,2.323,1.084,11.642,11.642,0,0,0,1.232.348c.208.045.416.087.626.122.1.018.209.033.315.048l.3.039c1.56.2,3.1.361,4.625.506,3.048.288,6.02.5,8.913.664,5.784.328,11.245.482,16.343.548s9.832.032,14.163-.084c2.167-.059,4.233-.139,6.192-.252.981-.058,1.936-.124,2.866-.208.463-.042.922-.089,1.376-.145.247-.032.492-.065.737-.1-.029.5-.086.992-.152,1.474-.1.677-.212,1.335-.337,1.972-.251,1.274-.529,2.463-.8,3.568-.54,2.21-1.035,4.082-1.411,5.606s-.644,2.7-.789,3.494a3.85,3.85,0,0,0-.139,1.224,5,5,0,0,0,.4-1.164c.23-.773.576-1.922,1.035-3.421s1.03-3.351,1.648-5.553c.307-1.1.626-2.291.919-3.578.146-.644.285-1.312.4-2.01a16.172,16.172,0,0,0,.237-2.2.508.508,0,0,0-.008-.1.491.491,0,0,0-.575-.382l-.016,0c-.4.075-.831.126-1.268.17s-.886.08-1.345.111c-.915.062-1.86.107-2.834.144-1.947.073-4,.112-6.159.131-4.316.037-9.034-.005-14.114-.137s-10.518-.353-16.266-.74c-2.874-.194-5.825-.432-8.84-.745-1.507-.158-3.032-.334-4.567-.54l-.279-.038c-.088-.013-.177-.027-.264-.043q-.265-.046-.527-.107a9.913,9.913,0,0,1-1.035-.3,10.42,10.42,0,0,1-1.966-.937,13.7,13.7,0,0,1-3.356-2.971,21.7,21.7,0,0,1-2.555-3.917,32.621,32.621,0,0,1-1.878-4.446,44.116,44.116,0,0,1-1.319-4.77,56.063,56.063,0,0,1-1.227-10.114,56.857,56.857,0,0,1,.613-10.5A44.866,44.866,0,0,1,63.069,17.6a32.6,32.6,0,0,1,1.855-5.055A20.817,20.817,0,0,1,67.765,8,12.4,12.4,0,0,1,71.87,4.715a10.178,10.178,0,0,1,1.219-.488c.1-.033.21-.066.314-.1l.162-.045.194-.057c.208-.062.426-.118.648-.17.892-.207,1.838-.359,2.788-.492,1.907-.262,3.855-.441,5.816-.59,3.925-.291,7.911-.454,11.93-.554,7.325-.175,14.551-.129,21.627.083s14.01.6,20.743,1.23c3.364.315,6.681.694,9.929,1.168s6.434,1.044,9.5,1.805l.573.147.283.074c.089.023.177.048.265.074a10.808,10.808,0,0,1,1.033.359A10.256,10.256,0,0,1,160.8,8.175a11.241,11.241,0,0,1,2.988,3.043,17.084,17.084,0,0,1,1.907,3.861,27.163,27.163,0,0,1,1.1,4.173,49.129,49.129,0,0,1,.729,8.468c.021,2.8-.124,5.543-.348,8.224-.111,1.341-.245,2.667-.389,3.977s-.3,2.6-.42,3.912c-.032.328-.059.659-.071,1q-.017.465-.052.925c-.049.613-.122,1.219-.221,1.815A17,17,0,0,1,165.085,51a14.5,14.5,0,0,1-1.626,3.031,14.321,14.321,0,0,1-2.242,2.492,17.989,17.989,0,0,1-5.588,3.268,27.324,27.324,0,0,1-5.983,1.463c-.985.133-1.958.216-2.914.26q-.716.032-1.416.032c-.234,0-.465,0-.694-.01s-.464-.015-.672-.029h-.014a.586.586,0,0,0-.523.249c-1,1.447-2.005,2.821-2.969,4.111s-1.9,2.5-2.8,3.638c-1.8,2.269-3.444,4.223-4.888,5.865-2.7,3.071-4.708,5.043-5.663,6.014.021-.257.025-.392,0-.4s-.112.208-.215.643a.092.092,0,0,0,.017.079.1.1,0,0,0,.134.015l.012-.009a61.051,61.051,0,0,0,6.244-5.88c1.517-1.6,3.235-3.515,5.1-5.75q1.4-1.676,2.908-3.592c.94-1.2,1.907-2.462,2.891-3.815.13.009.26.016.394.022.24.011.482.018.726.023q.729.014,1.474-.005c.991-.026,2-.1,3.031-.216a28.439,28.439,0,0,0,6.306-1.438,21.464,21.464,0,0,0,3.142-1.414,17.7,17.7,0,0,0,2.944-2.037,15.634,15.634,0,0,0,4.351-6.047,18.317,18.317,0,0,0,1.068-3.728c.117-.643.2-1.294.261-1.95q.044-.492.067-.988c.015-.295.043-.6.075-.919.133-1.26.305-2.564.46-3.879s.305-2.657.431-4.016c.253-2.716.427-5.511.43-8.379a50.358,50.358,0,0,0-.69-8.788,29.243,29.243,0,0,0-1.142-4.463" transform="translate(-59.263 0.001)"></path>
        <path id="Pfad_21" data-name="Pfad 21" d="M100.154,38.137l.007.022-.007-.029v.007" transform="translate(-70.174 -10.174)"></path>
        <path id="Pfad_22" data-name="Pfad 22" d="M98.945,34.811a3.084,3.084,0,0,1,.508.132,2.729,2.729,0,0,1,.644.326c-.013-.016-.026-.034-.04-.051-.064-.075-.133-.146-.206-.216a3.953,3.953,0,0,0-1.1-.345c.04.039.08.079.118.12l.073.032" transform="translate(-69.8 -9.247)"></path>
        <path id="Pfad_23" data-name="Pfad 23" d="M98.43,37.776l-.016-.033c-.067.107-.131.216-.191.327a3.948,3.948,0,0,1,.062.683,3.776,3.776,0,0,0,.146-.977" transform="translate(-69.658 -10.07)"></path>
        <path id="Pfad_24" data-name="Pfad 24" d="M99.223,41.7a2.794,2.794,0,0,1-.741.559,4.156,4.156,0,0,0,.859-.079,2.929,2.929,0,0,0,.747-.256,2.24,2.24,0,0,0,.324-.2c.107-.081.211-.166.311-.256a3.7,3.7,0,0,0,.925-1.242,3.048,3.048,0,0,0,.256-1.444,3.323,3.323,0,0,0-.326-1.216,4.094,4.094,0,0,1-.238,1.319c-.041.118-.087.233-.137.345a2.835,2.835,0,0,1-.615,1.25,3.214,3.214,0,0,1-.628.562,6.81,6.81,0,0,1-.738.658" transform="translate(-69.728 -10.023)"></path>
        <path id="Pfad_25" data-name="Pfad 25" d="M100.346,35.253l-.037-.032a3.476,3.476,0,0,1,.184.37,4.27,4.27,0,0,1,.693.914,3.949,3.949,0,0,1,.5,1.6,3.686,3.686,0,0,1-.279,1.751,4.345,4.345,0,0,1-1.062,1.48c-.113.1-.23.2-.353.3a2.842,2.842,0,0,1-.414.266,3.581,3.581,0,0,1-.914.331,5.227,5.227,0,0,1-1.931.036q-.241-.038-.481-.1a4.544,4.544,0,0,1-.813.141h-.021a7.013,7.013,0,0,0,1.526.234,5.621,5.621,0,0,0,1.98-.257,4.074,4.074,0,0,0,1.723-1.081,3.975,3.975,0,0,0,.61-.864c.042-.078.081-.161.119-.243l.115-.265a4.7,4.7,0,0,0,.183-.517,3.607,3.607,0,0,0-.034-2.175,4.568,4.568,0,0,0-1.294-1.9" transform="translate(-68.91 -9.397)"></path>
        <path id="Pfad_26" data-name="Pfad 26" d="M95.364,39.3V39l0-.324c0-.216.014-.433.033-.654a5.8,5.8,0,0,1,.151-.943,2.356,2.356,0,0,0-.229.184,1.6,1.6,0,0,0-.477.727,1.154,1.154,0,0,0,.069.793,2.319,2.319,0,0,0,.449.644Z" transform="translate(-68.746 -9.894)"></path>
        <path id="Pfad_27" data-name="Pfad 27" d="M94.8,33.147c.1.009.194.022.29.036a4.776,4.776,0,0,1,.6-.259c.039-.013.078-.024.117-.037-.151-.011-.3-.019-.455-.018a4.244,4.244,0,0,0-1.7.337,3.884,3.884,0,0,1,1.15-.059" transform="translate(-68.439 -8.77)"></path>
        <path id="Pfad_28" data-name="Pfad 28" d="M92.452,42.25a2.5,2.5,0,0,0,.47.5,4.476,4.476,0,0,1-.47-.5" transform="translate(-68.119 -11.273)"></path>
        <path id="Pfad_29" data-name="Pfad 29" d="M97.433,36.858a.227.227,0,0,1-.046-.345.372.372,0,0,1,.428-.021,12.918,12.918,0,0,0,1.3.526c.425.147.855.28,1.287.4.455-2.425.763-4.789,1.042-7.517.192-1.875.6-6.373-.746-7.918-1.287-1.48-5.8.1-7.475.532-4.9,1.259-9.147,3.7-13.31,6.363-2.061,1.32-6.162,4.349-6.483,6.806,0,0,.521,5.353,7.745,10.76a25.033,25.033,0,0,0,11.784,4.794c3.7-.318,5.452-5.467,6.418-9.223.319-1.24.588-2.408.821-3.553-.212-.087-.422-.179-.627-.275a9.3,9.3,0,0,1-2.137-1.33m-.9-1.01a5.2,5.2,0,0,1-.224.606l-.124.276q-.067.144-.143.284A4.729,4.729,0,0,1,95.3,38.03a4.781,4.781,0,0,1-2.036,1.241,6.285,6.285,0,0,1-2.219.256,7.711,7.711,0,0,1-2.068-.408,6.8,6.8,0,0,1-3.2-2.2,4.4,4.4,0,0,1-.8-1.656,3.958,3.958,0,0,1-.018-1.731,4.937,4.937,0,0,1,.578-1.474c.095-.164.2-.317.3-.466a4.108,4.108,0,0,1,.243-.583A3.62,3.62,0,0,1,87.1,29.777a4.035,4.035,0,0,1,1.39-.675,5.439,5.439,0,0,1,1.464-.183,7.511,7.511,0,0,1,2.752.571,7.652,7.652,0,0,1,2.312,1.452A5.371,5.371,0,0,1,96.516,33.2a4.346,4.346,0,0,1,.213,1.341,4.563,4.563,0,0,1-.2,1.308" transform="translate(-63.043 -5.7)"></path>
        <path id="Pfad_30" data-name="Pfad 30" d="M89.967,38.359l-.016-.184-.014-.2c-.007-.13-.012-.26-.012-.392,0-.095,0-.19.007-.285a4.072,4.072,0,0,0-.153.579,3.446,3.446,0,0,0,.048,1.5,3.858,3.858,0,0,0,.733,1.433l.015.017a5.7,5.7,0,0,1-.339-.925,8.627,8.627,0,0,1-.268-1.549" transform="translate(-67.389 -9.953)"></path>
        <path id="Pfad_31" data-name="Pfad 31" d="M99.184,33.692a7.647,7.647,0,0,0-2.312-1.452,7.493,7.493,0,0,0-2.752-.571,5.439,5.439,0,0,0-1.464.183,4.048,4.048,0,0,0-1.39.675,3.61,3.61,0,0,0-1.027,1.232,4.114,4.114,0,0,0-.243.583c-.1.148-.206.3-.3.466a4.976,4.976,0,0,0-.578,1.474,3.958,3.958,0,0,0,.018,1.731,4.406,4.406,0,0,0,.8,1.656,6.808,6.808,0,0,0,3.2,2.2,7.745,7.745,0,0,0,2.068.408,6.283,6.283,0,0,0,2.219-.256,4.777,4.777,0,0,0,2.037-1.242,4.721,4.721,0,0,0,.737-1.015q.076-.14.143-.284l.125-.276a5.381,5.381,0,0,0,.223-.606,4.567,4.567,0,0,0,.2-1.308,4.327,4.327,0,0,0-.212-1.342,5.386,5.386,0,0,0-1.493-2.256m-8.808,5.621a3.849,3.849,0,0,1-.733-1.432,3.449,3.449,0,0,1-.048-1.5,4.027,4.027,0,0,1,.153-.579c0,.1-.007.191-.007.286,0,.132.005.262.012.392l.014.2.016.184a8.627,8.627,0,0,0,.268,1.549,5.7,5.7,0,0,0,.339.925l-.015-.018m7.69-.406a2.836,2.836,0,0,0,.616-1.25c.049-.113.1-.227.137-.345a4.117,4.117,0,0,0,.238-1.319,3.333,3.333,0,0,1,.326,1.215,3.042,3.042,0,0,1-.257,1.444,3.688,3.688,0,0,1-.925,1.241c-.1.089-.2.175-.311.257a2.229,2.229,0,0,1-.323.2,2.9,2.9,0,0,1-.748.257,4.151,4.151,0,0,1-.859.078,2.779,2.779,0,0,0,.742-.558,6.957,6.957,0,0,0,.738-.659,3.229,3.229,0,0,0,.627-.561m-.881-2.494v-.007l.007.03c0-.007,0-.015-.007-.023m.07-2.208c.073.069.142.141.207.216.014.016.026.034.04.051a2.7,2.7,0,0,0-.644-.326,3.031,3.031,0,0,0-.508-.132l-.073-.032c-.039-.042-.078-.081-.119-.12a3.938,3.938,0,0,1,1.1.345M95.96,36.122c.006.01.011.022.016.033a3.776,3.776,0,0,1-.146.977,3.87,3.87,0,0,0-.062-.683q.091-.167.191-.327m-4.423,3.3a4.409,4.409,0,0,0,.471.5,2.5,2.5,0,0,1-.471-.5m.88-6.541a4.235,4.235,0,0,1,1.7-.337c.153,0,.3.007.455.018-.039.012-.078.023-.118.037a4.871,4.871,0,0,0-.6.259c-.1-.014-.191-.028-.289-.036a3.889,3.889,0,0,0-1.151.059m.884,3.663a1.607,1.607,0,0,1,.477-.727,2.354,2.354,0,0,1,.229-.184,5.884,5.884,0,0,0-.152.943c-.018.221-.028.438-.032.654l0,.324v.3l0,.128a2.322,2.322,0,0,1-.45-.644,1.159,1.159,0,0,1-.069-.793m6.668,1.829a4.649,4.649,0,0,1-.184.517l-.114.265c-.037.084-.077.165-.119.243a3.958,3.958,0,0,1-.61.864,4.072,4.072,0,0,1-1.723,1.081,5.625,5.625,0,0,1-1.98.257,7.006,7.006,0,0,1-1.526-.234h.02a4.543,4.543,0,0,0,.813-.14q.24.056.482.1a5.26,5.26,0,0,0,1.931-.036,3.619,3.619,0,0,0,.914-.331,2.942,2.942,0,0,0,.414-.267c.122-.1.24-.194.353-.3a4.33,4.33,0,0,0,1.062-1.48,3.691,3.691,0,0,0,.28-1.752,3.968,3.968,0,0,0-.5-1.6,4.31,4.31,0,0,0-.692-.914,3.483,3.483,0,0,0-.185-.37l.037.032a4.577,4.577,0,0,1,1.293,1.9,3.607,3.607,0,0,1,.035,2.175" transform="translate(-67.205 -8.449)" fill="#fff"></path>
        <path id="Pfad_32" data-name="Pfad 32" d="M130.188,45.421l-.452.021q-.706.031-1.408.053c-.469.016-.927.022-1.394.021-1.861-.011-3.722-.117-5.574-.29-.194-.018-.386-.037-.579-.058q-.07.684-.1,1.4c1.722.169,3.461.25,5.158.268q.7.007,1.393,0c.231,0,.46-.01.69-.015l.673-.025,1.436-.056c.016-.192.034-.383.056-.577.028-.246.061-.491.1-.732" transform="translate(-75.652 -12.051)"></path>
        <path id="Pfad_33" data-name="Pfad 33" d="M136.432,45.208l-1.188.06c-.018.146-.036.294-.051.445-.029.3-.053.591-.075.882q3.414-.092,6.835-.221l1.741-.068a14.717,14.717,0,0,1,.089-1.5c-2.452.147-4.907.276-7.352.4" transform="translate(-79.503 -11.954)"></path>
        <path id="Pfad_34" data-name="Pfad 34" d="M162.883,45.121c1.15-.114,2.3-.245,3.442-.4.252-.036.5-.073.755-.111.006-.448.032-.9.077-1.351l-.466.017c-1.033.04-2.076.1-3.12.169-.611.043-1.224.09-1.839.139a12.49,12.49,0,0,0-.14,1.661c.43-.038.861-.076,1.291-.118" transform="translate(-86.567 -11.541)"></path>
        <path id="Pfad_35" data-name="Pfad 35" d="M115.835,44.185c-1.313-.158-2.623-.357-3.928-.614-.919-.183-1.837-.394-2.745-.649L109.1,42.9c-.432-.122-.862-.255-1.287-.4a12.775,12.775,0,0,1-1.3-.526.371.371,0,0,0-.428.022.226.226,0,0,0,.048.345,9.267,9.267,0,0,0,2.136,1.331c.206.1.414.188.627.275a18.693,18.693,0,0,0,1.862.651,30.958,30.958,0,0,0,4.956.98q.024-.449.066-.888c.018-.17.038-.337.059-.505" transform="translate(-71.739 -11.185)"></path>
        <path id="Pfad_36" data-name="Pfad 36" d="M157.3,43.812c-1.147.1-2.295.2-3.441.289q-2.507.2-5.023.353c-.039.494-.055,1-.048,1.526q1.877-.082,3.753-.188,2.262-.129,4.52-.309a11.491,11.491,0,0,1,.239-1.671" transform="translate(-83.15 -11.69)"></path>
        <path id="Pfad_37" data-name="Pfad 37" d="M120.677,38.006a13.1,13.1,0,0,1,.708-2.329c.144-.346.329-.711.492-1.062l.488-1.029a34.57,34.57,0,0,1,1.867-3.5c.616-.993,1.211-1.811,1.708-2.474s.9-1.169,1.166-1.521.392-.545.362-.572-.25.027-.648.243a7.366,7.366,0,0,0-1.561,1.2,14.621,14.621,0,0,0-1.942,2.4,25.3,25.3,0,0,0-1.943,3.572c-.31.687-.608,1.417-.886,2.191a24.409,24.409,0,0,0-.75,2.458l-.078.329-.036.172-.032.166c-.044.222-.083.447-.12.673-.048.29-.087.587-.123.884-.021.168-.041.335-.059.506-.029.292-.05.589-.066.888a19.94,19.94,0,0,0-.014,2.043c.014.291.035.586.063.881a21.325,21.325,0,0,0,.311,2.4,17.632,17.632,0,0,0,.879,3.115,12.315,12.315,0,0,0,1.639,2.99,8.229,8.229,0,0,0,2.734,2.354.594.594,0,0,0,.7-.119.568.568,0,0,0-.034-.812h0l-.009-.009a15.618,15.618,0,0,1-3.8-5.1,15.9,15.9,0,0,1-1.347-5.016c-.014-.172-.028-.343-.037-.514-.041-.708-.048-1.406-.024-2.088.016-.474.049-.938.1-1.395a18.787,18.787,0,0,1,.3-1.917m4.916-10.745a10.112,10.112,0,0,1,1.089-1.088c-.3.29-.665.674-1.1,1.156-.209.235-.432.493-.665.776.23-.312.455-.595.672-.844" transform="translate(-75.253 -6.806)"></path>
        <path id="Pfad_38" data-name="Pfad 38" d="M134.773,41.237c.037-.3.082-.586.144-.862a5.985,5.985,0,0,1,.167-.6c.069-.2.144-.416.218-.62.3-.822.613-1.6.94-2.338a31.294,31.294,0,0,1,2-3.777c.644-1.037,1.228-1.84,1.631-2.4s.625-.88.566-.936-.389.162-.909.642l-.034.033a3.206,3.206,0,0,0-.811.633,16.4,16.4,0,0,0-1.883,2.177,18.672,18.672,0,0,0-1.089,1.672,15.04,15.04,0,0,0-1,2.08c-.036.095-.073.2-.107.293l-.1.291c-.065.194-.129.392-.191.592q-.186.6-.347,1.239-.092.373-.174.756l0,.013c-.034.152-.065.3-.092.458-.044.235-.085.471-.122.711s-.07.486-.1.732c-.023.194-.04.386-.056.577a17.983,17.983,0,0,0,.2,4.524,16.435,16.435,0,0,0,1.117,4.145,11.911,11.911,0,0,0,1.491,2.6c.436.559.738.818.8.772s-.037-.243-.215-.6c.31.321.515.463.563.425.066-.051-.119-.378-.441-.955a20.027,20.027,0,0,1-1.2-2.491A17.562,17.562,0,0,1,134.7,47.1c-.017-.119-.033-.238-.048-.359a23.593,23.593,0,0,1-.089-2.37c.005-.588.037-1.191.084-1.806.022-.291.047-.584.075-.882.015-.151.032-.3.051-.445" transform="translate(-79.032 -7.923)"></path>
        <path id="Pfad_39" data-name="Pfad 39" d="M160.031,44.028a12.079,12.079,0,0,0,.39,3.122,10.608,10.608,0,0,0,.551,1.587,8.134,8.134,0,0,0,.869,1.522,6.2,6.2,0,0,0,.474.575.4.4,0,0,0,.475.077.38.38,0,0,0,.154-.519,13.616,13.616,0,0,1-1.173-2.848,15.332,15.332,0,0,1-.535-2.818,14.04,14.04,0,0,1-.06-1.582,12.614,12.614,0,0,1,.14-1.661,10.089,10.089,0,0,1,.356-1.542,8.626,8.626,0,0,1,.735-1.7,7.93,7.93,0,0,1,.8-1.154c.249-.3.463-.512.607-.663s.218-.232.2-.254-.1.015-.242.1c.548-.553.892-.827.858-.873a3.074,3.074,0,0,0-1.112.7,8.73,8.73,0,0,0-1.1,1.087,9.482,9.482,0,0,0-1.147,1.7,10.428,10.428,0,0,0-.888,2.318c-.029.119-.056.238-.084.361a11.664,11.664,0,0,0-.238,1.67c-.018.259-.029.523-.031.79" transform="translate(-86.15 -9.444)"></path>
        <path id="Pfad_40" data-name="Pfad 40" d="M148.311,41.261c.03-.4.073-.782.131-1.157a14.441,14.441,0,0,1,.778-2.988,14.76,14.76,0,0,1,2.246-3.911c.334-.426.611-.746.794-.97s.271-.352.244-.381-.169.042-.408.215a8.708,8.708,0,0,0-.973.841,12.3,12.3,0,0,0-1.325,1.552l-.023.033c-.19.235-.386.49-.585.774a13.246,13.246,0,0,0-1.293,2.315,13.1,13.1,0,0,0-.9,3.1c-.036.218-.065.441-.09.666a14.726,14.726,0,0,0-.089,1.5c0,.5.015,1.01.063,1.529a19.1,19.1,0,0,0,.82,3.994A26.235,26.235,0,0,0,149.37,52.4a.593.593,0,0,0,.754.27.571.571,0,0,0,.307-.753l0,0-.158-.364a23.864,23.864,0,0,1-1.978-7.909c-.018-.29-.027-.575-.03-.858-.007-.522.01-1.032.048-1.526" transform="translate(-82.624 -8.497)"></path>
        <path id="Pfad_41" data-name="Pfad 41" d="M171.935,49.116c3,3.97,9.644,6.809,14.915,5.271a11.042,11.042,0,0,1-1.323-.535c-.229-.111-.455-.229-.677-.355s-.448-.265-.649-.392c-.419-.267-.833-.552-1.231-.838-.8-.577-1.559-1.18-2.3-1.75-.43-.331-.851-.67-1.268-1.014l-.621-.521c-.211-.182-.416-.363-.62-.55a19.67,19.67,0,0,1-2.255-2.439c-.339-.438-.662-.9-.955-1.368s-.574-.949-.828-1.45a11.18,11.18,0,0,1-1.1-3.23.578.578,0,0,1,.438-.637.754.754,0,0,1,.782.181,2.151,2.151,0,0,1,.457.837c.09.292.148.606.245.916a13.772,13.772,0,0,0,1.392,2.936,16.6,16.6,0,0,0,1.917,2.559c.361.4.743.784,1.139,1.155s.813.737,1.23,1.094a33.569,33.569,0,0,0,4.93,3.572,16.361,16.361,0,0,0,1.9.911,32.349,32.349,0,0,0-1.107-3.782c-.721-.462-1.427-.941-2.131-1.423s-1.414-.971-2.113-1.472a34.091,34.091,0,0,1-3.721-3.017,18.726,18.726,0,0,1-3.071-3.73c-.023-.037.059-.1.1-.079a19.564,19.564,0,0,1,3.455,2.678,29.613,29.613,0,0,0,3.258,2.755c.666.454,1.345.892,2.036,1.324q.642.4,1.289.8c-2.348-5.008-6.393-9.094-13.191-9.138,5.453-.224,9.45-1.614,13.045-5.133a16.968,16.968,0,0,0,3.578-5.572c-.724.309-1.441.647-2.159.986q-1.114.522-2.222,1.079c-.741.372-1.472.747-2.188,1.153a20.52,20.52,0,0,0-3.711,2.6,10.547,10.547,0,0,0-2.646,3.567c-.018.037-.12.007-.124-.042a4.312,4.312,0,0,1,.37-2.2,6.471,6.471,0,0,1,1.29-1.864,19.507,19.507,0,0,1,3.566-2.653c.683-.446,1.38-.859,2.078-1.26s1.4-.79,2.1-1.176c1.386-.759,2.8-1.486,4.237-2.169a8.645,8.645,0,0,0,.161-2.795,27.986,27.986,0,0,1-3.838,2.354c-.4.22-.785.438-1.177.672l-.6.354-.591.36c-.785.481-1.55.98-2.256,1.51q-.614.462-1.219.938l-.6.48-.293.239-.288.243a17.816,17.816,0,0,0-2.114,2.12,14.363,14.363,0,0,0-1.651,2.468,7.95,7.95,0,0,0-.9,2.713c-.029.248-.271.4-.552.448a.676.676,0,0,1-.74-.313,1.726,1.726,0,0,1-.13-1.094,5.255,5.255,0,0,1,.348-1.061,13.8,13.8,0,0,1,1.782-3.063,16.867,16.867,0,0,1,2.3-2.445c.416-.367.844-.715,1.283-1.051s.87-.652,1.309-.972q1.223-.892,2.482-1.722.631-.415,1.272-.81l.643-.39c.219-.131.438-.255.66-.378a34.559,34.559,0,0,1,4.8-2.084,5.683,5.683,0,0,0-.407-1.282c-5.23,1.748-11.366,4.041-15.737,7.849a12.406,12.406,0,0,0-4.261,8.366q-.068.677-.077,1.351a20.255,20.255,0,0,0,2.858,10.412" transform="translate(-88.564 -5.639)"></path>
        <path id="Pfad_42" data-name="Pfad 42" d="M185.583,30.676c-.7.4-1.395.815-2.078,1.26a19.481,19.481,0,0,0-3.566,2.653,6.446,6.446,0,0,0-1.29,1.864,4.312,4.312,0,0,0-.37,2.2c0,.048.106.079.123.042a10.566,10.566,0,0,1,2.646-3.567,20.529,20.529,0,0,1,3.712-2.6c.716-.405,1.447-.781,2.187-1.153s1.48-.73,2.222-1.079c.719-.338,1.435-.676,2.159-.985l.154-.067c.479-.2.98-.311,1.238-.881.207-.452-.312-1.259-.714-1.071l-.084.041c-1.44.683-2.85,1.41-4.236,2.168q-1.06.578-2.1,1.177" transform="translate(-91.013 -7.274)" fill="#fff"></path>
        <path id="Pfad_43" data-name="Pfad 43" d="M185.406,25.245l-.643.389q-.642.4-1.271.811-1.261.829-2.483,1.721c-.44.321-.874.642-1.31.973s-.866.683-1.282,1.051a16.831,16.831,0,0,0-2.3,2.445,13.741,13.741,0,0,0-1.782,3.063,5.19,5.19,0,0,0-.348,1.061,1.723,1.723,0,0,0,.129,1.093.676.676,0,0,0,.74.314c.282-.047.523-.2.551-.448a7.954,7.954,0,0,1,.9-2.713,14.285,14.285,0,0,1,1.651-2.469,17.689,17.689,0,0,1,2.113-2.119l.289-.243.293-.24.6-.48q.6-.475,1.218-.938c.707-.531,1.472-1.029,2.256-1.512l.592-.359.6-.354c.392-.235.781-.452,1.177-.672a28.059,28.059,0,0,0,3.838-2.354c.259-.2.512-.419.758-.648.043-.042-.014-.133-.065-.114l-.771.28a34.681,34.681,0,0,0-4.8,2.084c-.221.122-.441.247-.659.378" transform="translate(-89.866 -6.003)" fill="#fff"></path>
        <path id="Pfad_44" data-name="Pfad 44" d="M184.389,52.243a29.53,29.53,0,0,1-3.258-2.755,19.629,19.629,0,0,0-3.455-2.678c-.043-.024-.125.043-.1.08a18.754,18.754,0,0,0,3.072,3.73,34.02,34.02,0,0,0,3.721,3.017c.7.5,1.408.99,2.113,1.472s1.408.961,2.131,1.424l.012.008c.753.484,1.528.936,2.313,1.378a1.935,1.935,0,0,0,1.558.43c.493-.141.714-1.081.317-1.248a37.125,37.125,0,0,1-4.3-2.252c-.266-.159-.532-.323-.8-.484q-.647-.4-1.289-.8c-.69-.433-1.37-.871-2.035-1.325" transform="translate(-90.83 -12.488)" fill="#fff"></path>
        <path id="Pfad_45" data-name="Pfad 45" d="M182.054,55.583c-.416-.357-.834-.725-1.23-1.094s-.777-.757-1.139-1.155a16.526,16.526,0,0,1-1.917-2.56,13.807,13.807,0,0,1-1.392-2.936c-.1-.31-.154-.624-.245-.916a2.152,2.152,0,0,0-.456-.836.756.756,0,0,0-.782-.181.576.576,0,0,0-.438.637,11.153,11.153,0,0,0,1.1,3.23c.253.5.531.981.827,1.451s.615.929.955,1.368A19.665,19.665,0,0,0,179.6,55.03c.2.187.408.368.62.55l.622.521c.416.344.838.683,1.268,1.014.738.57,1.5,1.172,2.3,1.75.4.286.812.571,1.232.838.2.128.43.268.649.392s.448.243.677.355a10.977,10.977,0,0,0,1.323.536,9.849,9.849,0,0,0,1.511.375,8.476,8.476,0,0,0,2.864-.01c.059-.011.062-.12.007-.132a24.506,24.506,0,0,1-3.782-1.154,16.288,16.288,0,0,1-1.9-.91,33.573,33.573,0,0,1-4.931-3.572" transform="translate(-89.997 -12.238)" fill="#fff"></path>
      </g>
    </g>
    <path id="yarn" d="M82.308,41.139C82.249,14.742,57.019-4.086,32.447,1.5l-.034-.039-.062.062A40.243,40.243,0,0,0,25.61,3.7C11.8,9.806,4.015,20.659,1.491,32.387l-.047.047.03.028a41.885,41.885,0,0,0,.007,17.332c-.011.019-.026.033-.037.052l.062.062c3.617,16.966,17.6,31.739,39.611,32.35a38.457,38.457,0,0,0,6.936-.491c5.672-.139,11.516-.143,16.972-.118a13.1,13.1,0,0,0,4.111-.6c1.994-.58,3.435-1.867,5.429-1.928,1.277-.015,2.614.092,3.974.094,4.829-.325,4.609-7.337-.2-7.552a34.154,34.154,0,0,0-5.707.09,15.8,15.8,0,0,0-5.025,1.8,5.767,5.767,0,0,1-1.7.554A40.5,40.5,0,0,0,82.307,41.139ZM71.836,64.369C67.3,60.292,62.872,56.1,58.5,51.857,44.87,38.834,31.091,22.794,17.369,9.786a39.991,39.991,0,0,1,4.938-3.241c7.458,8.108,19.112,18.6,27.113,26.292C58.268,41.4,66.946,50.116,75.148,59.3a40.155,40.155,0,0,1-3.312,5.066Zm-7.59-30.758c-1.393-1.3-2.76-2.571-4.074-3.8,2.239-1.872,3.786-4.443,5.7-6.638A32.7,32.7,0,0,1,72.035,17.5a39.584,39.584,0,0,1,3.414,5.35c-2.214,3.5-5.462,6.075-8.738,8.531a20.063,20.063,0,0,0-2.466,2.229Zm4.169-.526c2.322-3.1,4.747-6.175,7.956-8.373a37.908,37.908,0,0,1,2.344,6.578c-1.584,2.837-4.2,4.788-6.83,6.6a16.868,16.868,0,0,0-1.624,1.37c-1.325-1.261-2.667-2.523-4-3.771A20.965,20.965,0,0,0,68.414,33.085ZM75.6,36.816a17.781,17.781,0,0,1,3.591-3.429,36.357,36.357,0,0,1,.653,7.752,35.838,35.838,0,0,1-.65,6.983c-2.089-2.207-4.456-4.559-6.936-6.95A47.3,47.3,0,0,0,75.6,36.816ZM70.732,15.87a32.271,32.271,0,0,1-5.8,6.368C62.72,24.167,60.124,25.73,58.249,28c-.705-.665-1.4-1.319-2.052-1.945-.677-.653-1.345-1.314-2.019-1.969,2.322-1.881,3.9-4.515,5.85-6.757A32.162,32.162,0,0,1,66.446,11.5a40.425,40.425,0,0,1,4.288,4.375ZM51.522,3.281a38.26,38.26,0,0,1,6.16,2.37,27.155,27.155,0,0,1-5.058,5.515c-2.049,1.758-4.49,3.14-6.18,5.266q-2.079-2.1-4.129-4.233c1.586-2.847,4.205-4.8,6.846-6.626a8.9,8.9,0,0,0,2.36-2.294ZM53.557,12.1a26.238,26.238,0,0,1,6.089-5.424,39.765,39.765,0,0,1,5.175,3.471A32.508,32.508,0,0,1,59.095,16.4c-2.249,1.959-4.9,3.54-6.777,5.875q-2.032-1.988-4.04-4c2.131-1.686,3.518-4.131,5.278-6.178ZM41.119,1.814a36.613,36.613,0,0,1,7.411.73c-1.175,1.23-2.006,2.8-3.082,4.11a16.464,16.464,0,0,1-4.577,4.026q-3.832-4.03-7.533-8.19a36.094,36.094,0,0,1,7.781-.677ZM30.778,3.1l-.109.109c4.307,3.756,8.457,7.669,12.555,11.634C54.982,26,66.666,39.93,78.506,51.068a38.049,38.049,0,0,1-2.25,6.046c-4.263-3.819-8.423-7.742-12.523-11.724C50.758,33.02,37.707,17.74,24.645,5.357A37.812,37.812,0,0,1,30.778,3.1ZM15.429,11.378c7.823,8.439,19.85,19.327,28.143,27.308,9.2,8.908,18.22,17.976,26.779,27.5-.138.16-.274.32-.413.477-.416-.424-.868-.857-1.283-1.23-.212-.192-.387-.353-.5-.452-.57-.507-1.174-.98-1.75-1.416-.149-.112-.295-.222-.441-.327a7.729,7.729,0,0,0-1.425-.851.25.25,0,0,0-.254.037.294.294,0,0,0-.107.3,1.075,1.075,0,0,0,.205.4,24.477,24.477,0,0,0,2.743,2.8l.18.157q.74.639,1.528,1.222l.09.066c.073.054.152.1.225.152q-.575.612-1.173,1.2c-.061-.065-.118-.128-.182-.194-.678-.7-1.489-1.448-2.09-2-.3-.277-.524-.492-.62-.584-.7-.674-1.466-1.269-2.2-1.866-.189-.153-.376-.3-.566-.452a18.351,18.351,0,0,0-1.754-1.23.3.3,0,0,0-.347.029.313.313,0,0,0-.072.4,3.815,3.815,0,0,0,.364.486,44.764,44.764,0,0,0,3.6,3.613c.077.07.156.139.233.208q.953.845,1.951,1.638l.113.09c.262.207.537.4.8.6-.338.314-.683.619-1.032.922C61.572,66.251,57.087,62,52.661,57.7,38.971,44.621,25.134,28.5,11.355,15.461a40.713,40.713,0,0,1,4.073-4.085ZM63.6,72.44c-.212-.26-.467-.544-.747-.84-.656-.689-1.429-1.43-2.041-2.009-.358-.339-.628-.606-.744-.725-.708-.721-1.5-1.354-2.253-2q-.26-.223-.521-.44c-.634-.53-1.252-1.018-1.831-1.429a.331.331,0,0,0-.364-.026.257.257,0,0,0-.127.336,22.376,22.376,0,0,0,3.3,3.733c.244.236.492.47.741.7.75.7,1.52,1.376,2.284,2.019.121.1.241.2.362.3.406.339.8.649,1.166.936-.569.4-1.145.783-1.733,1.15a7.642,7.642,0,0,0-.772-1.007c-.493-.562-1.1-1.181-1.653-1.72-.259-.254-.477-.47-.619-.612-.6-.6-1.244-1.152-1.85-1.678-.141-.123-.28-.241-.417-.358-.57-.485-1.093-.9-1.511-1.195a.354.354,0,0,0-.287-.072c-.132.04-.212.106-.216.168-.044.577,1.123,1.918,2.477,3.267.2.2.411.4.62.6.632.6,1.284,1.192,1.907,1.726.1.085.2.168.293.249.506.428.959.791,1.317,1.054-.354.211-.705.424-1.065.624-4.478-3.987-8.83-8.1-13.125-12.272-13.161-12.546-26.4-28.1-39.649-40.575a40.153,40.153,0,0,1,3.223-4.941C17.594,25.823,29.5,36.606,37.73,44.529,46.874,53.385,55.847,62.4,64.364,71.873c-.251.193-.5.382-.759.569ZM5.352,24.712c7.472,8.018,18.731,18.173,26.53,25.666,8.677,8.394,17.186,16.947,25.249,25.94a37.836,37.836,0,0,1-6.016,2.26c-6.7-7.282-17.03-16.492-24.139-23.292-8.217-7.918-16.262-16-23.785-24.594l-.052.052a38.1,38.1,0,0,1,2.216-6.031ZM30.924,78.7a37.7,37.7,0,0,1-5.8-2.076,26.662,26.662,0,0,0,1.81-2.065c2.391-3.19,4.9-6.35,8.249-8.559q2.207,2.344,4.416,4.643C38,73.191,35.544,75,33.082,76.7a10.257,10.257,0,0,0-2.159,2.01Zm2.892-14.163a26.976,26.976,0,0,1-5.134,5.638c-2.02,1.736-4.426,3.106-6.111,5.186a40.029,40.029,0,0,1-4.818-3.092c2.083-1.845,3.571-4.292,5.4-6.386a32.151,32.151,0,0,1,6.44-5.849q2.11,2.253,4.224,4.5Zm-23.882.036A39.988,39.988,0,0,1,6.754,59.8,16.361,16.361,0,0,0,9.4,57.021c2.512-3.351,5.149-6.671,8.766-8.887q2.114,2.112,4.227,4.31a31.723,31.723,0,0,1-6.011,6.671c-2.116,1.844-4.592,3.345-6.444,5.462ZM14,44.067c.857.813,1.713,1.669,2.568,2.508-2.216,3.6-5.529,6.236-8.872,8.742A23.587,23.587,0,0,0,5.459,57.3a37.95,37.95,0,0,1-2.191-5.772c1.9-1.251,2.892-3.421,4.3-5.137a16.392,16.392,0,0,1,4.617-4.048c.6.576,1.211,1.142,1.809,1.721ZM1.823,41.139a36.285,36.285,0,0,1,.681-7.75C5.28,35.84,7.992,38.355,10.672,40.9c-1.586,2.818-4.187,4.76-6.811,6.569-.448.351-.908.689-1.328,1.066a35.95,35.95,0,0,1-.71-7.4Zm9.835,25.51c2.217-1.868,3.757-4.421,5.656-6.6a31.8,31.8,0,0,1,6.633-5.985q2.083,2.18,4.168,4.4a32.036,32.036,0,0,1-5.894,6.492c-2.169,1.888-4.708,3.42-6.575,5.617a40.733,40.733,0,0,1-3.986-3.923ZM34.012,79.389c1.02-1.171,1.8-2.579,2.785-3.771a17.162,17.162,0,0,1,4.022-3.7q3.689,3.809,7.4,7.347a35.693,35.693,0,0,1-7.1.671,35.5,35.5,0,0,1-7.107-.546Zm34.838-3.36a13.566,13.566,0,0,1,6.021-1.941c.641-.014,2.349-.068,2.964-.076a1.754,1.754,0,1,1,.6,3.442l-1.939.07a10.413,10.413,0,0,0-4.179.652c-2.446,1.265-4.558,2.374-7.29,2.37-3.748.014-7.687.022-11.626-.019a40.378,40.378,0,0,0,8.37-3.687c2.324.118,4.957.42,7.081-.809Z" transform="translate(791.925 552.734)"></path>
  </g>
</svg>
