<?xml version="1.0" encoding="UTF-8"?>
<svg xmlns="http://www.w3.org/2000/svg" width="713.451" height="513.757" viewBox="0 0 713.451 513.757">
  <g id="Gruppe_28" data-name="Gruppe 28" transform="translate(-1050.583 -1745.468)">
    <path id="cat-toy" d="M456.326,67.351c8.538-.383,17.45,1.268,26.592-1.524C519.384,53.953,510.974.122,472.78.105L279.462,3.833c-36.211.383-72.523.672-108.742.426-25.051-3.3-43.352,25.179-28.226,46.187a29.814,29.814,0,0,0,23.851,12.436L278.262,64.8c1.949,29.477,2.928,58.946,3.49,88.424-70.216-2.307-147.481.689-217.833,2.026-11.117.451-26.43.2-37.521,1.073C11.569,158.107,0,172.024.537,186.478.486,199.51,10.053,211.444,22.4,214.67c-2.545,36.883,2.324,88.356,3.677,125.026,1.4,41.36,1.081,82.661-3.209,123.894C14,463.24,4.359,469,1.763,477.958c-4.682,13.007,6.112,27.775,19.884,27.554l256.564,3.311c46.493.426,155.227,1.507,200.435.851,34.517,1.694,37.445-48.5,2.656-49.924-28.311.451-71.927,1.115-120.421,1.788-2.128-32.108-3.115-64.207-3.66-96.315-2.63-95.778,6.954-202.733,4.162-299.013,7.388.085,38.007.451,62.538.749a305.455,305.455,0,0,1,2.707,32.269c2.673,37.121-6.571,78.294-4.307,115.68-12.121,3.643-22.14,13.994-21.706,31.154,2.715,38.645,59.9,39.207,62.777,0,.579-19.076-11.364-29.716-24.983-32.159,1.507-22.872-2.792-52.63-4.094-74.243-1.268-24.26-1.03-48.459,2.4-72.549,11.5.136,19.62.238,19.62.238Zm-8.189,178.712c1.8,27.945-39.862,29.384-39.369,0C411.536,221.514,444.81,222.586,448.138,246.062ZM159.807,12.26c77.826-3.975,232.96,2.562,312.973,3.081,19.723.409,23.732,28.32,5.056,34.125C464.319,51.144,375.163,50.7,359.671,51.39L166.353,54.7c-24.668.179-29.835-34.985-6.546-42.45Zm70.148,450.929c-.366-2.511-3.677-7.431-7.746-12.743-6.631-8.64-15.237-18.25-16.224-19.884-4.35-4.886-8.674-9.8-13.134-14.581s-9.065-9.457-13.968-13.866a2.217,2.217,0,0,0-3.337,2.86A369.267,369.267,0,0,0,199.5,436.129q6.384,7.457,13.168,14.564c4.094,4.29,8.325,8.461,12.632,12.555-8.435.085-16.735.17-24.855.247-.638-2.222-2.852-5.686-5.695-9.474-3.32-4.409-7.389-9.193-10.47-12.768-1.566-1.822-2.724-3.243-3.252-3.882-3.524-4.239-7.448-8.129-11.219-11.968-.987-1-1.966-2-2.962-2.962a95.743,95.743,0,0,0-9.108-7.976,1.9,1.9,0,0,0-2.162-.077,1.989,1.989,0,0,0-.783,2.469,19.08,19.08,0,0,0,1.532,2.732,235.1,235.1,0,0,0,18.037,23.17c.358.4.707.8,1.064,1.2q4.877,5.478,10.078,10.649l.519.519c2.928,2.894,5.984,5.661,9.065,8.418q-12.436.115-24.157.2a30.366,30.366,0,0,0-3.643-6.163c-2.46-3.4-5.661-7.15-8.478-10.317-1.149-1.294-2.1-2.383-2.732-3.081-3.022-3.311-6.231-6.461-9.312-9.355-.809-.758-1.6-1.5-2.4-2.2a44.357,44.357,0,0,0-7.755-5.8,1.622,1.622,0,0,0-1.634.043,1.945,1.945,0,0,0-.919,1.873,5.992,5.992,0,0,0,.851,2.281A138.268,138.268,0,0,0,149.243,449.4l.86.936q3.958,4.252,8.248,8.2l.434.392c1.864,1.694,3.847,3.26,5.805,4.869-8.044.06-15.764.1-23.11.145-1.353-2.826-4.46-6.759-8.129-10.657A97.644,97.644,0,0,0,121.886,442.8c-3.567-2.7-6.478-4.231-7.516-3.447a2.28,2.28,0,0,0-.885,3.1,79.284,79.284,0,0,0,18.054,20.267c.57.451,1.2.817,1.788,1.26-14.122.06-26.6.068-36.874.026l-16.292-.085c-2.128-40.662-3.771-82.218-3.5-122.634,2.145-41.182,40.169-75.375,81.172-74.1,43.156.3,79.495,39.1,77.562,81.682q-.128,6.55-.264,13.134c-4.477-4.605-9.491-9.3-13.67-12.93-4.256-3.7-7.627-6.324-8.657-6.656-7.44-1.021-.724,7.933,8.359,17.305,4.477,4.622,9.525,9.329,13.747,13.015-.153,7.6-.255,15.194-.358,22.8-2.366-2.92-5-5.941-7.508-8.708-1.456-1.6-2.7-3-3.55-3.907-3.388-3.626-6.92-7.133-10.283-10.4-.792-.775-1.575-1.532-2.358-2.264-3.184-2.988-6.095-5.575-8.436-7.406a2.4,2.4,0,0,0-1.83-.6c-.919.187-1.507.6-1.583,1.047-.7,3.652,5.873,11.84,13.483,20.174q1.749,1.928,3.558,3.847c3.533,3.745,7.184,7.4,10.666,10.725.536.519,1.073,1.03,1.609,1.524,2.264,2.1,4.333,3.933,6.1,5.431q-.128,13.381.017,26.762A59.025,59.025,0,0,0,229.189,424c-3.294-4.29-7.295-8.912-10.487-12.581-1.881-2.162-3.32-3.89-3.967-4.656-3.72-4.384-7.8-8.461-11.7-12.5-.919-.945-1.839-1.89-2.758-2.809-3.32-3.311-6.563-6.376-9.619-8.963a2.137,2.137,0,0,0-2.256-.409,1.694,1.694,0,0,0-1.115,2.051c2.664,6.41,9.3,14.726,16.539,23.076q1.954,2.26,3.95,4.511c3.9,4.358,7.916,8.606,11.917,12.64.621.621,1.234,1.243,1.856,1.856,3.975,3.907,7.746,7.354,10.785,10.01a4.845,4.845,0,0,0,2.128.187q.179,13.381.749,26.728c-1.753.017-3.516.034-5.261.06Zm20.565-114.326c-.706-78.005-95.787-119.136-152.477-65.773A90.565,90.565,0,0,0,69.5,340.666c-1.294,41.531-1.822,82.108-4.222,123.17l-27.818-.145c-2.145-20.046-3.294-40.1-3.7-60.147C31.036,343.3,40.867,276.059,37.9,215.632c8.8,0,17.22-.221,26.03-.221,70.421.136,148,.613,218.208,4.077-1.047,80.491-6.767,165.348-4.324,243.157-9.082.111-18.131.221-27.094.323,1.558-37.956.553-76.141-.2-114.1ZM292.426,72.4a241.054,241.054,0,0,0,22.046,18.744A215.688,215.688,0,0,0,345.141,110.5c.1,14.632.426,29.792.86,45.046a214.513,214.513,0,0,0-55.72-39.522c.511-14.539,1.268-29.077,2.145-43.616Zm22.046,78.328c10.1,7.423,20.531,14.394,31.989,20,.511,15.781,1.1,31.452,1.634,46.519a214.624,214.624,0,0,0-59.014-42.3q.179-22.689.843-45.378a228.345,228.345,0,0,0,24.54,21.153Zm35.07,112.36c.1,5.141.119,10.274.2,15.415a214.715,214.715,0,0,0-60.487-43.871q-.281-23.225-.2-46.442a224.9,224.9,0,0,0,25.426,22.123C325.2,218.194,336.28,225.6,348.6,231.371c.383,11.091.715,21.765.945,31.725Zm.57,75.375a214.5,214.5,0,0,0-59.551-43.54c-.383-11.134-.724-21.851-.953-31.835-.094-4.963-.111-9.934-.187-14.9A224.751,224.751,0,0,0,314.472,269.9c11.108,8.172,22.583,15.858,35.436,21.7Q350.189,315.036,350.112,338.461Zm-59.04-29.009a234.905,234.905,0,0,0,23.391,20.029c11.159,8.206,22.676,15.926,35.6,21.782q-.179,22.944-.86,45.872a214.438,214.438,0,0,0-56.5-41.471c-.511-15.671-1.09-31.231-1.626-46.2Zm2.971,121.987a253.129,253.129,0,0,0,20.429,17.211c6.35,4.673,12.853,9.151,19.629,13.262-13.432.179-27.077.358-40.747.528.409-9.789.638-20.157.7-31Zm-.026-15.484c-.1-14.59-.417-29.716-.851-44.935a247.65,247.65,0,0,0,21.306,18.046c10.8,7.942,21.978,15.407,34.406,21.2-.511,14.641-1.285,29.282-2.171,43.922A214.341,214.341,0,0,0,294.017,415.956Zm51.09-320.9A213.661,213.661,0,0,0,306.7,65.291l39.011.672C345.354,75.2,345.158,84.92,345.107,95.058ZM27.588,166c4.265-.281,13.177.221,17.858.213,12.147.272,78.7,1.813,92.331,2.128,48.076.775,96.153,2.034,144.221.306q.37,17.735.289,35.879c-82.857,3.762-172.013,4.775-254.853,3.584-24.872-3.5-24.557-39.386.145-42.118ZM484.042,492.82c-6.588.868-69.467-.187-77.562.111-82.287.417-299.712,3.26-384.841,4.409a12.9,12.9,0,0,1-10.555-5.269C5.729,485.3,9.3,474.323,17.536,471.838c3.481-1.217,9.585-.494,14.769-.741,116.59-1.43,330.33,2.128,448.98,3.907,10.351.077,12.368,14.981,2.749,17.824Z" transform="translate(1255.725 1747.363)" fill="#ffdd5f" stroke="#000" stroke-linejoin="bevel" stroke-width="4"></path>
    <path id="yarn" d="M136.729,68.186C136.63,24.212,94.6-7.151,53.669,2.16L53.611,2.1l-.1.1A67.037,67.037,0,0,0,42.28,5.821C19.271,15.991,6.308,34.07,2.1,53.607l-.078.078.05.046A69.771,69.771,0,0,0,2.087,82.6c-.018.032-.044.055-.062.087l.1.1c6.025,28.263,29.316,52.872,65.984,53.888a64.06,64.06,0,0,0,11.554-.817c9.449-.232,19.183-.239,28.272-.2a21.826,21.826,0,0,0,6.849-1.005c3.321-.966,5.722-3.11,9.043-3.211,2.128-.025,4.354.154,6.619.156,8.045-.542,7.677-12.222-.335-12.58-3.009-.018-6.525-.363-9.507.149a26.322,26.322,0,0,0-8.37,3,9.607,9.607,0,0,1-2.839.923c16.787-12.649,27.806-32.821,27.329-54.907Zm-17.446,38.7c-7.56-6.791-14.932-13.769-22.21-20.842C74.364,64.346,51.41,37.625,28.553,15.957a66.617,66.617,0,0,1,8.226-5.4C49.2,24.066,68.615,41.55,81.943,54.355c14.74,14.258,29.195,28.784,42.858,44.088a66.89,66.89,0,0,1-5.518,8.439ZM106.639,55.645c-2.32-2.164-4.6-4.283-6.787-6.332,3.73-3.119,6.307-7.4,9.488-11.058a54.466,54.466,0,0,1,10.275-9.449,65.94,65.94,0,0,1,5.687,8.912c-3.688,5.823-9.1,10.119-14.556,14.212a33.421,33.421,0,0,0-4.108,3.714Zm6.945-.877c3.867-5.16,7.907-10.287,13.252-13.948a63.147,63.147,0,0,1,3.9,10.957c-2.639,4.726-6.989,7.976-11.377,11a28.1,28.1,0,0,0-2.706,2.281c-2.208-2.1-4.443-4.2-6.665-6.282a34.921,34.921,0,0,0,3.592-4.01Zm11.965,6.215a29.62,29.62,0,0,1,5.981-5.713,60.563,60.563,0,0,1,1.088,12.913,59.7,59.7,0,0,1-1.083,11.632c-3.479-3.677-7.423-7.595-11.554-11.577C122.168,66.141,123.63,63.313,125.549,60.983Zm-8.1-34.891a53.758,53.758,0,0,1-9.66,10.608c-3.686,3.213-8.01,5.816-11.134,9.605-1.175-1.109-2.325-2.2-3.418-3.241-1.127-1.088-2.24-2.19-3.362-3.28,3.867-3.133,6.493-7.521,9.745-11.256A53.575,53.575,0,0,1,110.3,18.807a67.339,67.339,0,0,1,7.143,7.287Zm-32-20.971A63.734,63.734,0,0,1,95.707,9.069a45.235,45.235,0,0,1-8.426,9.188c-3.413,2.929-7.48,5.231-10.294,8.772q-3.463-3.5-6.879-7.051c2.642-4.742,7-8,11.4-11.037a14.83,14.83,0,0,0,3.932-3.821Zm3.39,14.691a43.708,43.708,0,0,1,10.142-9.036,66.241,66.241,0,0,1,8.621,5.782A54.153,54.153,0,0,1,98.06,26.976c-3.746,3.264-8.155,5.9-11.29,9.787Q83.386,33.45,80.04,30.1c3.551-2.809,5.86-6.881,8.793-10.292ZM68.115,2.677A60.991,60.991,0,0,1,80.46,3.893c-1.958,2.05-3.342,4.671-5.134,6.846A27.426,27.426,0,0,1,67.7,17.446Q61.319,10.733,55.154,3.8A60.125,60.125,0,0,1,68.115,2.677ZM50.889,4.823,50.708,5c7.175,6.257,14.088,12.775,20.914,19.38,19.587,18.575,39.05,41.786,58.772,60.34A63.381,63.381,0,0,1,126.646,94.8c-7.1-6.362-14.03-12.9-20.861-19.53C84.172,54.66,62.432,29.207,40.674,8.58A62.987,62.987,0,0,1,50.889,4.823ZM25.321,18.61C38.353,32.668,58.388,50.8,72.2,64.1c15.318,14.838,30.351,29.945,44.609,45.816-.23.266-.457.532-.689.794-.693-.707-1.446-1.428-2.137-2.05-.353-.319-.645-.588-.831-.753-.95-.845-1.955-1.632-2.915-2.359-.248-.186-.491-.37-.734-.544a12.875,12.875,0,0,0-2.373-1.418.417.417,0,0,0-.422.062.49.49,0,0,0-.179.5,1.79,1.79,0,0,0,.342.67,40.776,40.776,0,0,0,4.57,4.659l.3.262q1.233,1.064,2.545,2.036l.149.11c.122.09.252.165.374.252q-.957,1.019-1.953,2c-.1-.108-.2-.213-.3-.324-1.129-1.166-2.481-2.412-3.482-3.328-.5-.461-.872-.819-1.033-.973-1.159-1.122-2.442-2.114-3.67-3.108-.314-.255-.627-.507-.943-.753a30.572,30.572,0,0,0-2.922-2.05.5.5,0,0,0-.578.048.522.522,0,0,0-.119.668,6.355,6.355,0,0,0,.606.81,74.567,74.567,0,0,0,6,6.018c.129.117.259.232.388.347q1.587,1.408,3.25,2.729l.188.149c.436.344.9.661,1.338.994-.562.523-1.138,1.031-1.719,1.535-7.67-6.876-15.141-13.952-22.516-21.122-22.8-21.786-45.853-48.644-68.807-70.361a67.82,67.82,0,0,1,6.785-6.805Zm80.251,101.717c-.353-.434-.778-.907-1.244-1.4-1.092-1.148-2.38-2.382-3.4-3.346-.6-.565-1.047-1.01-1.239-1.207-1.18-1.2-2.5-2.256-3.753-3.328q-.434-.372-.868-.732c-1.056-.884-2.086-1.7-3.05-2.38a.551.551,0,0,0-.606-.044.429.429,0,0,0-.211.56,37.273,37.273,0,0,0,5.49,6.218c.406.392.819.783,1.235,1.168,1.249,1.161,2.532,2.293,3.805,3.362.2.17.4.337.6.5.677.565,1.324,1.081,1.942,1.558-.948.663-1.907,1.3-2.887,1.916A12.727,12.727,0,0,0,100.1,121.5c-.822-.936-1.836-1.967-2.754-2.864-.431-.422-.794-.783-1.031-1.019-1-.992-2.073-1.919-3.082-2.8-.234-.2-.466-.4-.7-.6-.95-.808-1.82-1.5-2.518-1.99a.59.59,0,0,0-.477-.119c-.22.067-.353.177-.36.28-.073.962,1.871,3.195,4.127,5.442.337.337.684.67,1.033,1,1.053,1.005,2.139,1.985,3.177,2.876.165.142.328.28.489.415.842.714,1.6,1.317,2.194,1.756-.59.351-1.175.707-1.774,1.04-7.459-6.642-14.71-13.5-21.864-20.443-21.923-20.9-43.978-46.81-66.048-67.59a66.886,66.886,0,0,1,5.368-8.23C28.927,42.672,48.759,60.634,62.471,73.832c15.231,14.753,30.179,29.778,44.366,45.55-.418.321-.84.636-1.265.948ZM8.534,40.82c12.447,13.356,31.2,30.273,44.194,42.754,14.455,13.982,28.628,28.231,42.059,43.211a63.025,63.025,0,0,1-10.021,3.764C73.612,118.42,56.4,103.077,44.555,91.75,30.866,78.56,17.465,65.1,4.933,50.781l-.087.087A63.466,63.466,0,0,1,8.537,40.823Zm42.6,89.941a62.794,62.794,0,0,1-9.656-3.459,44.414,44.414,0,0,0,3.016-3.44c3.982-5.313,8.155-10.578,13.741-14.258q3.677,3.9,7.356,7.735c-2.672,4.239-6.762,7.248-10.863,10.076a17.086,17.086,0,0,0-3.6,3.349Zm4.818-23.592a44.936,44.936,0,0,1-8.552,9.392c-3.365,2.892-7.372,5.173-10.179,8.639a66.681,66.681,0,0,1-8.026-5.15c3.47-3.073,5.949-7.149,8.99-10.638a53.558,53.558,0,0,1,10.728-9.743q3.515,3.753,7.037,7.5Zm-39.782.06a66.611,66.611,0,0,1-5.3-7.955,27.253,27.253,0,0,0,4.4-4.632c4.184-5.582,8.577-11.113,14.6-14.8q3.522,3.518,7.042,7.179A52.845,52.845,0,0,1,26.9,98.131c-3.525,3.071-7.65,5.573-10.735,9.1Zm6.771-34.166c1.428,1.354,2.853,2.779,4.278,4.177-3.691,6-9.211,10.388-14.779,14.563a39.291,39.291,0,0,0-3.725,3.305,63.218,63.218,0,0,1-3.649-9.614c3.165-2.084,4.818-5.7,7.17-8.556a27.307,27.307,0,0,1,7.691-6.743c1,.959,2.017,1.9,3.014,2.867ZM2.656,68.186A60.443,60.443,0,0,1,3.79,55.275c4.625,4.083,9.142,8.272,13.606,12.516-2.642,4.694-6.975,7.93-11.345,10.943-.746.585-1.513,1.148-2.213,1.776A59.886,59.886,0,0,1,2.656,68.186Zm16.383,42.5c3.693-3.112,6.259-7.365,9.422-10.994a52.974,52.974,0,0,1,11.049-9.97q3.47,3.632,6.943,7.326a53.366,53.366,0,0,1-9.819,10.815c-3.613,3.144-7.843,5.7-10.953,9.357a67.851,67.851,0,0,1-6.64-6.534ZM56.276,131.9c1.7-1.951,3-4.3,4.639-6.282a28.589,28.589,0,0,1,6.7-6.165q6.145,6.345,12.32,12.238a59.456,59.456,0,0,1-11.82,1.118,59.143,59.143,0,0,1-11.838-.909Zm58.033-5.6c3.183-1.7,6.431-3.144,10.03-3.234,1.067-.023,3.913-.112,4.937-.126a2.922,2.922,0,1,1,1,5.733l-3.229.117c-2.238.039-4.827.087-6.961,1.086-4.074,2.107-7.592,3.955-12.144,3.948-6.243.023-12.8.037-19.367-.032a67.262,67.262,0,0,0,13.943-6.142c3.872.2,8.258.7,11.795-1.347Z" transform="translate(1050.012 2120.549)"></path>
  </g>
</svg>
