<?xml version="1.0" encoding="UTF-8"?>
<svg xmlns="http://www.w3.org/2000/svg" width="543.728" height="538.404" viewBox="0 0 543.728 538.404">
  <g id="Gruppe_45" data-name="Gruppe 45" transform="translate(-1162.5 -2464.596)">
    <g id="Gruppe_29" data-name="Gruppe 29" transform="translate(9 3.545)">
      <g id="yes" transform="translate(1153.255 2460.501)">
        <path id="Pfad_223" data-name="Pfad 223" d="M262.016,538.953a4.57,4.57,0,0,1-2.431-8.437l53.208-33.574-69.278,39.991a4.57,4.57,0,0,1-4.717-7.825l62.45-39.068-76.682,44.223a4.57,4.57,0,0,1-4.726-7.815l103.7-65.356-119,68.693a4.57,4.57,0,0,1-4.68-7.843l50.969-31.38L190.133,525.6a4.57,4.57,0,0,1-4.662-7.852l2.742-1.664-9.525,5.484a4.571,4.571,0,1,1-4.744-7.815l177.514-112.9L157.793,512.664a4.57,4.57,0,0,1-4.653-7.861l9.561-5.8L147.82,507.6a4.571,4.571,0,1,1-4.7-7.843l137.322-85.009L133.616,499.483a4.57,4.57,0,0,1-4.671-7.852L247.4,418.843,121.486,491.531a4.572,4.572,0,1,1-4.671-7.861l87.751-53.483-93.346,53.867a4.57,4.57,0,0,1-4.689-7.843l147.422-90.8L99.548,474.556a4.57,4.57,0,1,1-4.708-7.834L288.917,345.955,86.641,462.737A4.57,4.57,0,0,1,82,454.867l7.614-4.57-9.689,5.585a4.57,4.57,0,0,1-4.644-7.861l50.567-30.558L72.83,448.085a4.571,4.571,0,1,1-4.7-7.843L262.674,319.675,62.327,435.342a4.57,4.57,0,0,1-4.7-7.834l196.526-121.7L52.674,422.116a4.57,4.57,0,0,1-4.662-7.852L162.08,344.84,46.047,411.823a4.57,4.57,0,0,1-4.653-7.861l63.885-38.62-64.57,37.276a4.57,4.57,0,0,1-4.662-7.852l130.887-79.881L34.7,391.229a4.57,4.57,0,1,1-4.662-7.862l94.251-57.2-94.5,54.561a4.573,4.573,0,0,1-4.644-7.879l1.435-.85-.384.21a4.57,4.57,0,0,1-4.634-7.87l29.845-17.989L22.656,362.984a4.57,4.57,0,0,1-4.689-7.843l169.1-104.2L17.994,348.523a4.57,4.57,0,0,1-4.7-7.834l186.28-115.484L13.78,332.445a4.57,4.57,0,0,1-4.625-7.852l97.322-59.287L11.349,320.214a4.57,4.57,0,0,1-4.689-7.834L181.87,203.606,8.908,303.459a4.57,4.57,0,0,1-4.689-7.843L150.892,205,7.574,287.746a4.57,4.57,0,0,1-4.653-7.861l53.7-32.651-49.36,28.5a4.57,4.57,0,0,1-4.689-7.815l74.707-45.7L7.455,262.545a4.57,4.57,0,1,1-4.662-7.862l17.733-10.758-12.34,7.121A4.57,4.57,0,0,1,3.5,243.24l100.932-62.358L10,235.361a4.57,4.57,0,0,1-4.735-7.806l155.567-98.775L14.1,213.487a4.57,4.57,0,0,1-4.744-7.806l145.42-93.236L20.828,189.776a4.57,4.57,0,0,1-4.735-7.815l91.015-57.587-78.757,45.5a4.57,4.57,0,0,1-4.735-7.815l64.9-41.133L37.72,150.3a4.57,4.57,0,0,1-4.762-7.8l62.87-40.558-44.79,25.841a4.57,4.57,0,0,1-4.881-7.715L115.782,72,77.391,94.145a4.57,4.57,0,0,1-4.9-7.706l33.227-23.163a4.516,4.516,0,0,1-1.143-1.307,4.57,4.57,0,0,1,1.673-6.243l60.292-34.79a4.57,4.57,0,0,1,4.9,7.706l-5.64,3.931,43.492-25.1a4.57,4.57,0,0,1,4.881,7.706L144.566,63.24,251.5,1.5a4.57,4.57,0,0,1,4.762,7.8L193.424,49.84,277.665,1.211A4.573,4.573,0,1,1,282.4,9.035L217.5,50.169l81.737-47.23a4.57,4.57,0,0,1,4.726,7.815L212.985,68.277,320.288,6.33a4.57,4.57,0,0,1,4.753,7.8L179.585,107.363,344.2,12.3a4.57,4.57,0,0,1,4.735,7.806l-155.6,98.867,171.929-99.26a4.57,4.57,0,0,1,4.689,7.843l-100.8,62.276,110.6-63.857a4.57,4.57,0,1,1,4.662,7.862L366.778,44.529,390.051,31.1a4.57,4.57,0,0,1,4.671,7.852L319.767,84.785,401.65,37.518A4.57,4.57,0,0,1,406.3,45.37L352.9,77.847l58.921-34.022a4.573,4.573,0,1,1,4.689,7.852L269.722,142.344,424.777,52.82a4.57,4.57,0,0,1,4.7,7.834L254.182,169.474,438.04,63.332a4.57,4.57,0,0,1,4.662,7.852l-97,59.1,101.682-58.7a4.57,4.57,0,0,1,4.689,7.843L265.782,194.913l193.4-111.636a4.57,4.57,0,0,1,4.68,7.843l-169.2,104.232L469.32,94.52a4.57,4.57,0,0,1,4.643,7.87L444.082,120.4l31.508-18.19a4.57,4.57,0,0,1,4.643,7.87l-1.234.74,2.2-1.261a4.57,4.57,0,1,1,4.662,7.862l-94.3,57.266L487.857,119.1a4.57,4.57,0,0,1,4.671,7.852L361.714,206.732,494.74,129.949a4.57,4.57,0,0,1,4.653,7.861l-64.077,38.7,64.753-37.349a4.57,4.57,0,0,1,4.662,7.852l-114.1,69.47L505.654,150a4.57,4.57,0,0,1,4.689,7.843L313.872,279.556l198.455-114.57a4.57,4.57,0,0,1,4.7,7.834L322.491,293.359,518.1,180.434a4.57,4.57,0,0,1,4.653,7.861l-50.6,30.576,49.159-28.382a4.57,4.57,0,0,1,4.643,7.87l-7.614,4.57,5.594-3.218a4.57,4.57,0,0,1,4.7,7.834L334.566,328.313l193.09-111.472a4.57,4.57,0,0,1,4.68,7.843l-147.578,90.9L530,231.741a4.57,4.57,0,0,1,4.662,7.852l-87.477,53.345,84.1-48.565a4.57,4.57,0,0,1,4.68,7.843L417.345,325.123,532.062,258.9a4.57,4.57,0,0,1,4.7,7.834L399.42,351.787l132.642-76.554a4.57,4.57,0,0,1,4.653,7.861l-9.415,5.7,4.122-2.377a4.571,4.571,0,0,1,4.744,7.815L358.652,407.116l170.018-98.163a4.57,4.57,0,0,1,4.662,7.852l-6.06,3.656a4.57,4.57,0,0,1,3.848,8.227l-50.978,31.435,42.843-24.735a4.57,4.57,0,0,1,4.726,7.815L424.036,408.551,516.778,355a4.572,4.572,0,0,1,4.717,7.834l-62.514,39.15,50.722-29.25a4.57,4.57,0,0,1,4.726,7.815l-53.254,33.62,39.452-22.852a4.57,4.57,0,0,1,4.753,7.8L450.956,434.1l36.563-21.124a4.57,4.57,0,0,1,4.762,7.788L472.1,433.843a4.57,4.57,0,0,1,4.817,7.76l-28.473,19.287a4.57,4.57,0,0,1,1.947,8.519l-98.272,56.737a4.57,4.57,0,0,1-4.854-7.742l19.351-13.09L315.3,534.94a4.57,4.57,0,0,1-4.753-7.8l20.21-13.035-41.133,23.766a4.57,4.57,0,0,1-4.762-7.8l54.5-35.036L264.347,538.35a4.516,4.516,0,0,1-2.331.6Z" transform="translate(2.504 0)" fill="#f1f0ea"></path>
        <g id="Gruppe_25" data-name="Gruppe 25" transform="translate(0.245 3.432)">
          <path id="Pfad_227" data-name="Pfad 227" d="M543.944,266.4C508.57-189.976-166.193-1.795,39,406.651,173.954,637.1,547.774,533.69,543.944,266.4ZM362.838,512.446C-62.92,632.556-115.854-45.981,324.685,11.871,573.67,62.008,602.208,425.691,362.838,512.446Z" transform="translate(-0.245 -0.865)" fill="#262626"></path>
        </g>
      </g>
    </g>
    <path id="Pfad_344" data-name="Pfad 344" d="M-194.75-29.351c.147-3.969-.784-5.047-4.7-5.684l-3.283-.49c-3.969-.637-5.292-.049-7.4,3.381l-1.372,2.254A12.116,12.116,0,0,0-213.517-22c.147,3.381,1.127,4.018,4.165,2.793l1.323-.539,1.715,16.072c.392,3.92,1.421,4.9,5.39,5,4.116.1,5.1-.833,5.243-4.753ZM-160.4-17.738c0-10.78-5.635-19.5-15.043-19.5-9.31,0-15.239,8.379-15.239,18.522C-190.683-7.5-185,1.47-175.738,1.47-164.664,1.47-160.4-8.575-160.4-17.738Zm-15.19,8.477c-4.214,0-5.39-4.067-5.39-7.448,0-5,2.45-8.379,6.664-8.379,2.7,0,4.851,2.156,4.851,6.468C-169.466-14.5-171.034-9.261-175.591-9.261Zm47.922-8.477c0-10.78-5.635-19.5-15.043-19.5-9.31,0-15.239,8.379-15.239,18.522,0,11.221,5.684,20.188,14.945,20.188C-131.932,1.47-127.669-8.575-127.669-17.738Zm-15.19,8.477c-4.214,0-5.39-4.067-5.39-7.448,0-5,2.45-8.379,6.664-8.379,2.7,0,4.851,2.156,4.851,6.468C-136.734-14.5-138.3-9.261-142.859-9.261Zm35.721-17.052c0-6.762-3.528-12.2-9.408-12.2-5.831,0-9.555,5.243-9.555,11.613,0,7.007,3.577,12.642,9.359,12.642C-109.833-14.259-107.138-20.58-107.138-26.313Zm17.15-5.488c1.519-2.548,1.274-3.528-1.225-5.047-2.548-1.568-3.577-1.323-5.047,1.176L-114.292-5.1c-1.519,2.6-1.274,3.626,1.127,5.39,2.45,1.813,3.43,1.617,4.9-.931Zm-26.656,10.829c-2.646,0-3.381-2.548-3.381-4.7,0-3.136,1.519-5.243,4.165-5.243,1.715,0,3.038,1.372,3.038,4.067C-112.822-24.255-113.8-20.972-116.644-20.972ZM-88.175,2.156c6.909,0,9.6-6.321,9.6-12.054,0-6.762-3.528-12.2-9.408-12.2-5.831,0-9.555,5.243-9.555,11.613C-97.534-3.479-93.957,2.156-88.175,2.156Zm.1-6.713c-2.646,0-3.381-2.548-3.381-4.7,0-3.136,1.519-5.243,4.165-5.243,1.715,0,3.038,1.372,3.038,4.067C-84.255-7.84-85.235-4.557-88.077-4.557ZM-37.95-37.289c-11.76,0-18.669,8.869-18.669,19.551A17.944,17.944,0,0,0-38.587.392c10.192,0,19.306-7.1,19.306-18.473C-19.281-28.028-25.945-37.289-37.95-37.289ZM-37.8-8.82c-5.39,0-7.889-4.018-7.889-8.134,0-5.1,3.087-8.575,7.84-8.575,4.7,0,7.2,4.067,7.2,7.889C-30.649-12.446-33.442-8.82-37.8-8.82ZM25.946-29.5c1.372-3.675.784-4.9-2.94-6.125l-1.519-.539c-3.724-1.225-4.949-.588-6.174,3.136L10.07-17.248l-2.3-12.544c-.49-2.548-1.176-2.891-3.871-2.891-2.6,0-3.381.735-4.165,3.234L-3.846-18.424-5.365-33.418c-.392-3.871-1.47-4.753-5.292-4.018l-3.136.588c-3.871.686-4.606,1.764-3.92,5.635l5.1,28.371C-11.931.98-10.853,1.715-7.031.931-3.111.1-1.935-.931-.759-4.7L2.965-16.317,4.876-4.361C5.415-.882,6.346.049,9.776.833c3.528.784,4.606.245,5.831-3.038ZM61.03-31.85c.343-3.871-.588-4.753-4.459-4.606l-2.5.1c-3.92.147-4.851,1.274-4.7,5.194l.539,13.769L42.459-31.507c-1.862-3.577-3.087-4.067-7.056-3.43l-1.813.294c-3.969.637-4.753,1.862-4.655,5.831l.588,23.373c.1,3.969,1.078,5,5,5.39l.784.1c3.822.392,4.8-.539,4.655-4.41l-.686-14.9L51.132-.833C52.357,1.078,53.141,1.421,55.395.98,57.7.49,58.237-.1,58.433-2.352ZM90.135-6.909c-.245-3.92-1.274-4.8-5.194-4.41l-8.33.833-.735-5.292,6.468-.539c3.087-.294,3.773-1.127,3.479-4.214-.294-3.185-1.127-3.871-4.263-3.626l-6.664.49-.49-5,9.31-1.078c3.332-.392,4.116-1.323,3.871-4.7-.294-3.43-1.176-4.165-4.508-3.773L69.017-36.554c-3.92.49-4.753,1.519-4.459,5.488L66.566-5c.294,3.969,1.323,4.9,5.292,4.949L85.628.2c3.92.049,4.753-.931,4.606-4.851Zm7.693,8.232c14.308,0,28.028-7.938,28.028-19.355S114.979-35.28,100.23-35.28c-1.029,0-2.107,0-3.136.049-2.45.1-3.038.735-3.087,3.185L93.713-.882c0,1.617.392,2.058,2.009,2.156C96.408,1.323,97.143,1.323,97.829,1.323ZM103.072-9.9l.735-15.876c.294,0,.588-.049.833-.049,6.272,0,9.457,3.724,9.457,7.546C114.1-14.161,110.422-9.947,103.072-9.9ZM156.727.49c10.878,0,23.814-4.067,23.814-12.544,0-5.194-4.116-7.742-10.045-8.281,3.92-2.646,6.174-5.1,6.174-8.428,0-5.194-6.566-7.889-15.19-7.889a48.165,48.165,0,0,0-8.869.882c-3.724.735-4.7,1.96-4.459,5.733l1.617,26.8c.147,2.6.931,3.381,3.528,3.577C154.375.441,155.551.49,156.727.49Zm1.862-21.9-.637-7.154a7.387,7.387,0,0,1,3.332-.784c2.695,0,4.7,1.127,4.7,3.332C165.988-23.471,162.607-21.511,158.589-21.413ZM160.3-7.546l-.686-6.517a11.31,11.31,0,0,1,4.459-.833c2.646,0,4.557.784,4.557,2.842C168.634-9.31,164.714-7.644,160.3-7.546Zm42.777-7.938,10.045-15.288c2.009-3.087,1.617-4.312-1.862-5.635-3.675-1.421-4.949-.931-6.811,2.4l-5.684,10.094-5.635-10.045c-1.96-3.479-3.283-3.969-7.056-2.695l-4.116,1.421c-3.577,1.225-3.969,2.45-1.666,5.439l10.682,13.965.147,12.838c.049,3.92,1.029,4.7,4.949,4.459l2.254-.147c3.969-.245,4.9-1.372,4.851-5.341ZM-144.281,48.171c-4.165,0-7.742-2.5-7.742-8.134,0-3.871,2.793-7.644,8.967-7.644a8.439,8.439,0,0,1,1.911.2c1.568.392,1.862.2,2.352-1.274l1.274-3.626c.931-2.646.343-3.724-2.45-4.312a21.084,21.084,0,0,0-3.822-.392c-13.083,0-19.5,9.9-19.5,18.914,0,9.751,7.742,17.787,19.012,17.787a27.239,27.239,0,0,0,4.753-.441c3.479-.686,4.214-1.96,3.185-5.292l-1.323-4.165c-.735-2.352-1.225-2.646-3.626-2.009A12.515,12.515,0,0,1-144.281,48.171Zm27.44-26.46c-11.76,0-18.669,8.869-18.669,19.551a17.944,17.944,0,0,0,18.032,18.13c10.192,0,19.306-7.1,19.306-18.473C-98.171,30.972-104.835,21.711-116.84,21.711Zm.147,28.469c-5.39,0-7.889-4.018-7.889-8.134,0-5.1,3.087-8.575,7.84-8.575,4.7,0,7.2,4.067,7.2,7.889C-109.539,46.554-112.332,50.18-116.693,50.18Zm64.778-22.2c-.392-3.969-1.421-4.8-5.39-4.7l-2.5.049c-4.018.1-5.243,1.029-6.811,4.7l-4.851,11.613-4.606-12.593c-1.372-3.773-2.548-4.753-6.566-5l-2.254-.147c-3.969-.245-5.047.539-5.733,4.459l-4.312,25.823c-.686,3.92.1,5,4.018,5.635,5.684.931,6.762.147,7.007-3.773l1.078-16.758,6.125,17.885c.735,2.107,1.372,2.6,3.577,2.695,2.254.147,2.891-.245,3.675-2.3l6.909-18.718L-61.422,54c.294,4.459,1.225,4.949,7.644,5.145,3.871.1,4.8-.882,4.41-4.753Zm49.539,0c-.392-3.969-1.421-4.8-5.39-4.7l-2.5.049c-4.018.1-5.243,1.029-6.811,4.7l-4.851,11.613-4.606-12.593c-1.372-3.773-2.548-4.753-6.566-5l-2.254-.147c-3.969-.245-5.047.539-5.733,4.459L-45.4,52.189c-.686,3.92.1,5,4.018,5.635,5.684.931,6.762.147,7.007-3.773L-33.3,37.293l6.125,17.885c.735,2.107,1.372,2.6,3.577,2.695,2.254.147,2.891-.245,3.675-2.3l6.909-18.718L-11.882,54c.294,4.459,1.225,4.949,7.644,5.145,3.871.1,4.8-.882,4.41-4.753Zm28.518,5.488c0,8.281-1.372,14.112-5.684,14.112-3.822,0-5.488-6.076-5.488-15.141,0-1.47.1-3.234.245-4.9.441-4.067-.2-4.851-4.263-5.292l-1.47-.2c-3.871-.49-5,.539-5.341,4.361-.2,2.156-.343,4.361-.343,6.272,0,15.239,5.047,28.322,15.778,28.322,11.613,0,15.19-14.357,15.19-27.783,0-2.4-.1-4.8-.294-7.056-.343-3.381-1.323-4.263-4.7-3.92-3.626.294-4.312,1.176-3.969,4.7C25.994,28.963,26.142,31.168,26.142,33.471Zm44.59-6.321c.343-3.871-.588-4.753-4.459-4.606l-2.5.1c-3.92.147-4.851,1.274-4.7,5.194l.539,13.769L52.161,27.493c-1.862-3.577-3.087-4.067-7.056-3.43l-1.813.294c-3.969.637-4.753,1.862-4.655,5.831l.588,23.373c.1,3.969,1.078,5,5,5.39l.784.1c3.822.392,4.8-.539,4.655-4.41l-.686-14.9L60.834,58.167c1.225,1.911,2.009,2.254,4.263,1.813,2.3-.49,2.842-1.078,3.038-3.332ZM93.467,54.1c.2-2.793-.441-3.528-3.283-3.675l1.323-19.012c3.92,0,4.851-.931,4.949-4.7.1-3.822-.833-4.7-4.557-4.557l-12.1.49c-3.381.147-4.165,1.029-4.067,4.459v.441c.1,3.136.882,3.871,4.067,3.871l-.735,18.179c-3.332-.2-4.165.539-4.41,3.822l-.049.441c-.294,3.528.539,4.508,4.067,4.851l9.7.98c3.773.392,4.753-.441,5-4.263Zm23.079-20.433,6.272-.441c3.724-.245,4.606-1.176,4.7-4.9.147-3.822-.735-4.753-4.459-5L103.17,22.152c-3.92-.245-4.851.686-4.9,4.606l-.049,3.283c-.049,3.92.98,4.851,4.9,4.557l4.508-.294-.588,21.756c-.1,3.871.882,4.8,4.7,4.312l.931-.1c3.92-.49,4.8-1.519,4.655-5.488Zm36.113,9.849L162.7,28.228c2.009-3.087,1.617-4.312-1.862-5.635-3.675-1.421-4.949-.931-6.811,2.4l-5.684,10.094-5.635-10.045c-1.96-3.479-3.283-3.969-7.056-2.695l-4.116,1.421c-3.577,1.225-3.969,2.45-1.666,5.439l10.682,13.965.147,12.838c.049,3.92,1.029,4.7,4.949,4.459l2.254-.147c3.969-.245,4.9-1.372,4.851-5.341Z" transform="translate(1441.678 2735.978) rotate(47)" fill="#101010"></path>
    <g id="Gruppe_43" data-name="Gruppe 43" transform="translate(1513.177 2346.069) rotate(49)">
      <g id="Gruppe_7" data-name="Gruppe 7" transform="translate(194.34 215.258)">
        <path id="Pfad_57" data-name="Pfad 57" d="M194.475,251.634c0,.014,0,.115.007.178,0,.087.013.171.02.237s.018.115.017.109l.006.025a.262.262,0,0,0,.011.044c0,.01.007.02.01.029a.126.126,0,0,0,.011.021.088.088,0,0,0,.024.027.1.1,0,0,0,.031.016.588.588,0,0,0,.222,0l.219-.047c.146-.037.292-.082.438-.132.163-.065.322-.149.477-.2a1.653,1.653,0,0,1,.464-.055.9.9,0,0,0,.242-.052,1.1,1.1,0,0,0,.239-.147,1.091,1.091,0,0,1,.43-.25c.141-.032.284-.025.429-.049a1.455,1.455,0,0,0,.425-.155,3.425,3.425,0,0,1,.384-.178,3.225,3.225,0,0,0,.367-.187,2.392,2.392,0,0,1,.322-.16c.1-.034.2-.05.293-.076a.913.913,0,0,0,.273-.116,2.34,2.34,0,0,0,.223-.174,1.456,1.456,0,0,0,.312-.378c.007-.012.013-.025.019-.038a.163.163,0,0,0,.03.006s.007,0,.008-.007,0,.035.005-.106c.007-.021.014-.043.02-.064a1.15,1.15,0,0,0,.025-.119c0-.02.008-.05.013-.086,0-.017,0-.033.006-.049v-.021c0-.015,0-.033,0-.049a1.006,1.006,0,0,0,0-.114.464.464,0,0,0,0,.061c0,.02-.005.055-.007.066a.136.136,0,0,1-.005.024c-.007.023-.01.016-.014.013l-.022-.023v0l0,0a.13.13,0,0,0-.084-.025h0l0-.006a.385.385,0,0,0,.1-.115v.018l0-.018a.086.086,0,0,0,.01-.037c0-.152-.124-.247-.351-.286-.024-.035-.05-.07-.078-.1a.937.937,0,0,0-.257-.229.7.7,0,0,0-.307-.078,2.42,2.42,0,0,1-.312-.021,2.381,2.381,0,0,0-.362-.024l-.266.01a3.246,3.246,0,0,0-.421.084l-.262.067-.136.033-.143.021a2.548,2.548,0,0,0-.322.044,1.463,1.463,0,0,0-.356.145l-.362.2a1.929,1.929,0,0,1-.369.165,1.918,1.918,0,0,0-.408.18c-.135.086-.272.179-.411.282a4.5,4.5,0,0,0-.421.347,2.274,2.274,0,0,0-.216.235,1.152,1.152,0,0,0-.113.173.758.758,0,0,0-.032.073.5.5,0,0,0-.021.061,1.063,1.063,0,0,0-.038.183c-.007.05-.014.094-.023.22,0,.04-.01.153-.012.242,0-.21,0,.27,0,.334h0Zm2.495-.7-.115.095a.669.669,0,0,1-.438.176c-.1.007-.215.007-.328.023.276-.086.574-.186.88-.293m-1.3.419c-.072.025-.143.05-.214.067l-.1.016c.1-.024.2-.051.313-.083" transform="translate(-194.376 -223.937)"></path>
        <path id="Pfad_58" data-name="Pfad 58" d="M194.349,235.617a.239.239,0,0,1,.013-.041.035.035,0,0,1,.022-.018l0,0,.077-.022.013-.006a.466.466,0,0,0-.1.2v0a.38.38,0,0,0-.005.039c-.005.075.115.126.322.157.023.035.047.069.071.1a1.073,1.073,0,0,0,.234.239.752.752,0,0,0,.278.11,1.553,1.553,0,0,1,.282.067,3.186,3.186,0,0,0,.329.09l.241.043a3.346,3.346,0,0,0,.382.017h.237l.123,0,.129.019a2.771,2.771,0,0,0,.292.052,1.055,1.055,0,0,0,.324-.033l.328-.082a1.08,1.08,0,0,1,.336-.029,1.448,1.448,0,0,0,.37-.019l.373-.1a3.812,3.812,0,0,0,.384-.126,1.4,1.4,0,0,0,.2-.091.474.474,0,0,0,.1-.075.218.218,0,0,0,.03-.037.239.239,0,0,0,.029-.062.753.753,0,0,0,.027-.124c0-.009,0-.017.007-.054s.008-.064.011-.1.007-.074.009-.112l.006-.1v-.016c0-.03,0-.063,0-.1,0-.066,0-.137,0-.2s0-.1,0-.148,0-.086,0-.127,0-.062-.005-.092c0-.059-.009-.114-.012-.14s-.008-.071-.01-.088c-.005-.039-.011-.075-.015-.092s-.007-.038-.01-.052-.01-.041-.015-.054-.016-.043-.021-.056a.378.378,0,0,0-.032-.058.477.477,0,0,0-.106-.115.679.679,0,0,0-.1-.066,1.256,1.256,0,0,0-.2-.086,2.2,2.2,0,0,0-.4-.084l-.434,0a1.792,1.792,0,0,1-.421-.118.636.636,0,0,0-.22-.033.648.648,0,0,0-.218.069.706.706,0,0,1-.391.118c-.128-.01-.257-.056-.39-.071a.978.978,0,0,0-.386.05,3.21,3.21,0,0,1-.35.093,1.732,1.732,0,0,0-.334.116,1.917,1.917,0,0,1-.293.107l-.266.04a.665.665,0,0,0-.25.1,1.525,1.525,0,0,0-.2.171,1.286,1.286,0,0,0-.285.42c0,.01-.007.019-.01.029a.07.07,0,0,0-.031.01.022.022,0,0,0-.011.01l0,.008v.072c0,.019,0,.037,0,.055s-.013.052-.018.079c-.01.05-.018.1-.025.172,0,.033-.007.078-.01.118s0,.08,0,.088,0,0,.008-.027m4.575-.936.1.033q-.13-.033-.279-.058a1.2,1.2,0,0,1,.179.024m-1.271-.143a.493.493,0,0,1,.2-.063.652.652,0,0,1,.2.035c.095.03.2.072.3.1a6.553,6.553,0,0,0-.8-.013c.035-.021.071-.041.1-.058" transform="translate(-194.34 -220.093)"></path>
        <path id="Pfad_59" data-name="Pfad 59" d="M195.519,222.831c.006.062.013.12.021.165a.819.819,0,0,0,.017.086c0,.013.007.024.01.033a.212.212,0,0,0,.028.061.268.268,0,0,0,.031.035.723.723,0,0,0,.21.115l.205.064c.137.038.274.067.412.09.154.018.3.015.449.042a1.867,1.867,0,0,1,.435.178.788.788,0,0,0,.228.072.678.678,0,0,0,.226-.027.642.642,0,0,1,.405-.033c.133.04.267.118.4.166a1.092,1.092,0,0,0,.4.058,2.32,2.32,0,0,1,.362.016,2.064,2.064,0,0,0,.346,0,1.472,1.472,0,0,1,.3,0c.094.015.186.048.276.07a.652.652,0,0,0,.259.021,1.149,1.149,0,0,0,.21-.065.655.655,0,0,0,.3-.224c.01-.014.019-.029.027-.044a.234.234,0,0,0,.019.014h0v0h0v-.065a.55.55,0,0,0,.025-.067.772.772,0,0,0,.024-.106c0-.024.007-.041.013-.078l0-.025c0-.016,0-.029,0-.041a.32.32,0,0,0,0-.047c0-.006,0,0,0,.007s-.007.032-.009.029-.009,0-.013,0l-.023-.037v0a.2.2,0,0,0-.069-.059l0-.012,0-.007a.178.178,0,0,0,.086-.056v0a.061.061,0,0,0,.013-.033c.016-.16-.1-.329-.322-.491-.023-.048-.047-.1-.072-.144a1.927,1.927,0,0,0-.24-.361,1.193,1.193,0,0,0-.288-.234c-.1-.06-.2-.108-.293-.178a3.6,3.6,0,0,0-.339-.207l-.25-.12a2.956,2.956,0,0,0-.4-.129l-.246-.064-.128-.033-.135-.05a2.69,2.69,0,0,0-.3-.118,1.032,1.032,0,0,0-.336-.032l-.341.027a1.363,1.363,0,0,1-.348-.018,1.319,1.319,0,0,0-.384-.019,3.622,3.622,0,0,0-.388.08,2.154,2.154,0,0,0-.4.143.992.992,0,0,0-.2.131.539.539,0,0,0-.108.118.392.392,0,0,0-.031.055.435.435,0,0,0-.019.043.8.8,0,0,0-.027.1,1.617,1.617,0,0,0-.03.192l0,.022c.012-.163-.015.2-.016.225h0l-.005.132c0,.131,0,.293,0,.426.007.158.013.206.014.221m2.331.192-.109.037a.471.471,0,0,1-.2.025.8.8,0,0,1-.21-.069c-.1-.045-.2-.1-.308-.143.259.053.54.1.829.15m-1.225-.237c-.067-.012-.135-.023-.2-.041l-.092-.035c.092.026.19.051.293.075" transform="translate(-194.643 -216.739)"></path>
        <path id="Pfad_60" data-name="Pfad 60" d="M337.653,248.251c0-.088-.009-.2-.012-.242-.01-.125-.016-.169-.023-.219a1.215,1.215,0,0,0-.038-.183.422.422,0,0,0-.021-.061.763.763,0,0,0-.033-.074,1.154,1.154,0,0,0-.112-.173,2.329,2.329,0,0,0-.216-.234,4.4,4.4,0,0,0-.421-.348c-.14-.1-.276-.2-.411-.282a1.877,1.877,0,0,0-.409-.181,1.945,1.945,0,0,1-.369-.164l-.361-.2a1.417,1.417,0,0,0-.356-.145,2.685,2.685,0,0,0-.321-.044l-.142-.02-.138-.034-.261-.067a3.065,3.065,0,0,0-.422-.082l-.265-.012a2.473,2.473,0,0,0-.362.024,2.291,2.291,0,0,1-.312.021.7.7,0,0,0-.307.079.946.946,0,0,0-.258.228c-.027.034-.053.07-.078.1-.228.039-.355.135-.352.286a.088.088,0,0,0,.01.038l0,.018v-.018a.391.391,0,0,0,.1.113l0,.007h0a.126.126,0,0,0-.084.024l0,0-.023.023s-.007.009-.013-.013a.246.246,0,0,1-.006-.024c0-.01-.005-.045-.006-.066a.372.372,0,0,0-.006-.06c0,.006,0,.046,0,.113,0,.016,0,.035,0,.049l0,.021c0,.016,0,.033.005.049.005.038.009.067.013.086.007.045.015.081.024.118a.6.6,0,0,0,.021.064c.005.14,0,.093.005.106a.007.007,0,0,0,.008.006.077.077,0,0,0,.03-.006c.006.013.013.026.019.038a1.4,1.4,0,0,0,.312.378,2.312,2.312,0,0,0,.223.176.918.918,0,0,0,.275.116c.095.026.193.041.292.076a2.384,2.384,0,0,1,.322.159,3.013,3.013,0,0,0,.368.188,3.746,3.746,0,0,1,.384.177,1.468,1.468,0,0,0,.424.156c.146.023.288.018.429.049a1.086,1.086,0,0,1,.429.249,1.141,1.141,0,0,0,.24.149.882.882,0,0,0,.242.05,1.7,1.7,0,0,1,.463.055c.155.051.313.135.476.2.147.049.293.1.439.132l.218.047a.607.607,0,0,0,.222,0,.114.114,0,0,0,.031-.016.082.082,0,0,0,.024-.026.144.144,0,0,0,.012-.021l.01-.029c0-.01.007-.027.011-.044l.006-.026c0,.006.007-.035.016-.108s.016-.151.021-.238c0-.064.007-.164.007-.178v0h0c0-.065,0-.545,0-.335m-5.975-1.8v.022a.212.212,0,0,1,0-.022m4.034,1.707a.848.848,0,0,1-.223-.044.809.809,0,0,1-.214-.133l-.115-.095c.307.108.6.207.881.294-.113-.016-.224-.016-.328-.023m.963.216c-.071-.018-.141-.043-.214-.068.11.032.215.058.313.084Z" transform="translate(-230.151 -223.142)"></path>
        <path id="Pfad_61" data-name="Pfad 61" d="M331.694,246.719v0" transform="translate(-230.17 -223.465)"></path>
        <path id="Pfad_62" data-name="Pfad 62" d="M337.969,232.392c-.007-.07-.016-.123-.024-.171-.006-.027-.013-.055-.018-.08s0-.035,0-.055v-.072l0-.007a.032.032,0,0,0-.011-.011.057.057,0,0,0-.031-.009l-.01-.029a1.29,1.29,0,0,0-.285-.42,1.547,1.547,0,0,0-.2-.171.661.661,0,0,0-.249-.095l-.267-.04a2.086,2.086,0,0,1-.292-.107,1.8,1.8,0,0,0-.334-.117,2.828,2.828,0,0,1-.35-.092.954.954,0,0,0-.386-.05c-.132.015-.262.061-.39.071a.693.693,0,0,1-.39-.119.5.5,0,0,0-.439-.035,1.776,1.776,0,0,1-.421.118l-.434,0a2.112,2.112,0,0,0-.4.085,1.225,1.225,0,0,0-.2.085.712.712,0,0,0-.1.067.521.521,0,0,0-.106.114.446.446,0,0,0-.031.058.551.551,0,0,0-.021.055c0,.014-.009.029-.015.055a.355.355,0,0,0-.011.05c0,.017-.009.053-.015.092,0,.017-.007.057-.01.087s-.007.081-.011.14c0,.032,0,.055-.006.093l0,.126c0,.05,0,.072,0,.149s0,.137,0,.2c0,.033,0,.066,0,.1v.016l.006.106c0,.038.005.076.008.112s.007.069.011.1.007.047.008.055a.648.648,0,0,0,.027.123.221.221,0,0,0,.028.063.256.256,0,0,0,.03.036.485.485,0,0,0,.1.075,1.7,1.7,0,0,0,.194.091c.129.051.257.091.384.127l.373.1a1.385,1.385,0,0,0,.371.018,1.1,1.1,0,0,1,.335.029l.329.083a1.047,1.047,0,0,0,.323.033,2.788,2.788,0,0,0,.291-.051l.129-.02.124,0h.237a3.353,3.353,0,0,0,.383-.017l.24-.044a2.79,2.79,0,0,0,.328-.09,1.811,1.811,0,0,1,.283-.067.723.723,0,0,0,.278-.11,1.053,1.053,0,0,0,.234-.239c.026-.036.049-.07.071-.1.207-.032.327-.084.322-.157a.338.338,0,0,0-.005-.038c0-.009,0-.019,0-.032l0,.03a.462.462,0,0,0-.1-.2l.013.005.077.023h0a.036.036,0,0,1,.023.018.229.229,0,0,1,.012.041c0,.022.007.035.008.026a.66.66,0,0,0,0-.087c0-.039-.007-.085-.01-.118m-4.672-.724.1-.033a1.122,1.122,0,0,1,.178-.024c-.1.016-.193.035-.279.058m.677-.106c.1-.027.2-.069.3-.1a.625.625,0,0,1,.2-.035.471.471,0,0,1,.194.063c.034.017.069.037.1.057a6.874,6.874,0,0,0-.8.013" transform="translate(-230.378 -219.299)"></path>
        <path id="Pfad_63" data-name="Pfad 63" d="M331.708,220.995a.661.661,0,0,0,.258-.019c.089-.023.182-.055.276-.072a1.581,1.581,0,0,1,.3,0,1.806,1.806,0,0,0,.347,0,2.5,2.5,0,0,1,.361-.015,1.087,1.087,0,0,0,.4-.058c.137-.048.271-.126.4-.166a.646.646,0,0,1,.405.033.643.643,0,0,0,.226.028.832.832,0,0,0,.228-.072,1.866,1.866,0,0,1,.436-.178c.146-.027.3-.024.449-.041.138-.024.276-.053.412-.091l.206-.066a.666.666,0,0,0,.209-.112.276.276,0,0,0,.032-.035.271.271,0,0,0,.029-.061c0-.009.006-.02.009-.032s.012-.052.017-.087.015-.1.021-.166c0-.013.007-.062.014-.22.006-.132.007-.3,0-.427,0-.1,0-.126,0-.13h0c0-.016-.028-.391-.017-.225v-.024a1.765,1.765,0,0,0-.031-.191.585.585,0,0,0-.028-.1.334.334,0,0,0-.018-.044.36.36,0,0,0-.031-.055.583.583,0,0,0-.107-.119.987.987,0,0,0-.2-.129,2.155,2.155,0,0,0-.4-.143,3.619,3.619,0,0,0-.388-.079,1.275,1.275,0,0,0-.385.019,1.387,1.387,0,0,1-.347.017l-.341-.025a1,1,0,0,0-.336.032,2.711,2.711,0,0,0-.3.116l-.133.051-.129.033-.247.064a2.9,2.9,0,0,0-.4.128l-.25.12a3.587,3.587,0,0,0-.34.207c-.1.07-.194.119-.293.178a1.179,1.179,0,0,0-.288.234,1.957,1.957,0,0,0-.24.36c-.026.049-.05.1-.072.145-.22.162-.338.33-.322.491a.075.075,0,0,0,.012.033v0a.191.191,0,0,0,.086.056l0,.007,0,.012a.218.218,0,0,0-.069.058h0l-.024.037s-.007.011-.012,0a.1.1,0,0,1-.009-.029c0-.01,0-.013,0-.006s0,.022,0,.047,0,.026,0,.04l0,.027c.006.035.008.055.012.077a.73.73,0,0,0,.025.106.487.487,0,0,0,.024.067v.007l0,.048v.009h0v0h0a.076.076,0,0,0,.019-.014l.027.044a.67.67,0,0,0,.3.224,1.211,1.211,0,0,0,.211.064m5.039-1.988h0v0Zm-.825.659-.092.034a1.873,1.873,0,0,1-.2.041c.1-.024.2-.05.294-.075m-.69.162c-.106.041-.21.1-.308.142a.758.758,0,0,1-.209.07.488.488,0,0,1-.2-.024l-.108-.038c.288-.044.568-.1.829-.15" transform="translate(-230.008 -215.945)"></path>
        <path id="Pfad_64" data-name="Pfad 64" d="M208.909,242.625c.525.078.928.153,1.13.613.041.038.081.038.2.076.2.153.4.115.646-.23a2.912,2.912,0,0,0,.282-.842c.484-2.832,3.673-6.735,4.964-9.375a11.734,11.734,0,0,0,1.373-1.875c3.31-4.9.808.5-.081,4.746a2.322,2.322,0,0,1-.646,1.645,20.017,20.017,0,0,0-1.211,1.76c-.282.46-.242.421.041.613a3.412,3.412,0,0,0,1.251.421,3.351,3.351,0,0,0,2.1-.115,1.417,1.417,0,0,0,1.09-.8c.041.038.081.038.081.077a9.347,9.347,0,0,0,.565-.765h.081c-.121.153-.081.306-.081.535a6.277,6.277,0,0,0,1.373-1.339c.767-1.186,3.39-4.706,3.834-5.893a1.217,1.217,0,0,1,.364-.459.286.286,0,0,1,.2-.229,1.751,1.751,0,0,0,.928-.995,1.191,1.191,0,0,0,.121-.345.183.183,0,0,1,.121-.038c0,.038.041.077.081.115,2.744-3.635,2.583-3.215,1.977.153h.122c.242-.574.484-1.148.766-1.722l.041.038v.191a1.706,1.706,0,0,0-.363,1.262c-.041.077,0,.23-.121.345-.323.382.04.765-.364,1.148a.113.113,0,0,0,0,.153,7.782,7.782,0,0,1-.4,2.066,5.062,5.062,0,0,1-.242.842c-.04,0-.04,0-.161.077,0-.191.081-.383.081-.536-.242.536-.363,1.072-.525,1.531a9.17,9.17,0,0,1-.282.995,28.787,28.787,0,0,1-.767,3.9.686.686,0,0,0,.444,1.072c.161.037.283.075.323.153.121.191.323.191.605.153a3.928,3.928,0,0,1,.485-.077c.524-.038.564-.076.807-.613.161-.152.363-.267.443-.421a1.27,1.27,0,0,0,.444-.766c-.2-.382.04-.765,0-1.071-.121-.5.364-1.033.162-1.416-.041-.038,0-.076-.041-.115a13.169,13.169,0,0,0,.646-2.3c.081-.344.12-.613-.162-.613-.2-.5.484-.957.605-1.492-.161.076-.161.115-.2.115.081-.306.162-.613.282-.957a1.3,1.3,0,0,1,.041-.229,1.365,1.365,0,0,0,.282-1.3c-.081-.115,0-.268.041-.384.121-.268.525-.534.242-.765-.039-.076,0-.115,0-.152a2.488,2.488,0,0,0,.526-1.492c.12-.575.161-1.148.242-1.646.041-.5.121-1.071.2-1.608a12.361,12.361,0,0,1,1.211-3.176,1.594,1.594,0,0,1,.121-.306c0-.5,0-1.033-.565-1.147-.041,0-.081-.038-.162-.077a2.652,2.652,0,0,0-.686-.8,2.086,2.086,0,0,0-1.089-.421c-.4-.078-.808.344-1.252.611a14.6,14.6,0,0,0-3.229,2.985c-.565.8-1.251,1.492-1.817,2.257a3.062,3.062,0,0,0-.807,1.109c-1.614,2.028-3.633,4.324-1.7-.306.162-.344.2-.727.4-1.148.4-.88.162-.115.2-.995,0-.076-.041-.153.041-.191a1,1,0,0,0,.2-.842c-.041-.077.041-.344.041-.5-.121-.268-.444-.344-.929-.268a1.7,1.7,0,0,1-1.17-.153,1.185,1.185,0,0,0-.808-.153,3.763,3.763,0,0,0-2.139,1.453c-.2.269-.4.537-.605.766-.363.5-.847.956-1.211,1.455-.484.688-3.955,5.548-3.027,1.3a15.755,15.755,0,0,0,.565-2.3c-.04-.23,0-.46-.12-.613-.2-.191-.484-.344-.686-.535-.2-.078-.364.038-.485.305a7.288,7.288,0,0,0-.323.843c-.161.306-.2.612-.323.88a8.579,8.579,0,0,0-.727,2.679,4.273,4.273,0,0,1-.161.766c-.364,1.187-.646,2.372-.968,3.559q-.243.918-.485,1.837c-.161.574-1.171,2.832-1.291,3.405a10.528,10.528,0,0,0-.323,1.455,13.608,13.608,0,0,1-1.413,3.788c-.041.077-.081.268-.041.306a2.329,2.329,0,0,0,.767.344" transform="translate(-197.936 -216.106)"></path>
        <path id="Pfad_65" data-name="Pfad 65" d="M244.2,239.507a2.959,2.959,0,0,1,.323.612,4.966,4.966,0,0,0,2.463,1.8,6.48,6.48,0,0,0,2.583.267.835.835,0,0,1,.605-.038c.2.115.445-.115.646-.076.525-.077,1.009-.077,1.534-.153a12.128,12.128,0,0,0,1.534-.192,7.564,7.564,0,0,0,1.292-.191,11.3,11.3,0,0,0,2.341-.995,4.092,4.092,0,0,0,1.211-.956,1.267,1.267,0,0,1,.525-.23,3.1,3.1,0,0,0-.645-1.3c-.163-.306-.242-.306-.565-.076a6.3,6.3,0,0,1-2.018.688c-.767.077-1.615.153-2.422.23-1.13.191-2.341.268-3.472.421a15.028,15.028,0,0,1-2.622-.076,2.538,2.538,0,0,1-1.252-.5,1.989,1.989,0,0,1-.282-1.646c.928-2.716,6.579-6.315,8.759-7.27a2.8,2.8,0,0,0,.888-.613,2.737,2.737,0,0,1,.969-.8v-.076a.594.594,0,0,0-.445-.5,3.492,3.492,0,0,0-1.534-.038,11.886,11.886,0,0,1-2.866-.039c-6.3-.344,4.723-3.673,5.207-2.678a6.8,6.8,0,0,1,1.492.153,2.2,2.2,0,0,0,2.06-.727,1.362,1.362,0,0,0,.444-1.263,6.039,6.039,0,0,1-.2-.69c-.121-.5-.242-.918-.364-1.453a1.718,1.718,0,0,0-.806-1.225,5.828,5.828,0,0,0-1.413-.344,14.914,14.914,0,0,0-5.651.574,8.941,8.941,0,0,0-3.189,1.76,4.233,4.233,0,0,0-1.453,2.373,3.75,3.75,0,0,0,.686,3.061,3.936,3.936,0,0,0,.928.881c2.422.765-2.18,2.526-3.229,3.405a7.3,7.3,0,0,0-2.421,3.406,4.957,4.957,0,0,0,.363,4.515" transform="translate(-207.154 -216.356)"></path>
        <path id="Pfad_66" data-name="Pfad 66" d="M267.643,234.77a8.7,8.7,0,0,0,.766,3.827,7.315,7.315,0,0,0,2.988,3.291,3.788,3.788,0,0,0,1.857.612,6.546,6.546,0,0,1,.847.115,1.524,1.524,0,0,0,1.211-.115,5.219,5.219,0,0,0,.727-.23,5.552,5.552,0,0,0,2.623-1.415c.767-.69,1.373-1.34,2.059-1.991.121-.192.364-.421.4-.612a8.373,8.373,0,0,0,1.291-2.334,12.352,12.352,0,0,0,.728-1.914,16.329,16.329,0,0,0,.767-3.062c.04-.841.363-1.722.484-2.6,0-.421.04-.842.04-1.262.081-.115.041-.345.121-.459a6.558,6.558,0,0,0,.687-2.334,8.126,8.126,0,0,0-.323-2.986,7.226,7.226,0,0,0-1.13-2.563A18.673,18.673,0,0,0,282.3,217.2a2.324,2.324,0,0,0-1.453-.5,6.865,6.865,0,0,0-3.955,1.148c-.444.344-.848.612-1.292.918a.456.456,0,0,1-.605.191,1.688,1.688,0,0,0-1.413.421,8.09,8.09,0,0,0-1.413,1.951q-.483.86-.968,1.836a5.588,5.588,0,0,0-.607,1.187q-1.028,2.525-2.059,5.051a11.082,11.082,0,0,0-.928,5.013c.041.116,0,.23.041.345" transform="translate(-213.442 -215.636)"></path>
        <path id="Pfad_67" data-name="Pfad 67" d="M296.87,240.935a8.325,8.325,0,0,0,2.906-1.339c.242-.154.443-.383.727-.575,3.188-3.75,2.866-2.87,3.028.689a1.71,1.71,0,0,0,.4.688,4.406,4.406,0,0,0,1.695,1.034,2.335,2.335,0,0,0,1.05.114,1.2,1.2,0,0,1,.364-.038,2.2,2.2,0,0,0,1.937-.918c.807-.918,1.614-1.875,2.3-2.793.605-.8,1.09-1.608,1.615-2.411.242-.421.484-.8.767-1.224a3.593,3.593,0,0,0,.242-.574,1.969,1.969,0,0,1,.6-.88,1.249,1.249,0,0,0,.486-.766c.081-.306.081-.689.564-.918a.424.424,0,0,0,.121-.23,10.286,10.286,0,0,0,.848-2.525c0-.077.121-.154.2-.268.081.268.121.459.2.727a8.413,8.413,0,0,1,.6-1.607,1.813,1.813,0,0,1,.121-.268c.081-.421.283-.841.4-1.263a3.844,3.844,0,0,0,.081-.957,3.286,3.286,0,0,0,.041-.65,2.384,2.384,0,0,0-.041-.765c0-.191-.161-.307.041-.574.04-.077,0-.153-.041-.23-.081-.115-.04-.229,0-.382.081-.153.041-.306.12-.459.081-.306-.16-.5-.12-.766a.933.933,0,0,0-.242-.65.4.4,0,0,1-.121-.421.58.58,0,0,0-.2-.765c-.282-.153-.323-.382-.4-.65-.04-.115-.04-.268-.161-.307a1.684,1.684,0,0,1-.605-.574,2.085,2.085,0,0,1-.364-.65.516.516,0,0,0-.323-.459,2.2,2.2,0,0,1-.282-.115,2.006,2.006,0,0,0-1.009-.46c-.525-.191-1.05-.305-1.574-.5a4.551,4.551,0,0,0-.525.192,3.557,3.557,0,0,0-.2.382.538.538,0,0,0-.04.344,6.133,6.133,0,0,0,.322.765.5.5,0,0,0,.646.383.562.562,0,0,1,.605.229,1.717,1.717,0,0,1,.121.651c.041.612.041,1.262.081,1.951a25.6,25.6,0,0,1-.4,4.209,20.891,20.891,0,0,1-1.009,3.6c-.283.842-.687,1.761-1.05,2.64-.242.537-.484,1-.727,1.531-1.452,3.214-6.1,10.562-4.157,2.755a18.735,18.735,0,0,1,.928-3.33,26.321,26.321,0,0,0,1.009-2.831,3.493,3.493,0,0,1,.484-1.072,7.2,7.2,0,0,0,.645-1.684c.041-.077.081-.191,0-.23-.161-.076-.041-.229-.041-.421.041-.153.122-.421,0-.536a.716.716,0,0,1-.242-.613c0-.42-.363-.5-.727-.574a7.53,7.53,0,0,0-1.009-.268,3.06,3.06,0,0,0-1.331-.077,1.431,1.431,0,0,0-.767.383,4,4,0,0,0-.727,1.339,13.606,13.606,0,0,1-1.05,2.679c-.443,1.072-1.009,2.1-1.573,3.176-.2.421-.486.843-.687,1.3a1.073,1.073,0,0,1-.282.306,1.381,1.381,0,0,0-.526.535c-2.3,4.325-3.955,4.822-3.067-.688a7.245,7.245,0,0,0,.041-.919c.04-.5.04-.995.12-1.454.162-.919.283-1.837.485-2.717.2-1.033.4-2.067.646-3.1a3.266,3.266,0,0,0-.041-1.875.745.745,0,0,1-.121-.421c-.041-.306-.242-.459-.6-.421a6.522,6.522,0,0,0-1.211.152.4.4,0,0,0-.041.192,9.394,9.394,0,0,1-.323,2.525,29,29,0,0,1-.727,3.138c-.726,1.989-1.251,3.98-1.856,5.969-.283,1.071-.687,2.181-1.01,3.329a7.683,7.683,0,0,0-.121,3.444.866.866,0,0,0,.4.574,1.977,1.977,0,0,0,1.372.307c.687-.038,1.332-.038,1.978-.077Z" transform="translate(-219.986 -215.258)"></path>
      </g>
    </g>
    <g id="Gruppe_44" data-name="Gruppe 44" transform="translate(1361.177 2454.905) rotate(49)">
      <g id="Gruppe_7-2" data-name="Gruppe 7" transform="translate(194.34 215.258)">
        <path id="Pfad_57-2" data-name="Pfad 57" d="M194.475,251.634c0,.014,0,.115.007.178,0,.087.013.171.02.237s.018.115.017.109l.006.025a.262.262,0,0,0,.011.044c0,.01.007.02.01.029a.126.126,0,0,0,.011.021.088.088,0,0,0,.024.027.1.1,0,0,0,.031.016.588.588,0,0,0,.222,0l.219-.047c.146-.037.292-.082.438-.132.163-.065.322-.149.477-.2a1.653,1.653,0,0,1,.464-.055.9.9,0,0,0,.242-.052,1.1,1.1,0,0,0,.239-.147,1.091,1.091,0,0,1,.43-.25c.141-.032.284-.025.429-.049a1.455,1.455,0,0,0,.425-.155,3.425,3.425,0,0,1,.384-.178,3.225,3.225,0,0,0,.367-.187,2.392,2.392,0,0,1,.322-.16c.1-.034.2-.05.293-.076a.913.913,0,0,0,.273-.116,2.34,2.34,0,0,0,.223-.174,1.456,1.456,0,0,0,.312-.378c.007-.012.013-.025.019-.038a.163.163,0,0,0,.03.006s.007,0,.008-.007,0,.035.005-.106c.007-.021.014-.043.02-.064a1.15,1.15,0,0,0,.025-.119c0-.02.008-.05.013-.086,0-.017,0-.033.006-.049v-.021c0-.015,0-.033,0-.049a1.006,1.006,0,0,0,0-.114.464.464,0,0,0,0,.061c0,.02-.005.055-.007.066a.136.136,0,0,1-.005.024c-.007.023-.01.016-.014.013l-.022-.023v0l0,0a.13.13,0,0,0-.084-.025h0l0-.006a.385.385,0,0,0,.1-.115v.018l0-.018a.086.086,0,0,0,.01-.037c0-.152-.124-.247-.351-.286-.024-.035-.05-.07-.078-.1a.937.937,0,0,0-.257-.229.7.7,0,0,0-.307-.078,2.42,2.42,0,0,1-.312-.021,2.381,2.381,0,0,0-.362-.024l-.266.01a3.246,3.246,0,0,0-.421.084l-.262.067-.136.033-.143.021a2.548,2.548,0,0,0-.322.044,1.463,1.463,0,0,0-.356.145l-.362.2a1.929,1.929,0,0,1-.369.165,1.918,1.918,0,0,0-.408.18c-.135.086-.272.179-.411.282a4.5,4.5,0,0,0-.421.347,2.274,2.274,0,0,0-.216.235,1.152,1.152,0,0,0-.113.173.758.758,0,0,0-.032.073.5.5,0,0,0-.021.061,1.063,1.063,0,0,0-.038.183c-.007.05-.014.094-.023.22,0,.04-.01.153-.012.242,0-.21,0,.27,0,.334h0Zm2.495-.7-.115.095a.669.669,0,0,1-.438.176c-.1.007-.215.007-.328.023.276-.086.574-.186.88-.293m-1.3.419c-.072.025-.143.05-.214.067l-.1.016c.1-.024.2-.051.313-.083" transform="translate(-194.376 -223.937)"></path>
        <path id="Pfad_58-2" data-name="Pfad 58" d="M194.349,235.617a.239.239,0,0,1,.013-.041.035.035,0,0,1,.022-.018l0,0,.077-.022.013-.006a.466.466,0,0,0-.1.2v0a.38.38,0,0,0-.005.039c-.005.075.115.126.322.157.023.035.047.069.071.1a1.073,1.073,0,0,0,.234.239.752.752,0,0,0,.278.11,1.553,1.553,0,0,1,.282.067,3.186,3.186,0,0,0,.329.09l.241.043a3.346,3.346,0,0,0,.382.017h.237l.123,0,.129.019a2.771,2.771,0,0,0,.292.052,1.055,1.055,0,0,0,.324-.033l.328-.082a1.08,1.08,0,0,1,.336-.029,1.448,1.448,0,0,0,.37-.019l.373-.1a3.812,3.812,0,0,0,.384-.126,1.4,1.4,0,0,0,.2-.091.474.474,0,0,0,.1-.075.218.218,0,0,0,.03-.037.239.239,0,0,0,.029-.062.753.753,0,0,0,.027-.124c0-.009,0-.017.007-.054s.008-.064.011-.1.007-.074.009-.112l.006-.1v-.016c0-.03,0-.063,0-.1,0-.066,0-.137,0-.2s0-.1,0-.148,0-.086,0-.127,0-.062-.005-.092c0-.059-.009-.114-.012-.14s-.008-.071-.01-.088c-.005-.039-.011-.075-.015-.092s-.007-.038-.01-.052-.01-.041-.015-.054-.016-.043-.021-.056a.378.378,0,0,0-.032-.058.477.477,0,0,0-.106-.115.679.679,0,0,0-.1-.066,1.256,1.256,0,0,0-.2-.086,2.2,2.2,0,0,0-.4-.084l-.434,0a1.792,1.792,0,0,1-.421-.118.636.636,0,0,0-.22-.033.648.648,0,0,0-.218.069.706.706,0,0,1-.391.118c-.128-.01-.257-.056-.39-.071a.978.978,0,0,0-.386.05,3.21,3.21,0,0,1-.35.093,1.732,1.732,0,0,0-.334.116,1.917,1.917,0,0,1-.293.107l-.266.04a.665.665,0,0,0-.25.1,1.525,1.525,0,0,0-.2.171,1.286,1.286,0,0,0-.285.42c0,.01-.007.019-.01.029a.07.07,0,0,0-.031.01.022.022,0,0,0-.011.01l0,.008v.072c0,.019,0,.037,0,.055s-.013.052-.018.079c-.01.05-.018.1-.025.172,0,.033-.007.078-.01.118s0,.08,0,.088,0,0,.008-.027m4.575-.936.1.033q-.13-.033-.279-.058a1.2,1.2,0,0,1,.179.024m-1.271-.143a.493.493,0,0,1,.2-.063.652.652,0,0,1,.2.035c.095.03.2.072.3.1a6.553,6.553,0,0,0-.8-.013c.035-.021.071-.041.1-.058" transform="translate(-194.34 -220.093)"></path>
        <path id="Pfad_59-2" data-name="Pfad 59" d="M195.519,222.831c.006.062.013.12.021.165a.819.819,0,0,0,.017.086c0,.013.007.024.01.033a.212.212,0,0,0,.028.061.268.268,0,0,0,.031.035.723.723,0,0,0,.21.115l.205.064c.137.038.274.067.412.09.154.018.3.015.449.042a1.867,1.867,0,0,1,.435.178.788.788,0,0,0,.228.072.678.678,0,0,0,.226-.027.642.642,0,0,1,.405-.033c.133.04.267.118.4.166a1.092,1.092,0,0,0,.4.058,2.32,2.32,0,0,1,.362.016,2.064,2.064,0,0,0,.346,0,1.472,1.472,0,0,1,.3,0c.094.015.186.048.276.07a.652.652,0,0,0,.259.021,1.149,1.149,0,0,0,.21-.065.655.655,0,0,0,.3-.224c.01-.014.019-.029.027-.044a.234.234,0,0,0,.019.014h0v0h0v-.065a.55.55,0,0,0,.025-.067.772.772,0,0,0,.024-.106c0-.024.007-.041.013-.078l0-.025c0-.016,0-.029,0-.041a.32.32,0,0,0,0-.047c0-.006,0,0,0,.007s-.007.032-.009.029-.009,0-.013,0l-.023-.037v0a.2.2,0,0,0-.069-.059l0-.012,0-.007a.178.178,0,0,0,.086-.056v0a.061.061,0,0,0,.013-.033c.016-.16-.1-.329-.322-.491-.023-.048-.047-.1-.072-.144a1.927,1.927,0,0,0-.24-.361,1.193,1.193,0,0,0-.288-.234c-.1-.06-.2-.108-.293-.178a3.6,3.6,0,0,0-.339-.207l-.25-.12a2.956,2.956,0,0,0-.4-.129l-.246-.064-.128-.033-.135-.05a2.69,2.69,0,0,0-.3-.118,1.032,1.032,0,0,0-.336-.032l-.341.027a1.363,1.363,0,0,1-.348-.018,1.319,1.319,0,0,0-.384-.019,3.622,3.622,0,0,0-.388.08,2.154,2.154,0,0,0-.4.143.992.992,0,0,0-.2.131.539.539,0,0,0-.108.118.392.392,0,0,0-.031.055.435.435,0,0,0-.019.043.8.8,0,0,0-.027.1,1.617,1.617,0,0,0-.03.192l0,.022c.012-.163-.015.2-.016.225h0l-.005.132c0,.131,0,.293,0,.426.007.158.013.206.014.221m2.331.192-.109.037a.471.471,0,0,1-.2.025.8.8,0,0,1-.21-.069c-.1-.045-.2-.1-.308-.143.259.053.54.1.829.15m-1.225-.237c-.067-.012-.135-.023-.2-.041l-.092-.035c.092.026.19.051.293.075" transform="translate(-194.643 -216.739)"></path>
        <path id="Pfad_60-2" data-name="Pfad 60" d="M337.653,248.251c0-.088-.009-.2-.012-.242-.01-.125-.016-.169-.023-.219a1.215,1.215,0,0,0-.038-.183.422.422,0,0,0-.021-.061.763.763,0,0,0-.033-.074,1.154,1.154,0,0,0-.112-.173,2.329,2.329,0,0,0-.216-.234,4.4,4.4,0,0,0-.421-.348c-.14-.1-.276-.2-.411-.282a1.877,1.877,0,0,0-.409-.181,1.945,1.945,0,0,1-.369-.164l-.361-.2a1.417,1.417,0,0,0-.356-.145,2.685,2.685,0,0,0-.321-.044l-.142-.02-.138-.034-.261-.067a3.065,3.065,0,0,0-.422-.082l-.265-.012a2.473,2.473,0,0,0-.362.024,2.291,2.291,0,0,1-.312.021.7.7,0,0,0-.307.079.946.946,0,0,0-.258.228c-.027.034-.053.07-.078.1-.228.039-.355.135-.352.286a.088.088,0,0,0,.01.038l0,.018v-.018a.391.391,0,0,0,.1.113l0,.007h0a.126.126,0,0,0-.084.024l0,0-.023.023s-.007.009-.013-.013a.246.246,0,0,1-.006-.024c0-.01-.005-.045-.006-.066a.372.372,0,0,0-.006-.06c0,.006,0,.046,0,.113,0,.016,0,.035,0,.049l0,.021c0,.016,0,.033.005.049.005.038.009.067.013.086.007.045.015.081.024.118a.6.6,0,0,0,.021.064c.005.14,0,.093.005.106a.007.007,0,0,0,.008.006.077.077,0,0,0,.03-.006c.006.013.013.026.019.038a1.4,1.4,0,0,0,.312.378,2.312,2.312,0,0,0,.223.176.918.918,0,0,0,.275.116c.095.026.193.041.292.076a2.384,2.384,0,0,1,.322.159,3.013,3.013,0,0,0,.368.188,3.746,3.746,0,0,1,.384.177,1.468,1.468,0,0,0,.424.156c.146.023.288.018.429.049a1.086,1.086,0,0,1,.429.249,1.141,1.141,0,0,0,.24.149.882.882,0,0,0,.242.05,1.7,1.7,0,0,1,.463.055c.155.051.313.135.476.2.147.049.293.1.439.132l.218.047a.607.607,0,0,0,.222,0,.114.114,0,0,0,.031-.016.082.082,0,0,0,.024-.026.144.144,0,0,0,.012-.021l.01-.029c0-.01.007-.027.011-.044l.006-.026c0,.006.007-.035.016-.108s.016-.151.021-.238c0-.064.007-.164.007-.178v0h0c0-.065,0-.545,0-.335m-5.975-1.8v.022a.212.212,0,0,1,0-.022m4.034,1.707a.848.848,0,0,1-.223-.044.809.809,0,0,1-.214-.133l-.115-.095c.307.108.6.207.881.294-.113-.016-.224-.016-.328-.023m.963.216c-.071-.018-.141-.043-.214-.068.11.032.215.058.313.084Z" transform="translate(-230.151 -223.142)"></path>
        <path id="Pfad_61-2" data-name="Pfad 61" d="M331.694,246.719v0" transform="translate(-230.17 -223.465)"></path>
        <path id="Pfad_62-2" data-name="Pfad 62" d="M337.969,232.392c-.007-.07-.016-.123-.024-.171-.006-.027-.013-.055-.018-.08s0-.035,0-.055v-.072l0-.007a.032.032,0,0,0-.011-.011.057.057,0,0,0-.031-.009l-.01-.029a1.29,1.29,0,0,0-.285-.42,1.547,1.547,0,0,0-.2-.171.661.661,0,0,0-.249-.095l-.267-.04a2.086,2.086,0,0,1-.292-.107,1.8,1.8,0,0,0-.334-.117,2.828,2.828,0,0,1-.35-.092.954.954,0,0,0-.386-.05c-.132.015-.262.061-.39.071a.693.693,0,0,1-.39-.119.5.5,0,0,0-.439-.035,1.776,1.776,0,0,1-.421.118l-.434,0a2.112,2.112,0,0,0-.4.085,1.225,1.225,0,0,0-.2.085.712.712,0,0,0-.1.067.521.521,0,0,0-.106.114.446.446,0,0,0-.031.058.551.551,0,0,0-.021.055c0,.014-.009.029-.015.055a.355.355,0,0,0-.011.05c0,.017-.009.053-.015.092,0,.017-.007.057-.01.087s-.007.081-.011.14c0,.032,0,.055-.006.093l0,.126c0,.05,0,.072,0,.149s0,.137,0,.2c0,.033,0,.066,0,.1v.016l.006.106c0,.038.005.076.008.112s.007.069.011.1.007.047.008.055a.648.648,0,0,0,.027.123.221.221,0,0,0,.028.063.256.256,0,0,0,.03.036.485.485,0,0,0,.1.075,1.7,1.7,0,0,0,.194.091c.129.051.257.091.384.127l.373.1a1.385,1.385,0,0,0,.371.018,1.1,1.1,0,0,1,.335.029l.329.083a1.047,1.047,0,0,0,.323.033,2.788,2.788,0,0,0,.291-.051l.129-.02.124,0h.237a3.353,3.353,0,0,0,.383-.017l.24-.044a2.79,2.79,0,0,0,.328-.09,1.811,1.811,0,0,1,.283-.067.723.723,0,0,0,.278-.11,1.053,1.053,0,0,0,.234-.239c.026-.036.049-.07.071-.1.207-.032.327-.084.322-.157a.338.338,0,0,0-.005-.038c0-.009,0-.019,0-.032l0,.03a.462.462,0,0,0-.1-.2l.013.005.077.023h0a.036.036,0,0,1,.023.018.229.229,0,0,1,.012.041c0,.022.007.035.008.026a.66.66,0,0,0,0-.087c0-.039-.007-.085-.01-.118m-4.672-.724.1-.033a1.122,1.122,0,0,1,.178-.024c-.1.016-.193.035-.279.058m.677-.106c.1-.027.2-.069.3-.1a.625.625,0,0,1,.2-.035.471.471,0,0,1,.194.063c.034.017.069.037.1.057a6.874,6.874,0,0,0-.8.013" transform="translate(-230.378 -219.299)"></path>
        <path id="Pfad_63-2" data-name="Pfad 63" d="M331.708,220.995a.661.661,0,0,0,.258-.019c.089-.023.182-.055.276-.072a1.581,1.581,0,0,1,.3,0,1.806,1.806,0,0,0,.347,0,2.5,2.5,0,0,1,.361-.015,1.087,1.087,0,0,0,.4-.058c.137-.048.271-.126.4-.166a.646.646,0,0,1,.405.033.643.643,0,0,0,.226.028.832.832,0,0,0,.228-.072,1.866,1.866,0,0,1,.436-.178c.146-.027.3-.024.449-.041.138-.024.276-.053.412-.091l.206-.066a.666.666,0,0,0,.209-.112.276.276,0,0,0,.032-.035.271.271,0,0,0,.029-.061c0-.009.006-.02.009-.032s.012-.052.017-.087.015-.1.021-.166c0-.013.007-.062.014-.22.006-.132.007-.3,0-.427,0-.1,0-.126,0-.13h0c0-.016-.028-.391-.017-.225v-.024a1.765,1.765,0,0,0-.031-.191.585.585,0,0,0-.028-.1.334.334,0,0,0-.018-.044.36.36,0,0,0-.031-.055.583.583,0,0,0-.107-.119.987.987,0,0,0-.2-.129,2.155,2.155,0,0,0-.4-.143,3.619,3.619,0,0,0-.388-.079,1.275,1.275,0,0,0-.385.019,1.387,1.387,0,0,1-.347.017l-.341-.025a1,1,0,0,0-.336.032,2.711,2.711,0,0,0-.3.116l-.133.051-.129.033-.247.064a2.9,2.9,0,0,0-.4.128l-.25.12a3.587,3.587,0,0,0-.34.207c-.1.07-.194.119-.293.178a1.179,1.179,0,0,0-.288.234,1.957,1.957,0,0,0-.24.36c-.026.049-.05.1-.072.145-.22.162-.338.33-.322.491a.075.075,0,0,0,.012.033v0a.191.191,0,0,0,.086.056l0,.007,0,.012a.218.218,0,0,0-.069.058h0l-.024.037s-.007.011-.012,0a.1.1,0,0,1-.009-.029c0-.01,0-.013,0-.006s0,.022,0,.047,0,.026,0,.04l0,.027c.006.035.008.055.012.077a.73.73,0,0,0,.025.106.487.487,0,0,0,.024.067v.007l0,.048v.009h0v0h0a.076.076,0,0,0,.019-.014l.027.044a.67.67,0,0,0,.3.224,1.211,1.211,0,0,0,.211.064m5.039-1.988h0v0Zm-.825.659-.092.034a1.873,1.873,0,0,1-.2.041c.1-.024.2-.05.294-.075m-.69.162c-.106.041-.21.1-.308.142a.758.758,0,0,1-.209.07.488.488,0,0,1-.2-.024l-.108-.038c.288-.044.568-.1.829-.15" transform="translate(-230.008 -215.945)"></path>
        <path id="Pfad_64-2" data-name="Pfad 64" d="M208.909,242.625c.525.078.928.153,1.13.613.041.038.081.038.2.076.2.153.4.115.646-.23a2.912,2.912,0,0,0,.282-.842c.484-2.832,3.673-6.735,4.964-9.375a11.734,11.734,0,0,0,1.373-1.875c3.31-4.9.808.5-.081,4.746a2.322,2.322,0,0,1-.646,1.645,20.017,20.017,0,0,0-1.211,1.76c-.282.46-.242.421.041.613a3.412,3.412,0,0,0,1.251.421,3.351,3.351,0,0,0,2.1-.115,1.417,1.417,0,0,0,1.09-.8c.041.038.081.038.081.077a9.347,9.347,0,0,0,.565-.765h.081c-.121.153-.081.306-.081.535a6.277,6.277,0,0,0,1.373-1.339c.767-1.186,3.39-4.706,3.834-5.893a1.217,1.217,0,0,1,.364-.459.286.286,0,0,1,.2-.229,1.751,1.751,0,0,0,.928-.995,1.191,1.191,0,0,0,.121-.345.183.183,0,0,1,.121-.038c0,.038.041.077.081.115,2.744-3.635,2.583-3.215,1.977.153h.122c.242-.574.484-1.148.766-1.722l.041.038v.191a1.706,1.706,0,0,0-.363,1.262c-.041.077,0,.23-.121.345-.323.382.04.765-.364,1.148a.113.113,0,0,0,0,.153,7.782,7.782,0,0,1-.4,2.066,5.062,5.062,0,0,1-.242.842c-.04,0-.04,0-.161.077,0-.191.081-.383.081-.536-.242.536-.363,1.072-.525,1.531a9.17,9.17,0,0,1-.282.995,28.787,28.787,0,0,1-.767,3.9.686.686,0,0,0,.444,1.072c.161.037.283.075.323.153.121.191.323.191.605.153a3.928,3.928,0,0,1,.485-.077c.524-.038.564-.076.807-.613.161-.152.363-.267.443-.421a1.27,1.27,0,0,0,.444-.766c-.2-.382.04-.765,0-1.071-.121-.5.364-1.033.162-1.416-.041-.038,0-.076-.041-.115a13.169,13.169,0,0,0,.646-2.3c.081-.344.12-.613-.162-.613-.2-.5.484-.957.605-1.492-.161.076-.161.115-.2.115.081-.306.162-.613.282-.957a1.3,1.3,0,0,1,.041-.229,1.365,1.365,0,0,0,.282-1.3c-.081-.115,0-.268.041-.384.121-.268.525-.534.242-.765-.039-.076,0-.115,0-.152a2.488,2.488,0,0,0,.526-1.492c.12-.575.161-1.148.242-1.646.041-.5.121-1.071.2-1.608a12.361,12.361,0,0,1,1.211-3.176,1.594,1.594,0,0,1,.121-.306c0-.5,0-1.033-.565-1.147-.041,0-.081-.038-.162-.077a2.652,2.652,0,0,0-.686-.8,2.086,2.086,0,0,0-1.089-.421c-.4-.078-.808.344-1.252.611a14.6,14.6,0,0,0-3.229,2.985c-.565.8-1.251,1.492-1.817,2.257a3.062,3.062,0,0,0-.807,1.109c-1.614,2.028-3.633,4.324-1.7-.306.162-.344.2-.727.4-1.148.4-.88.162-.115.2-.995,0-.076-.041-.153.041-.191a1,1,0,0,0,.2-.842c-.041-.077.041-.344.041-.5-.121-.268-.444-.344-.929-.268a1.7,1.7,0,0,1-1.17-.153,1.185,1.185,0,0,0-.808-.153,3.763,3.763,0,0,0-2.139,1.453c-.2.269-.4.537-.605.766-.363.5-.847.956-1.211,1.455-.484.688-3.955,5.548-3.027,1.3a15.755,15.755,0,0,0,.565-2.3c-.04-.23,0-.46-.12-.613-.2-.191-.484-.344-.686-.535-.2-.078-.364.038-.485.305a7.288,7.288,0,0,0-.323.843c-.161.306-.2.612-.323.88a8.579,8.579,0,0,0-.727,2.679,4.273,4.273,0,0,1-.161.766c-.364,1.187-.646,2.372-.968,3.559q-.243.918-.485,1.837c-.161.574-1.171,2.832-1.291,3.405a10.528,10.528,0,0,0-.323,1.455,13.608,13.608,0,0,1-1.413,3.788c-.041.077-.081.268-.041.306a2.329,2.329,0,0,0,.767.344" transform="translate(-197.936 -216.106)"></path>
        <path id="Pfad_65-2" data-name="Pfad 65" d="M244.2,239.507a2.959,2.959,0,0,1,.323.612,4.966,4.966,0,0,0,2.463,1.8,6.48,6.48,0,0,0,2.583.267.835.835,0,0,1,.605-.038c.2.115.445-.115.646-.076.525-.077,1.009-.077,1.534-.153a12.128,12.128,0,0,0,1.534-.192,7.564,7.564,0,0,0,1.292-.191,11.3,11.3,0,0,0,2.341-.995,4.092,4.092,0,0,0,1.211-.956,1.267,1.267,0,0,1,.525-.23,3.1,3.1,0,0,0-.645-1.3c-.163-.306-.242-.306-.565-.076a6.3,6.3,0,0,1-2.018.688c-.767.077-1.615.153-2.422.23-1.13.191-2.341.268-3.472.421a15.028,15.028,0,0,1-2.622-.076,2.538,2.538,0,0,1-1.252-.5,1.989,1.989,0,0,1-.282-1.646c.928-2.716,6.579-6.315,8.759-7.27a2.8,2.8,0,0,0,.888-.613,2.737,2.737,0,0,1,.969-.8v-.076a.594.594,0,0,0-.445-.5,3.492,3.492,0,0,0-1.534-.038,11.886,11.886,0,0,1-2.866-.039c-6.3-.344,4.723-3.673,5.207-2.678a6.8,6.8,0,0,1,1.492.153,2.2,2.2,0,0,0,2.06-.727,1.362,1.362,0,0,0,.444-1.263,6.039,6.039,0,0,1-.2-.69c-.121-.5-.242-.918-.364-1.453a1.718,1.718,0,0,0-.806-1.225,5.828,5.828,0,0,0-1.413-.344,14.914,14.914,0,0,0-5.651.574,8.941,8.941,0,0,0-3.189,1.76,4.233,4.233,0,0,0-1.453,2.373,3.75,3.75,0,0,0,.686,3.061,3.936,3.936,0,0,0,.928.881c2.422.765-2.18,2.526-3.229,3.405a7.3,7.3,0,0,0-2.421,3.406,4.957,4.957,0,0,0,.363,4.515" transform="translate(-207.154 -216.356)"></path>
        <path id="Pfad_66-2" data-name="Pfad 66" d="M267.643,234.77a8.7,8.7,0,0,0,.766,3.827,7.315,7.315,0,0,0,2.988,3.291,3.788,3.788,0,0,0,1.857.612,6.546,6.546,0,0,1,.847.115,1.524,1.524,0,0,0,1.211-.115,5.219,5.219,0,0,0,.727-.23,5.552,5.552,0,0,0,2.623-1.415c.767-.69,1.373-1.34,2.059-1.991.121-.192.364-.421.4-.612a8.373,8.373,0,0,0,1.291-2.334,12.352,12.352,0,0,0,.728-1.914,16.329,16.329,0,0,0,.767-3.062c.04-.841.363-1.722.484-2.6,0-.421.04-.842.04-1.262.081-.115.041-.345.121-.459a6.558,6.558,0,0,0,.687-2.334,8.126,8.126,0,0,0-.323-2.986,7.226,7.226,0,0,0-1.13-2.563A18.673,18.673,0,0,0,282.3,217.2a2.324,2.324,0,0,0-1.453-.5,6.865,6.865,0,0,0-3.955,1.148c-.444.344-.848.612-1.292.918a.456.456,0,0,1-.605.191,1.688,1.688,0,0,0-1.413.421,8.09,8.09,0,0,0-1.413,1.951q-.483.86-.968,1.836a5.588,5.588,0,0,0-.607,1.187q-1.028,2.525-2.059,5.051a11.082,11.082,0,0,0-.928,5.013c.041.116,0,.23.041.345" transform="translate(-213.442 -215.636)"></path>
        <path id="Pfad_67-2" data-name="Pfad 67" d="M296.87,240.935a8.325,8.325,0,0,0,2.906-1.339c.242-.154.443-.383.727-.575,3.188-3.75,2.866-2.87,3.028.689a1.71,1.71,0,0,0,.4.688,4.406,4.406,0,0,0,1.695,1.034,2.335,2.335,0,0,0,1.05.114,1.2,1.2,0,0,1,.364-.038,2.2,2.2,0,0,0,1.937-.918c.807-.918,1.614-1.875,2.3-2.793.605-.8,1.09-1.608,1.615-2.411.242-.421.484-.8.767-1.224a3.593,3.593,0,0,0,.242-.574,1.969,1.969,0,0,1,.6-.88,1.249,1.249,0,0,0,.486-.766c.081-.306.081-.689.564-.918a.424.424,0,0,0,.121-.23,10.286,10.286,0,0,0,.848-2.525c0-.077.121-.154.2-.268.081.268.121.459.2.727a8.413,8.413,0,0,1,.6-1.607,1.813,1.813,0,0,1,.121-.268c.081-.421.283-.841.4-1.263a3.844,3.844,0,0,0,.081-.957,3.286,3.286,0,0,0,.041-.65,2.384,2.384,0,0,0-.041-.765c0-.191-.161-.307.041-.574.04-.077,0-.153-.041-.23-.081-.115-.04-.229,0-.382.081-.153.041-.306.12-.459.081-.306-.16-.5-.12-.766a.933.933,0,0,0-.242-.65.4.4,0,0,1-.121-.421.58.58,0,0,0-.2-.765c-.282-.153-.323-.382-.4-.65-.04-.115-.04-.268-.161-.307a1.684,1.684,0,0,1-.605-.574,2.085,2.085,0,0,1-.364-.65.516.516,0,0,0-.323-.459,2.2,2.2,0,0,1-.282-.115,2.006,2.006,0,0,0-1.009-.46c-.525-.191-1.05-.305-1.574-.5a4.551,4.551,0,0,0-.525.192,3.557,3.557,0,0,0-.2.382.538.538,0,0,0-.04.344,6.133,6.133,0,0,0,.322.765.5.5,0,0,0,.646.383.562.562,0,0,1,.605.229,1.717,1.717,0,0,1,.121.651c.041.612.041,1.262.081,1.951a25.6,25.6,0,0,1-.4,4.209,20.891,20.891,0,0,1-1.009,3.6c-.283.842-.687,1.761-1.05,2.64-.242.537-.484,1-.727,1.531-1.452,3.214-6.1,10.562-4.157,2.755a18.735,18.735,0,0,1,.928-3.33,26.321,26.321,0,0,0,1.009-2.831,3.493,3.493,0,0,1,.484-1.072,7.2,7.2,0,0,0,.645-1.684c.041-.077.081-.191,0-.23-.161-.076-.041-.229-.041-.421.041-.153.122-.421,0-.536a.716.716,0,0,1-.242-.613c0-.42-.363-.5-.727-.574a7.53,7.53,0,0,0-1.009-.268,3.06,3.06,0,0,0-1.331-.077,1.431,1.431,0,0,0-.767.383,4,4,0,0,0-.727,1.339,13.606,13.606,0,0,1-1.05,2.679c-.443,1.072-1.009,2.1-1.573,3.176-.2.421-.486.843-.687,1.3a1.073,1.073,0,0,1-.282.306,1.381,1.381,0,0,0-.526.535c-2.3,4.325-3.955,4.822-3.067-.688a7.245,7.245,0,0,0,.041-.919c.04-.5.04-.995.12-1.454.162-.919.283-1.837.485-2.717.2-1.033.4-2.067.646-3.1a3.266,3.266,0,0,0-.041-1.875.745.745,0,0,1-.121-.421c-.041-.306-.242-.459-.6-.421a6.522,6.522,0,0,0-1.211.152.4.4,0,0,0-.041.192,9.394,9.394,0,0,1-.323,2.525,29,29,0,0,1-.727,3.138c-.726,1.989-1.251,3.98-1.856,5.969-.283,1.071-.687,2.181-1.01,3.329a7.683,7.683,0,0,0-.121,3.444.866.866,0,0,0,.4.574,1.977,1.977,0,0,0,1.372.307c.687-.038,1.332-.038,1.978-.077Z" transform="translate(-219.986 -215.258)"></path>
      </g>
    </g>
  </g>
</svg>
