<?xml version="1.0" encoding="UTF-8"?>
<svg xmlns="http://www.w3.org/2000/svg" width="556" height="270" viewBox="0 0 556 270">
  <g id="Gruppe_39" data-name="Gruppe 39" transform="translate(-1145.228 -4313.5)">
    <g id="Rechteck_17" data-name="Rechteck 17" transform="translate(1145.228 4313.5)" fill="none" stroke="#000" stroke-width="2">
      <rect width="552" height="264" rx="30" stroke="none"></rect>
      <rect x="1" y="1" width="550" height="262" rx="29" fill="none"></rect>
    </g>
    <g id="Canned_Fish" transform="translate(1447.263 4393.668)">
      <g id="Gruppe_20" data-name="Gruppe 20" transform="translate(0)">
        <g id="Gruppe_9" data-name="Gruppe 9" transform="translate(126.987 2.972)">
          <path id="Pfad_113" data-name="Pfad 113" d="M8.017,36.093c.077,4.973.181,11.06.31,17.872.622,29.036,1.84,71.308,2.616,97.909.181,6.657.363,12.329.492,16.577a25.843,25.843,0,0,0,6.321,16.24A28.968,28.968,0,0,0,24.7,190.8c5.8,3.03,12.277,4.507,18.727,5.62a206.422,206.422,0,0,0,28.777,2.9h.1c8.522-.285,17.458-1.425,25.591-4.274a25.906,25.906,0,0,0,17.121-22.638c.492-6.657.932-13.417,1.32-20.229,1.839-30.745,2.849-62.656,2.72-93.454q0-10.334-.233-20.436a16.929,16.929,0,0,0-13.287-16.215,295.483,295.483,0,0,0-52.166-6.838,165.353,165.353,0,0,0-32.377,4.144A16.888,16.888,0,0,0,8.017,36.093Z" transform="translate(-8.016 -15.241)" fill="#fd6229"></path>
        </g>
        <g id="Gruppe_10" data-name="Gruppe 10" transform="translate(127.299 41.641)">
          <path id="Pfad_114" data-name="Pfad 114" d="M3,29.913c.622,29.036,1.84,71.308,2.616,97.909A151.83,151.83,0,0,0,29.863,130.1c16.137.518,32.274.311,48.41.1,15.36-.181,30.745-.388,46-2.072,1.839-30.745,2.849-62.656,2.72-93.454-9.713-1.269-19.737-1.606-29.191-2.2Q50.441,29.486,3,29.913Z" transform="translate(-3.002 -29.86)" fill="#fff"></path>
        </g>
        <g id="Gruppe_11" data-name="Gruppe 11" transform="translate(155.693 84.815)">
          <path id="Pfad_115" data-name="Pfad 115" d="M11.389,47.594c5.77,5.178,11.93,10.015,18.859,13.494,11.434,5.74,21.92,5.187,34.1,2.991,4.406-.794,8.84-1.907,12.664-4.234s7-6.035,7.8-10.441c-10.995-1.8-22.08-3.6-33.212-3.153S22.533,56.013,13.646,62.73C23.332,58.5,22.177,53.418,11.389,47.594Z" transform="translate(-11.389 -46.182)" fill="#f7ca49"></path>
        </g>
        <g id="Gruppe_12" data-name="Gruppe 12" transform="translate(2.658 75.977)">
          <path id="Pfad_116" data-name="Pfad 116" d="M42.581,65.594c.1.673.233,1.347.31,2.046,1.217,4.041,5.7,6.838,10,7.874,18.7,4.429,36.392,4.377,55.637,4.248,22.586-.13,45.742,1.994,67.293-4.662a6.193,6.193,0,0,0,.648-.181c6.631-2.1,9.558-5.077,10-8.263,1.088-7.485-11.137-16.292-20.384-18.779-25.2-6.734-54.989-5.776-80.632-2.564C73.508,46.789,61.463,49.2,50.947,55c-.337.181-.648.389-.985.57-2.8,1.684-5.517,3.963-6.708,6.787A7.716,7.716,0,0,0,42.581,65.594Z" transform="translate(-42.579 -42.84)" fill="#fff"></path>
        </g>
        <g id="Gruppe_13" data-name="Gruppe 13" transform="translate(2.658 84.835)">
          <path id="Pfad_117" data-name="Pfad 117" d="M46.622,60.084c.1.673.233,1.347.31,2.046,1.217,4.041,5.7,6.838,10,7.874,18.7,4.429,36.392,4.377,55.637,4.248,22.586-.13,45.742,1.994,67.293-4.662.622-7.382-11.319-15.929-20.41-18.364-25.2-6.735-54.99-5.776-80.633-2.565C67.991,50.008,57.061,52.106,47.3,56.847A7.716,7.716,0,0,0,46.622,60.084Z" transform="translate(-46.621 -46.189)" fill="#7a7979"></path>
        </g>
        <g id="Gruppe_14" data-name="Gruppe 14" transform="translate(67.647 100.362)">
          <path id="Pfad_118" data-name="Pfad 118" d="M42.483,127.615c3.937.155,7.9.13,11.811-.026a181.279,181.279,0,0,0,53.954-9.972,28.526,28.526,0,0,0,7.926-4.585,10.153,10.153,0,0,0,3.807-7.149c1.217-16.81,1.891-37.584,1.683-53.824-.466,3.186-3.393,6.139-10.05,8.185-.285.077-.6.181-.88.259-.052,14.609-.7,31.367-1.71,45.38a10.15,10.15,0,0,1-3.807,7.149,28.161,28.161,0,0,1-7.926,4.585,181.279,181.279,0,0,1-53.954,9.972C43.053,127.589,42.768,127.615,42.483,127.615Z" transform="translate(-42.483 -52.059)" fill="#fff"></path>
        </g>
        <g id="Gruppe_15" data-name="Gruppe 15" transform="translate(3.256 100.181)">
          <path id="Pfad_119" data-name="Pfad 119" d="M47.458,60.357c.907,13.857.026,29.735.181,43.152a10.016,10.016,0,0,0,4.973,8.5c17.406,10.257,38,15.049,58.408,15.723.285,0,.57-.026.855-.026a181.279,181.279,0,0,0,53.954-9.972,28.16,28.16,0,0,0,7.926-4.585A10.15,10.15,0,0,0,177.562,106c1.011-14.013,1.658-30.771,1.71-45.38-14.194,4.222-29.062,4.637-43.981,4.43h-.415c-7.589-.1-15.178-.363-22.716-.389-19.245-.026-36.936-.13-55.585-4.714-4.3-1.062-8.755-3.885-9.946-7.951C46.992,54.658,47.251,57.455,47.458,60.357Z" transform="translate(-46.629 -51.99)" fill="#f7ca49"></path>
        </g>
        <g id="Gruppe_18" data-name="Gruppe 18" transform="translate(37.919 135.558)">
          <g id="Gruppe_16" data-name="Gruppe 16">
            <path id="Pfad_120" data-name="Pfad 120" d="M55.912,66.777c5.77,5.178,11.93,10.015,18.859,13.494,11.434,5.74,21.92,5.187,34.1,2.991,4.406-.794,8.84-1.907,12.664-4.234s7-6.035,7.8-10.441c-10.995-1.8-22.08-3.6-33.212-3.153S67.056,75.2,58.169,81.913C70.5,78.27,68.139,73.051,55.912,66.777Z" transform="translate(-55.912 -65.365)" fill="#fd6229"></path>
          </g>
          <g id="Gruppe_17" data-name="Gruppe 17" transform="translate(53.258 1.621)">
            <path id="Pfad_121" data-name="Pfad 121" d="M64.358,65.977a16.058,16.058,0,0,0-.292,12.036" transform="translate(-63.036 -65.977)" fill="#fd6229"></path>
          </g>
        </g>
        <g id="Gruppe_19" data-name="Gruppe 19">
          <path id="Pfad_122" data-name="Pfad 122" d="M24.425,61.5a82.874,82.874,0,0,0-7.539,4.988,2.645,2.645,0,0,1-3.19-4.221c1.673-1.263,3.71-2.653,6-4.076-2.667-2-5.44-4.3-8.424-6.98A2.645,2.645,0,0,1,14.8,47.273a110.655,110.655,0,0,0,9.864,8c9.049-5.017,20.215-9.682,28.474-10.015,11.427-.475,22.771,1.392,33.746,3.183a2.646,2.646,0,0,1,2.176,3.082c-.868,4.81-4.159,9.269-9.027,12.232-4.39,2.671-9.324,3.813-13.571,4.577A85.21,85.21,0,0,1,51.383,69.9a44.578,44.578,0,0,1-20.675-4.8A66.57,66.57,0,0,1,24.425,61.5Zm58.588-8.331c-4.372-.707-8.8-1.372-13.231-1.87a13.293,13.293,0,0,0,.01,9.245,2.58,2.58,0,0,1,.034,1.635,27.286,27.286,0,0,0,7.458-2.947A14.675,14.675,0,0,0,83.013,53.168ZM65.28,63.161a2.631,2.631,0,0,1-.429-.732,18.651,18.651,0,0,1-.492-11.648,98.227,98.227,0,0,0-11-.24c-6.521.263-15.621,3.818-23.631,8.005,1.121.656,2.237,1.261,3.358,1.824C43.5,65.6,53.15,65.331,65.28,63.161Z" transform="translate(142.658 36.986)"></path>
          <path id="Pfad_123" data-name="Pfad 123" d="M10.779,100.483l.39-.227c.194-.116.389-.232.567-.328,11.622-6.412,25.052-8.711,35.451-10C79,85.95,106,86.754,127.541,92.266c-.878-33.147-.95-38.872-1.2-54.29a19.416,19.416,0,0,1,15.018-19.317,175.824,175.824,0,0,1,43.655-4.279,2.586,2.586,0,0,1,2.413.076,297.513,297.513,0,0,1,52.894,6.885A19.484,19.484,0,0,1,255.7,40.079c.847,36.332-.326,87.119-3.813,134.377A28.494,28.494,0,0,1,233,199.4c-12.343,4.311-26.729,4.875-39.907,4.422a210.331,210.331,0,0,1-29.148-2.94c-16.838-2.914-21.706-6.383-27.209-12.6a26.234,26.234,0,0,1-3.25-4.809,185.357,185.357,0,0,1-51.924,9.185c-24.95,1.01-50.409-3.534-71.676-16.068a12.712,12.712,0,0,1-6.258-10.726v0c-.189-15.42,1.011-34.051-.739-49.1C0,110.051,4.522,104.263,10.779,100.483ZM8.8,124.033a2.608,2.608,0,0,1,1.478-.159c-.515-.244-1.024-.5-1.522-.8C8.772,123.392,8.779,123.718,8.8,124.033Zm74.646.423.81.011q-.626-.356-1.23-.748A2.65,2.65,0,0,1,83.443,124.456Zm1.17-31.741A297.276,297.276,0,0,0,47.84,95.18c-20.168,2.5-27.509,6.43-34.442,9.9-9.412,5.7-7.025,12.257,2.427,14.616,15.465,3.793,30.266,4.445,45.541,4.575-.361-.328-.729-.648-1.061-1.01a2.646,2.646,0,0,1,3.9-3.575,10.971,10.971,0,0,0,4.935,3.074,2.6,2.6,0,0,1,1.668,1.555c.693,0,1.392.028,2.085.034l-3.369-1.666a2.646,2.646,0,0,1,2.346-4.743L81.9,122.9a2.613,2.613,0,0,1-.324-3.362,2.644,2.644,0,0,1,3.688-.63,19,19,0,0,0,4.683,2.42,2.632,2.632,0,0,1,1.636,3.237q3.06.03,6.129.022c-.966-.521-1.914-1.077-2.823-1.691a2.646,2.646,0,0,1,2.96-4.386,27.63,27.63,0,0,0,5.254,2.777,2.622,2.622,0,0,1,1.525,3.194c.827-.024,1.651-.076,2.477-.11a2.614,2.614,0,0,1-.81-3.379,2.645,2.645,0,0,1,3.588-1.057l4.97,2.71a2.579,2.579,0,0,1,1.049,1.149c1.869-.172,3.728-.393,5.58-.644-.233-.088-.458-.2-.694-.28a2.645,2.645,0,0,1,1.71-5.006,30.374,30.374,0,0,1,5.954,2.787,2.566,2.566,0,0,1,.965,1.13c2.8-.6,5.584-1.271,8.315-2.137,4.944-1.565,7.849-3.733,8.178-6.12.784-5.394-9.731-13.5-18.449-15.846C115.1,94.371,100.764,92.715,84.613,92.715ZM250.409,40.2a14.22,14.22,0,0,0-11.2-13.691,306.19,306.19,0,0,0-44.677-6.432c.507.509,1.012,1.02,1.491,1.558a2.645,2.645,0,0,1-3.955,3.513,32.9,32.9,0,0,0-6.368-5.458c-1.247-.028-2.492-.037-3.739-.043l2.852,1.876a2.646,2.646,0,0,1-2.906,4.422l-4.618-3.038a2.61,2.61,0,0,1-.94-3.211q-3.1.072-6.189.246c.037.023.081.024.117.048a59.608,59.608,0,0,1,8.012,6.432,2.646,2.646,0,1,1-3.658,3.823,54.052,54.052,0,0,0-7.3-5.859,2.646,2.646,0,0,1-.727-3.671,2.609,2.609,0,0,1,.6-.6q-3.107.227-6.2.562a2.57,2.57,0,0,1,.692.42,35.468,35.468,0,0,0,6.142,4.539,2.644,2.644,0,1,1-2.666,4.567A40.708,40.708,0,0,1,158.122,25a2.646,2.646,0,0,1-.152-3.738,2.468,2.468,0,0,1,.326-.236,152.345,152.345,0,0,0-15.729,2.788A14.158,14.158,0,0,0,131.63,37.9c.023,1.471.048,3.076.076,4.737a41.928,41.928,0,0,1,5.476,4.049,2.646,2.646,0,0,1-3.5,3.973c-.6-.528-1.235-1.015-1.869-1.5q.035,1.956.074,4.009c52.228-.365,107.5,3.188,118.733,4.446C250.606,51.753,250.541,45.906,250.409,40.2Zm.232,22.714c-9.956-1.148-66.678-4.9-118.642-4.479.01.41.02.815.03,1.224a2.629,2.629,0,0,1,1.888-.181,25.189,25.189,0,0,1,5.972,2.627,2.645,2.645,0,0,1-2.738,4.526,19.869,19.869,0,0,0-4.72-2.074,2.353,2.353,0,0,1-.288-.152q.023.971.047,1.938a2.618,2.618,0,0,1,1.741.807,22.842,22.842,0,0,0,5.164,4.107,2.644,2.644,0,1,1-2.658,4.572,28.026,28.026,0,0,1-4.089-2.964c.05,2.017.1,4.043.149,6.056a2.579,2.579,0,0,1,1.786-.126,33.6,33.6,0,0,1,7.95,3.611,2.644,2.644,0,1,1-2.8,4.49,28.269,28.269,0,0,0-6.694-3.038c-.045-.014-.076-.049-.12-.065q.038,1.481.077,2.962a2.618,2.618,0,0,1,2.207.174l7.268,4.239a2.646,2.646,0,0,1-2.666,4.572l-6.677-3.894c.019.7.036,1.4.054,2.1,9.029,3.682,18.652,11.54,18.313,19.392a2.6,2.6,0,0,1,.284,1.106c.145,11.563-.154,25.413-.79,38.632,1.866.112,3.733.223,5.548.282,17.611.561,68.959.584,91.812-1.72C249.788,121.912,250.72,92.353,250.641,62.917ZM140.7,184.784c4.486,5.073,7.791,8.053,24.134,10.883a205.051,205.051,0,0,0,28.527,2.865c12.392.431,26.22-.056,37.887-4.131a23.2,23.2,0,0,0,15.356-20.333c.417-5.643.789-11.369,1.131-17.132-22.047,2.15-72.166,2.337-91.67,1.708-1.843-.059-3.752-.176-5.654-.288l-.023.417a32.332,32.332,0,0,1,9.481,2.421,2.644,2.644,0,1,1-2.082,4.862,27.171,27.171,0,0,0-7.719-2c-.07,1.076-.141,2.149-.215,3.2a2.636,2.636,0,0,1,2.03.061l7.658,3.459a2.645,2.645,0,1,1-2.178,4.82l-7.661-3.459a2.585,2.585,0,0,1-.641-.461,12.747,12.747,0,0,1-4.085,5.842,32.847,32.847,0,0,1-6.52,4.114A21.149,21.149,0,0,0,140.7,184.784ZM8.915,165.8a7.3,7.3,0,0,0,3.653,6.231C36.359,186.047,63.1,188.119,81.345,187.37c19.284-.772,37.173-4.076,53.168-9.824a25.588,25.588,0,0,0,7.181-4.172,7.433,7.433,0,0,0,2.8-5.262c1.057-14.381,1.684-31.3,1.729-45.888a26.822,26.822,0,0,1-6.674,2.966c-17.78,5.479-36.647,5.05-54.892,4.634-3.4-.077-6.795-.123-10.185-.163-1.288-.005-2.58-.019-3.863-.01-19.01.119-36.978.248-56.276-4.319a21.256,21.256,0,0,1-2.949-.971l3.027,2.273a2.646,2.646,0,0,1-3.177,4.231l-2.2-1.652c.036,1.246.041,2.517.059,3.779a2.591,2.591,0,0,1,1.089.428l6.512,4.6a2.645,2.645,0,1,1-3.053,4.319l-4.512-3.187c-.006,1.85-.014,3.7-.037,5.549a2.606,2.606,0,0,1,1,.616,39.886,39.886,0,0,0,6.5,5.363,2.644,2.644,0,1,1-2.916,4.412A44.877,44.877,0,0,1,9,151.491c-.014.94-.024,1.842-.037,2.763a2.459,2.459,0,0,1,.752,1.941,48.71,48.71,0,0,0,5.814,4.854,2.646,2.646,0,0,1-3.064,4.314c-1.222-.869-2.406-1.8-3.553-2.767,0,1.063-.012,2.161,0,3.2Z" transform="translate(-1.996 -14.118)"></path>
          <path id="Pfad_124" data-name="Pfad 124" d="M100.811,65.23c-.107,0-.217,0-.327,0a11.739,11.739,0,0,1-8.906-4.066,7.732,7.732,0,0,1-1.411-2.7c-2.69-.146-5.386-.174-8.069-.057a2.645,2.645,0,0,1-.227-5.285c2.927-.125,5.871-.088,8.807.077a16.69,16.69,0,0,1,2.615-3.735,2.643,2.643,0,0,1,3.609-.344,2.673,2.673,0,0,1,2.7-1.6,9.384,9.384,0,0,1,5.865,3.343,11.577,11.577,0,0,1,3.033,5.461,7.375,7.375,0,0,1-2.082,7.016A8.1,8.1,0,0,1,100.811,65.23Zm2.512-7.825a6.633,6.633,0,0,0-1.75-2.963,4.521,4.521,0,0,0-2.5-1.656,2.629,2.629,0,0,1-1.355-.542,2.607,2.607,0,0,1-.449.713c-.222.253-.438.515-.65.776.3.037.608.061.91.1a2.634,2.634,0,0,1-.22,5.244,7.466,7.466,0,0,0,3.313.858,3.307,3.307,0,0,0,2.263-.527A2.243,2.243,0,0,0,103.323,57.406Z" transform="translate(-59.305 40.824)"></path>
          <path id="Pfad_125" data-name="Pfad 125" d="M59.325,66.454a110.471,110.471,0,0,0,9.864,8C78.238,69.435,89.4,64.77,97.665,64.437c11.445-.468,22.781,1.395,33.745,3.185a2.646,2.646,0,0,1,2.175,3.082c-.868,4.807-4.158,9.263-9.027,12.232-4.38,2.666-9.318,3.81-13.571,4.577-12.954,2.336-23.994,2.674-35.757-3.232a67.179,67.179,0,0,1-6.282-3.6,83.024,83.024,0,0,0-7.538,4.988,2.646,2.646,0,0,1-3.19-4.221c1.673-1.263,3.71-2.653,6-4.074-2.667-2-5.442-4.306-8.424-6.982a2.645,2.645,0,0,1,3.534-3.937Zm68.21,5.9c-4.368-.707-8.791-1.376-13.229-1.875a13.289,13.289,0,0,0,.01,9.247,2.58,2.58,0,0,1,.034,1.636,27.35,27.35,0,0,0,7.455-2.943A14.718,14.718,0,0,0,127.535,72.352ZM77.6,79.554c10.428,5.234,20.074,4.961,32.2,2.791a2.633,2.633,0,0,1-.432-.734,18.643,18.643,0,0,1-.491-11.651,97.609,97.609,0,0,0-11.005-.237c-6.523.263-15.622,3.818-23.633,8.005C75.365,78.384,76.481,78.991,77.6,79.554Z" transform="translate(-19.64 68.548)"></path>
          <path id="Pfad_126" data-name="Pfad 126" d="M37.91,18.684a2.645,2.645,0,0,1,3.614-.969,67.04,67.04,0,0,1,10.452,7.468A2.645,2.645,0,1,1,48.5,29.172,61.617,61.617,0,0,0,38.876,22.3,2.646,2.646,0,0,1,37.91,18.684Z" transform="translate(107.02 -8.783)"></path>
          <path id="Pfad_127" data-name="Pfad 127" d="M40.788,19.979a2.648,2.648,0,0,1,3.7-.581l11.528,8.39A2.645,2.645,0,1,1,52.9,32.066l-11.528-8.39A2.647,2.647,0,0,1,40.788,19.979Z" transform="translate(95.59 -6.265)"></path>
          <path id="Pfad_128" data-name="Pfad 128" d="M43.27,22.23A2.643,2.643,0,0,1,47,21.918l8.51,7.187a2.644,2.644,0,1,1-3.412,4.04l-8.51-7.187A2.645,2.645,0,0,1,43.27,22.23Z" transform="translate(89.987 -2.316)"></path>
          <path id="Pfad_129" data-name="Pfad 129" d="M38.985,76.4a2.642,2.642,0,0,1,3.641-.86L49.5,79.782a2.645,2.645,0,1,1-2.78,4.5l-6.879-4.244A2.645,2.645,0,0,1,38.985,76.4Z" transform="translate(106.404 86.278)"></path>
          <path id="Pfad_130" data-name="Pfad 130" d="M45.018,77.734l6.459,4.3a2.646,2.646,0,1,1-2.936,4.4l-6.455-4.3a2.644,2.644,0,1,1,2.932-4.4Z" transform="translate(98.382 89.812)"></path>
        </g>
      </g>
    </g>
    <path id="Pfad_334" data-name="Pfad 334" d="M37.695,8.708c-.14-5.608-1.612-6.87-7.221-6.45L19.047,3.17l.421-33.721c.07-5.608-1.332-6.87-6.94-6.45l-3.716.28c-5.679.421-6.94,1.893-6.59,7.571L4.535,11.3c.351,5.608,1.823,6.94,7.431,6.52l19-1.4C36.643,16,37.905,14.6,37.695,8.708Zm17.877-6.38c17.176-.771,25.939-9.534,25.939-22.083,0-10.8-10.165-16.545-24.046-16.545a54.532,54.532,0,0,0-10.235.841c-5.118.911-6.73,2.874-6.59,8.132l.981,38.208c.14,5.679,1.542,7.011,7.221,7.011,5.819,0,7.151-1.332,7.011-6.94Zm1.472-11.5a16.463,16.463,0,0,1-1.823-.07l-.351-12.549a17.192,17.192,0,0,1,5.468-.841c5.959,0,8.693,2.664,8.693,5.608C69.032-13.305,64.686-9.169,57.044-9.169ZM146.78,6.044c-.28-5.538-1.542-6.8-7.081-6.1L127.29,1.487l.351-31.337c.07-5.608-1.332-6.73-6.94-6.73h-1.963c-5.608,0-6.94,1.683-6.66,7.291L113.97,11.3c.28,5.608,1.753,6.94,7.361,6.52l18.718-1.332c5.679-.421,7.151-1.823,6.87-7.5ZM200.761-9.59c0-15.493-10.866-28.042-25.659-28.042-14.512,0-25.519,13.11-25.519,28.253,0,14.933,10.866,27.622,25.308,27.622C189.474,18.242,200.761,5.133,200.761-9.59ZM175.243,3.59c-7.221,0-10.516-5.258-10.516-11.918,0-6.52,4.417-12.269,10.726-12.269,5.889,0,9.675,5.538,9.675,12.058C185.127-2.088,181.552,3.59,175.243,3.59ZM230.977-.9c-4.767,0-9.815-1.893-9.815-6.66,0-4.276,3.085-8.132,8.833-9.815,6.1-1.823,6.8-2.8,6.31-9.114l-.631-7.922c-.14-1.4-.491-1.823-1.963-1.893a18.369,18.369,0,0,0-1.963-.07C214.362-36.37,204.337-21.3,204.337-7c0,12.97,8.272,25.308,26.78,25.308.981,0,1.963,0,3.015-.07,2.173-.14,2.8-.771,2.8-3.015l.07-14.021c0-2.454-.491-2.8-2.874-2.384A15.1,15.1,0,0,1,230.977-.9ZM268.9-9.87l11.638-15.283c3.435-4.487,3.085-6.38-1.542-9.464l-.421-.28c-4.7-3.085-6.66-2.8-10.1,1.753L256.986-18l.841-11.5c.421-5.538-.981-6.94-6.52-6.59l-3.505.21c-5.608.351-6.94,1.823-6.73,7.431l1.683,40.1c.21,5.468,1.683,6.66,7.081,5.889,5.679-.841,6.941-2.313,7.011-7.922l.21-11.638L272.9,15.088c3.856,4.136,5.819,4.206,10.025.491l1.262-1.192c4.066-3.856,4.206-5.608.21-9.464ZM324.568,7.867c-.28-4.7-1.683-5.749-6.31-5.188L304.1,4.432l-.28-7.011,12.409-1.332c3.926-.421,4.557-1.4,4.557-5.328,0-4-1.332-4.907-5.188-4.557l-12.479,1.122-.28-6.239L317-19.965c5.679-.421,6.87-1.893,6.87-7.571v-2.944c0-5.608-1.542-6.87-7.151-6.31L296.876-34.9c-5.679.561-6.94,2.033-6.66,7.712l2.033,39.119c.28,5.538,1.753,6.8,7.291,5.889l19.7-3.085C323.937,14.036,324.849,12.7,324.568,7.867Zm12.9,9.534c27.131,0,39.68-12.97,39.68-26.009,0-15.423-13.04-26.71-36.946-26.71a55.631,55.631,0,0,0-5.959.28c-4.487.421-5.679,1.823-5.468,6.38l2.1,42.624c.14,2.454.771,3.155,3.295,3.295C335.294,17.331,336.346,17.4,337.468,17.4ZM347.773.856c-.771,0-1.612-.07-2.454-.14L345.74-19.9c10.235.14,16.615,4.276,16.615,10.8C362.355-2.439,356.536.856,347.773.856Z" transform="translate(1171.273 4416.16)" fill="#101010"></path>
  </g>
</svg>
