<?xml version="1.0" encoding="UTF-8"?>
<svg xmlns="http://www.w3.org/2000/svg" width="611.951" height="503.484" viewBox="0 0 611.951 503.484">
  <g id="Gruppe_42" data-name="Gruppe 42" transform="translate(-394.049 -4401.5)">
    <g id="Gruppe_40" data-name="Gruppe 40" transform="translate(-691.228 742)">
      <g id="Rechteck_16" data-name="Rechteck 16" transform="translate(1145.228 3659.5)" fill="none" stroke="#000" stroke-width="2">
        <rect width="552" height="497" rx="30" stroke="none"></rect>
        <rect x="1" y="1" width="550" height="495" rx="29" fill="none"></rect>
      </g>
      <g id="food_1_" data-name="food (1)" transform="translate(1085.278 3890.368)">
        <g id="a" transform="translate(2.077 4.578)">
          <path id="Pfad_161" data-name="Pfad 161" d="M148.634,68.306v54.613H12.1a9.129,9.129,0,0,1-9.1-9.1V68.306A27.328,27.328,0,0,1,30.306,41h91.021A27.328,27.328,0,0,1,148.634,68.306Z" transform="translate(6.102 141.042)" fill="#f0c000"></path>
          <path id="Pfad_162" data-name="Pfad 162" d="M164.838,10.1a8.9,8.9,0,0,1-2.685,6.417,8.9,8.9,0,0,1-6.417,2.685H10.1A9.129,9.129,0,0,1,1,10.1,8.9,8.9,0,0,1,3.685,3.685,8.9,8.9,0,0,1,10.1,1H155.736A9.129,9.129,0,0,1,164.838,10.1Z" transform="translate(-1 -1)" fill="#f0c000"></path>
          <path id="Pfad_163" data-name="Pfad 163" d="M148.634,5V86.919a13.635,13.635,0,0,0-13.653-13.653,13.138,13.138,0,0,0-4.642.865c0-.273.091-.592.091-.865a13.624,13.624,0,0,0-18.75-12.652,13.519,13.519,0,0,0-23.074-5.689,13.6,13.6,0,0,0-25.577,0,13.594,13.594,0,0,0-23.62,9.239c0,.273.091.592.091.865a13.139,13.139,0,0,0-4.642-.865,13.533,13.533,0,0,0-13.107,10.1A13.624,13.624,0,0,0,3,86.919V5Z" transform="translate(6.102 13.204)" fill="#71b9e8"></path>
          <path id="Pfad_164" data-name="Pfad 164" d="M148.634,54.96V77.715a40.963,40.963,0,0,1-40.96,40.96H43.96A40.963,40.963,0,0,1,3,77.715V54.96A13.624,13.624,0,0,1,21.75,42.308,13.533,13.533,0,0,1,34.857,32.2a13.139,13.139,0,0,1,4.642.865c0-.273-.091-.592-.091-.865a13.594,13.594,0,0,1,23.62-9.239,13.6,13.6,0,0,1,25.577,0,13.519,13.519,0,0,1,23.074,5.689,13.624,13.624,0,0,1,18.75,12.652c0,.273-.091.592-.091.865a13.139,13.139,0,0,1,4.642-.865A13.635,13.635,0,0,1,148.634,54.96Z" transform="translate(6.102 45.164)" fill="#c96946"></path>
          <path id="Pfad_165" data-name="Pfad 165" d="M12,37H75.715V55.2H12Z" transform="translate(38.062 126.838)" fill="#526666"></path>
          <path id="Pfad_166" data-name="Pfad 166" d="M137.308,83.857H35V52h86.561a13.686,13.686,0,0,1,12.561,8.283l7.373,17.249A4.523,4.523,0,0,1,137.308,83.857Z" transform="translate(119.736 180.104)" fill="#ed8b13"></path>
          <path id="Pfad_167" data-name="Pfad 167" d="M116.919,73.225H35v-18.2c9.1-13.653,22.755-4.551,22.755-4.551,13.653-9.1,22.755-1.411,22.755-1.411,18.2-4.551,22.755,9.1,22.755,9.1C116.919,62.712,116.919,73.225,116.919,73.225Z" transform="translate(119.736 158.879)" fill="#c96946"></path>
        </g>
        <g id="b" transform="translate(0 0)">
          <path id="Pfad_168" data-name="Pfad 168" d="M43.862,184.007c-8.988-.569-19.6,2.153-25.932,9.33-6.868,6.849-8.888,16.748-8.2,26.091l.177,26.61v13.307a11.009,11.009,0,0,0,9.621,10.982c17.7,0,113.44,1.939,133.273,2.28a8.247,8.247,0,0,0,4.578-1.293c19.369-.742,38.739-1.051,58.108-1.042l29.068.086,14.536.237a6.961,6.961,0,0,0,4.729-1.393,6.773,6.773,0,0,0,2.553-4.533c.246-3.286-1.547-5.3-2.348-7.951L258.6,243.075a16.619,16.619,0,0,0-13.89-9.516c-.724-.018-1.47-.041-2.2-.059-2.462-6.872-8.624-11.4-15.455-13.553a18.206,18.206,0,0,0-3.928-5.188c-5.215-5.038-12.93-5.689-19.774-4.492-6.758-4.97-15.774-4.292-23.078-.783a19.793,19.793,0,0,0-18.9-.765c-3.177-17.353-18.7-28.126-37.678-26.059l-2.926.05-.578-12.474c22.987-2.89,40.928-22.409,39.153-47.031q.266-48.489,1.989-96.974C174.919,22.39,173.558.481,157.361.03L156,.017l-2.722-.023L142.383,0C114.449.258,40.631,1.778,11.722,2.388a11.31,11.31,0,0,0-10.4,7.2c-2.38,5.652.965,12.11,6.3,14.295C6.644,56.991,7.349,90.1,7.768,123.2c-1.265,25.627,16.68,45.133,40.482,47.786l.6,12.939c-2.931.05-4.988.082-4.988.082Zm209.854,61.48,6.071,13.052c.432,1.192,2.421,4.719,2.262,5.684a2.5,2.5,0,0,1-2.949,2.253c-31.794.492-65.927.523-97.811-.61a8.225,8.225,0,0,0,.191-.942c.141-1.743.027-2.371.1-3.773.086-6.572.2-13.407.278-20.252,17.881.71,35.762.127,53.639-.232l28.922-.824A10.682,10.682,0,0,1,253.716,245.487ZM178.578,217.48a3.555,3.555,0,0,0,3.7-.314,23.178,23.178,0,0,1,9.371-4.647,14.289,14.289,0,0,1,10.158,1.811c2.312.828,5.234-1.12,7.755-.856A14.488,14.488,0,0,1,220.6,217.4c2.23,1.675,2.681,5.379,4.31,6.108,4.455,1.6,8.938,5.27,10.062,9.789-23.957-.7-49.465-1.716-73.049-.851.027-4.351.036-8.656,0-12.87a13.124,13.124,0,0,1,6.522-3.882c3.168-.787,7.3.273,10.122,1.789ZM130.3,190.67c11.446.1,21.6,9.625,22.4,21.026.187,14.846.018,31.157.391,46.13l.091,6.2a.442.442,0,0,1-.378.432l-9.462.178a84.083,84.083,0,0,0-.478-23.411c-3.686-5.2-3.236,11.81-3.45,13.653.109.942.046,5.925.464,9.821l-10.395.2a75.008,75.008,0,0,0-.469-22.15c-3.932-5.68-3.391,15.619-2.785,16.985a45.75,45.75,0,0,1,.537,5.22l-11.141.209a66.518,66.518,0,0,0-.46-20.894c-4.178-6.162-3.923,19.629-2.125,20.316a2.3,2.3,0,0,1,.218.623l-11.491.214a58.544,58.544,0,0,0-.451-19.633c-3.422-5.147-4.091,11.742-2.926,19.7l-8.52.159a49.37,49.37,0,0,0-.492-18.341c-3.427-4.915-4.073,10.932-2.894,18.4l-8.551.159a42.722,42.722,0,0,0-.492-17.048c-3.413-4.665-4.064,10.131-2.89,17.112l-8.6.159a37.565,37.565,0,0,0-.451-15.756c-3.391-4.4-4.069,9.339-2.908,15.82l-16.229.3c-8.77.159-17.963.187-26.392.15a7.308,7.308,0,0,1-6.444-7.259c-.046-8.492.123-31.148.182-39.917-1.274-12.779,4.993-25.554,17.713-29.227,3.9-1.252,7.851-1.07,12.443-.983l26.61.437,53.22.915,6.608.1ZM141.378,88.758c-1.552-8.815-11.155-15.187-19.856-12.6-3.459-9.1-15.7-12.443-23.474-6.781C92.581,59.367,77.531,58.917,71,68.046c-9.352-6.813-23.656-1.183-26.373,9.885A18.279,18.279,0,0,0,27.9,86.651a17.979,17.979,0,0,0-11.783,2.385c.25-21.449.337-42.9-.282-64.352,3.9-.036,9.052-.082,10.859-.091C55.158,24.306,121.062,26,153.4,26.763c.81,22.423,1.293,44.846,1.6,67.269a16.1,16.1,0,0,0-13.621-5.27Zm-129.655-82c34.629.655,107.664,2.408,141.556,2.394.846-.009,3.281-.027,4.082-.036,6.321.077,6.208,9.348,0,9.589-37.387.806-107.737,2.867-144.278,2.153-10.213.978-11.51-13.667-1.356-14.1ZM15.677,123.2q.123-9.619.259-19.233c.9-5.853,7.2-10.017,12.816-7.7a4.5,4.5,0,0,0,6.1-3.04,9.314,9.314,0,0,1,12-6.649,4.106,4.106,0,0,0,2.075.287,3.846,3.846,0,0,0,3.309-4.319c-1.242-9.216,11.018-14.723,17.4-7.873a3.03,3.03,0,0,0,1.356.892A2.819,2.819,0,0,0,74.509,73.7c3.045-9.839,17.258-10.058,20.921-.319a1.98,1.98,0,0,0,3.354.669c5.807-7.15,18.068-3.9,20.052,5.006a1.706,1.706,0,0,0,2.23.928c7.573-3.336,16.985,3.636,15.465,11.755a2.4,2.4,0,0,0,3.427,2.539c5.985-2.722,13.034,1.074,15.132,7.027.086,7.3.237,14.6.278,21.891,2.148,26.537-19.62,46.2-45.725,43.221-12.515-.036-37.7-.369-50.212-.619-25.718,1.952-45.811-16.375-43.754-42.6ZM57.106,171.15c.778-.05,1.543-.046,2.326-.132,12.511-.25,37.7-.587,50.212-.619.992.1,1.966.091,2.945.127l-.569,12.338-41.547.71s-7.091.118-13.954.228Z" transform="translate(-0.544 0.006)" fill="#232323"></path>
          <path id="Pfad_169" data-name="Pfad 169" d="M25.285,39.7a5.478,5.478,0,0,0-.1-7.746,3.834,3.834,0,0,1-.046-5.074c2.371-3.327,7.582-2.039,8.7,1.452.655,1.4.337,2.412,1.406,3.623l1.32,1.5a4.033,4.033,0,0,0,6.831-1.5c1.083-3.563-1.2-7.286-3.928-9.248-8.7-5.4-18.659-.46-22.428,9.248l-.76,1.893C14.008,39.217,21.221,44,25.285,39.7Z" transform="translate(53.786 72.748)" fill="#232323"></path>
          <path id="Pfad_170" data-name="Pfad 170" d="M34.389,35.954c1.083-3.563-1.2-7.286-3.928-9.248-8.7-5.4-18.659-.46-22.428,9.248l-.76,1.893C5.007,43.217,12.22,48,16.284,43.7a5.478,5.478,0,0,0-.1-7.746,3.834,3.834,0,0,1-.046-5.074c2.371-3.327,7.582-2.039,8.7,1.452.655,1.4.337,2.412,1.406,3.623l1.32,1.5A4.033,4.033,0,0,0,34.389,35.954Z" transform="translate(21.823 86.952)" fill="#232323"></path>
          <path id="Pfad_171" data-name="Pfad 171" d="M34.285,43.7a5.478,5.478,0,0,0-.1-7.746,3.834,3.834,0,0,1-.046-5.074c2.371-3.327,7.582-2.039,8.7,1.452.655,1.4.337,2.412,1.406,3.623l1.32,1.5a4.033,4.033,0,0,0,6.831-1.5c1.083-3.563-1.2-7.286-3.928-9.248-8.7-5.4-18.659-.46-22.428,9.248l-.76,1.893C23.008,43.217,30.221,48,34.285,43.7Z" transform="translate(85.746 86.952)" fill="#232323"></path>
          <path id="Pfad_172" data-name="Pfad 172" d="M25.285,47.7a5.478,5.478,0,0,0-.1-7.746,3.834,3.834,0,0,1-.046-5.074c2.371-3.327,7.582-2.039,8.7,1.452.655,1.4.337,2.412,1.406,3.623l1.32,1.5a4.033,4.033,0,0,0,6.831-1.5c1.083-3.563-1.2-7.286-3.928-9.248-8.7-5.4-18.659-.46-22.428,9.248l-.76,1.893C14.008,47.217,21.221,52,25.285,47.7Z" transform="translate(53.786 101.156)" fill="#232323"></path>
        </g>
      </g>
      <path id="Pfad_331" data-name="Pfad 331" d="M20.7-24.781c3.436,0,6.46,1.168,6.46,5.154,0,4.33-5.635,7.56-12.576,8.659L13.067-23.475A27.568,27.568,0,0,1,20.7-24.781ZM31.76-6.638c6.048-4.123,9.553-8.865,9.553-14.638,0-11-11.889-15.119-24.947-15.119a65.281,65.281,0,0,0-8.178.481c-5.292.619-6.8,2.268-6.666,7.628l1.031,39.1C2.69,16.247,4.2,17.69,9.493,16.66l1.374-.275c5.429-1.1,6.666-2.337,6.048-7.834l-.825-7.491a34.61,34.61,0,0,0,5.635-2.405l5.5,12.851c2.2,5.017,3.986,5.7,8.865,3.161l2.337-1.237c4.811-2.474,5.223-4.33,1.993-8.659ZM81.515,5.733C81.172.235,79.729-1,74.231-.453L62.548.716,61.517-6.706l9.071-.756c4.33-.412,5.292-1.581,4.879-5.91-.412-4.467-1.581-5.429-5.979-5.086l-9.346.687-.687-7.01,13.057-1.512c4.673-.55,5.773-1.856,5.429-6.6-.412-4.811-1.649-5.841-6.323-5.292L51.9-35.845c-5.5.687-6.666,2.13-6.254,7.7L48.459,8.413c.412,5.567,1.856,6.872,7.422,6.941l19.311.344c5.5.069,6.666-1.306,6.46-6.8Zm49.893-34.98c.481-5.429-.825-6.666-6.254-6.46l-3.5.137c-5.5.206-6.8,1.787-6.6,7.285l.756,19.311L105.362-28.767c-2.611-5.017-4.33-5.7-9.9-4.811l-2.543.412c-5.567.893-6.666,2.611-6.529,8.178l.825,32.781c.137,5.567,1.512,7.01,7.01,7.56l1.1.137c5.36.55,6.735-.756,6.529-6.185L100.9-11.586l16.631,25.84c1.718,2.68,2.818,3.161,5.979,2.543,3.23-.687,3.986-1.512,4.261-4.673Zm30.444-7.628c-16.494,0-26.184,12.439-26.184,27.421a25.166,25.166,0,0,0,25.29,25.428c14.294,0,27.077-9.965,27.077-25.909C188.037-23.887,178.69-36.876,161.853-36.876Zm.206,39.928c-7.56,0-11.064-5.635-11.064-11.408,0-7.147,4.33-12.027,11-12.027,6.6,0,10.1,5.7,10.1,11.064C172.093-2.033,168.176,3.052,162.059,3.052Zm61.37-23.435c0,11.614-1.924,19.792-7.972,19.792-5.36,0-7.7-8.522-7.7-21.236,0-2.062.137-4.536.344-6.872.619-5.7-.275-6.8-5.979-7.422l-2.062-.275c-5.429-.687-7.01.756-7.491,6.116-.275,3.024-.481,6.116-.481,8.8,0,21.373,7.079,39.722,22.129,39.722,16.287,0,21.3-20.136,21.3-38.966,0-3.367-.137-6.735-.412-9.9-.481-4.742-1.856-5.979-6.6-5.5-5.086.412-6.048,1.649-5.567,6.6C223.223-26.7,223.429-23.612,223.429-20.382Zm62.538-8.865c.481-5.429-.825-6.666-6.254-6.46l-3.5.137c-5.5.206-6.8,1.787-6.6,7.285l.756,19.311L259.921-28.767c-2.611-5.017-4.33-5.7-9.9-4.811l-2.543.412c-5.567.893-6.666,2.611-6.529,8.178l.825,32.781c.137,5.567,1.512,7.01,7.01,7.56l1.1.137c5.36.55,6.735-.756,6.529-6.185l-.962-20.892,16.631,25.84c1.718,2.68,2.818,3.161,5.979,2.543,3.23-.687,3.986-1.512,4.261-4.673ZM316.412.235c-5.841,0-10.858-3.5-10.858-11.408,0-5.429,3.917-10.721,12.576-10.721a11.836,11.836,0,0,1,2.68.275c2.2.55,2.612.275,3.3-1.787l1.787-5.086c1.306-3.711.481-5.223-3.436-6.048a29.571,29.571,0,0,0-5.36-.55c-18.349,0-27.352,13.882-27.352,26.527,0,13.676,10.858,24.947,26.665,24.947a38.2,38.2,0,0,0,6.666-.619c4.879-.962,5.91-2.749,4.467-7.422L325.689,2.5c-1.031-3.3-1.718-3.711-5.086-2.818A17.552,17.552,0,0,1,316.412.235Zm52.092,5.5C368.16.235,366.717-1,361.219-.453L349.536.716l-1.031-7.422,9.071-.756c4.33-.412,5.292-1.581,4.879-5.91-.412-4.467-1.581-5.429-5.979-5.086l-9.346.687-.687-7.01L359.5-26.293c4.673-.55,5.773-1.856,5.429-6.6-.412-4.811-1.649-5.841-6.323-5.292l-19.724,2.337c-5.5.687-6.666,2.13-6.254,7.7l2.818,36.561c.412,5.567,1.856,6.872,7.422,6.941l19.311.344c5.5.069,6.666-1.306,6.46-6.8Zm10.79,11.546c20.067,0,39.31-11.133,39.31-27.146s-15.257-24.191-35.942-24.191c-1.443,0-2.955,0-4.4.069-3.436.137-4.261,1.031-4.33,4.467l-.412,43.708c0,2.268.55,2.886,2.818,3.024C377.3,17.278,378.332,17.278,379.294,17.278ZM386.647,1.54l1.031-22.266c.412,0,.825-.069,1.168-.069,8.8,0,13.264,5.223,13.264,10.583C402.11-4.439,396.956,1.472,386.647,1.54Z" transform="translate(1200.927 3798.153)" fill="#101010"></path>
      <g id="Ellipse_10" data-name="Ellipse 10" transform="translate(1463 3919)" fill="#ffdd5f" stroke="#000" stroke-width="2" stroke-dasharray="11">
        <circle cx="98" cy="98" r="98" stroke="none"></circle>
        <circle cx="98" cy="98" r="97" fill="none"></circle>
      </g>
    </g>
    <path id="Pfad_351" data-name="Pfad 351" d="M-57.036,42.28c6.216,0,13.608-2.324,13.608-7.168,0-2.968-2.352-4.424-5.74-4.732,2.24-1.512,3.528-2.912,3.528-4.816,0-2.968-3.752-4.508-8.68-4.508a27.523,27.523,0,0,0-5.068.5c-2.128.42-2.688,1.12-2.548,3.276l.924,15.316c.084,1.484.532,1.932,2.016,2.044C-58.38,42.252-57.708,42.28-57.036,42.28Zm1.064-12.516-.364-4.088a4.221,4.221,0,0,1,1.9-.448c1.54,0,2.688.644,2.688,1.9C-51.744,28.588-53.676,29.708-55.972,29.764Zm.98,7.924-.392-3.724a6.463,6.463,0,0,1,2.548-.476c1.512,0,2.6.448,2.6,1.624C-50.232,36.68-52.472,37.632-54.992,37.688Zm25.76-9.576c0,4.648-.812,7.56-3,7.56-2.1,0-2.884-3.752-2.884-9.464,0-.756.028-1.512.056-2.212.084-1.764-.252-2.184-2.016-2.324l-3.276-.252c-1.512-.112-1.96.224-2.044,1.736-.028.672-.056,1.316-.056,1.988,0,9.352,3.64,17.92,9.52,17.92,6.524,0,8.792-7.532,8.792-16.828q0-1.3-.084-2.52c-.112-1.96-.644-2.464-2.6-2.492h-.28c-2.184,0-2.66.5-2.408,2.66A36.13,36.13,0,0,1-29.232,28.112Zm19.46,5.8,5.012-8.792c1.092-1.932.868-2.772-1.26-3.416l-.28-.084c-2.128-.784-2.884-.5-3.892,1.512l-2.772,5.4-3.836-5.74c-1.26-1.876-2.044-2.072-3.892-.756l-1.064.756c-1.848,1.26-1.988,2.016-.616,3.78l5.684,7.364-.2,5.656c-.056,2.24.476,2.8,2.716,2.856l1.708.028c2.24.056,2.8-.5,2.772-2.744Zm28.9-7.168,1.68-.084c2.24-.084,2.772-.644,2.772-2.884,0-2.268-.588-2.8-2.8-2.66l-10.864.672c-2.072.14-2.52.672-2.3,2.744.224,2.128.784,2.6,2.856,2.548l1.988-.056-.112,12.544c-.028,2.268.5,2.856,2.772,3.08l.28.028c2.24.224,2.828-.28,2.968-2.52ZM29.2,34.86l1.6-6.8,1.988,6.58Zm5.6-11.48c-.812-2.156-1.484-2.66-4.144-2.744-2.3-.056-2.968.392-3.64,2.576L22.008,39.34c-.672,2.1-.28,2.772,1.9,3.192l.84.14c2.212.42,2.856,0,3.332-2.212l.336-1.484,5.544-.392.476,1.6c.644,2.156,1.344,2.548,4.256,1.708,2.128-.616,2.492-1.316,1.708-3.416Zm21.252,8.008,4.928-6.048c1.372-1.708,1.232-2.464-.728-3.444l-1.2-.588c-2.016-1.036-2.8-.812-4.06,1.064L51.6,27.328l-3.668-3.836c-1.568-1.652-2.38-1.736-4.312-.56l-.42.28c-1.876,1.148-1.96,1.9-.476,3.5l5.124,5.46-5.04,5.292c-1.512,1.568-1.4,2.324.5,3.388L45.3,41.944c1.988,1.092,2.744.924,3.976-.952l2.884-4.312,3.416,3.5c1.568,1.624,2.38,1.708,4.06.168l1.316-1.2c1.652-1.456,1.652-2.212-.028-3.64Z" transform="translate(873.778 4756.387) rotate(41)" fill="#101010"></path>
    <path id="Pfad_352" data-name="Pfad 352" d="M34.609-19.186c0-11.66-6.1-21.094-16.271-21.094-10.07,0-16.483,9.063-16.483,20.034C1.855-8.109,8,1.59,18.02,1.59,30,1.59,34.609-9.275,34.609-19.186Zm-16.43,9.169c-4.558,0-5.83-4.4-5.83-8.056,0-5.406,2.65-9.063,7.208-9.063,2.915,0,5.247,2.332,5.247,7C24.8-15.688,23.108-10.017,18.179-10.017ZM56.816-28.461c0-7.314-3.816-13.2-10.176-13.2-6.307,0-10.335,5.671-10.335,12.561,0,7.579,3.869,13.674,10.123,13.674C53.9-15.423,56.816-22.26,56.816-28.461ZM75.366-34.4c1.643-2.756,1.378-3.816-1.325-5.459-2.756-1.7-3.869-1.431-5.459,1.272L49.078-5.512C47.435-2.7,47.7-1.59,50.3.318c2.65,1.961,3.71,1.749,5.3-1.007ZM46.534-22.684c-2.862,0-3.657-2.756-3.657-5.088,0-3.392,1.643-5.671,4.505-5.671,1.855,0,3.286,1.484,3.286,4.4C50.668-26.235,49.608-22.684,46.534-22.684ZM77.327,2.332c7.473,0,10.388-6.837,10.388-13.038,0-7.314-3.816-13.2-10.176-13.2C71.232-23.9,67.2-18.232,67.2-11.342,67.2-3.763,71.073,2.332,77.327,2.332Zm.106-7.261c-2.862,0-3.657-2.756-3.657-5.088,0-3.392,1.643-5.671,4.5-5.671,1.855,0,3.286,1.484,3.286,4.4C81.567-8.48,80.507-4.929,77.433-4.929Z" transform="matrix(0.719, 0.695, -0.695, 0.719, 840, 4726)" fill="#101010"></path>
  </g>
</svg>
