<?xml version="1.0" encoding="UTF-8"?>
<svg xmlns="http://www.w3.org/2000/svg" width="1613" height="272.616" viewBox="0 0 1613 272.616">
  <g id="Gruppe_46" data-name="Gruppe 46" transform="translate(-153 -1233.066)">
    <g id="Gruppe_30" data-name="Gruppe 30">
      <g id="Rechteck_9" data-name="Rechteck 9" transform="translate(261.083 1242)" fill="none" stroke="#000" stroke-width="2">
        <rect width="744" height="256" rx="30" stroke="none"></rect>
        <rect x="1" y="1" width="742" height="254" rx="29" fill="none"></rect>
      </g>
      <line id="Linie_1" data-name="Linie 1" y2="256" transform="translate(723.083 1242.5)" fill="none" stroke="#000" stroke-width="2"></line>
      <path id="Pfad_229" data-name="Pfad 229" d="M15.19-28.665c2.45,0,4.606.833,4.606,3.675,0,3.087-4.018,5.39-8.967,6.174L9.751-27.734A19.656,19.656,0,0,1,15.19-28.665Zm7.889,12.936c4.312-2.94,6.811-6.321,6.811-10.437,0-7.84-8.477-10.78-17.787-10.78a46.545,46.545,0,0,0-5.831.343c-3.773.441-4.851,1.617-4.753,5.439L2.254-3.283C2.352.588,3.43,1.617,7.2.882l.98-.2C12.054-.1,12.936-.98,12.495-4.9l-.588-5.341a24.677,24.677,0,0,0,4.018-1.715l3.92,9.163C21.413.784,22.687,1.274,26.166-.539l1.666-.882c3.43-1.764,3.724-3.087,1.421-6.174Zm35.476,8.82c-.245-3.92-1.274-4.8-5.194-4.41l-8.33.833L44.3-15.778l6.468-.539c3.087-.294,3.773-1.127,3.479-4.214-.294-3.185-1.127-3.871-4.263-3.626l-6.664.49-.49-5,9.31-1.078c3.332-.392,4.116-1.323,3.871-4.7-.294-3.43-1.176-4.165-4.508-3.773L37.436-36.554c-3.92.49-4.753,1.519-4.459,5.488L34.986-5c.294,3.969,1.323,4.9,5.292,4.949L54.047.2c3.92.049,4.753-.931,4.606-4.851ZM94.129-31.85c.343-3.871-.588-4.753-4.459-4.606l-2.5.1c-3.92.147-4.851,1.274-4.7,5.194l.539,13.769L75.558-31.507c-1.862-3.577-3.087-4.067-7.056-3.43l-1.813.294c-3.969.637-4.753,1.862-4.655,5.831l.588,23.373c.1,3.969,1.078,5,5,5.39l.784.1c3.822.392,4.8-.539,4.655-4.41l-.686-14.9L84.231-.833C85.456,1.078,86.24,1.421,88.494.98,90.8.49,91.336-.1,91.532-2.352Zm21.707-5.439c-11.76,0-18.669,8.869-18.669,19.551A17.944,17.944,0,0,0,115.2.392c10.192,0,19.306-7.1,19.306-18.473C134.505-28.028,127.841-37.289,115.836-37.289Zm.147,28.469c-5.39,0-7.889-4.018-7.889-8.134,0-5.1,3.087-8.575,7.84-8.575,4.7,0,7.2,4.067,7.2,7.889C123.137-12.446,120.344-8.82,115.983-8.82ZM159.74-25.529c0,8.281-1.372,14.112-5.684,14.112-3.822,0-5.488-6.076-5.488-15.141,0-1.47.1-3.234.245-4.9.441-4.067-.2-4.851-4.263-5.292l-1.47-.2c-3.871-.49-5,.539-5.341,4.361-.2,2.156-.343,4.361-.343,6.272,0,15.239,5.047,28.322,15.778,28.322,11.613,0,15.19-14.357,15.19-27.783,0-2.4-.1-4.8-.294-7.056-.343-3.381-1.323-4.263-4.7-3.92-3.626.294-4.312,1.176-3.969,4.7C159.593-30.037,159.74-27.832,159.74-25.529Zm44.59-6.321c.343-3.871-.588-4.753-4.459-4.606l-2.5.1c-3.92.147-4.851,1.274-4.7,5.194l.539,13.769-7.448-14.112c-1.862-3.577-3.087-4.067-7.056-3.43l-1.813.294c-3.969.637-4.753,1.862-4.655,5.831l.588,23.373c.1,3.969,1.078,5,5,5.39l.784.1c3.822.392,4.8-.539,4.655-4.41l-.686-14.9L194.432-.833c1.225,1.911,2.009,2.254,4.263,1.813,2.3-.49,2.842-1.078,3.038-3.332Zm21.707,21.021c-4.165,0-7.742-2.5-7.742-8.134,0-3.871,2.793-7.644,8.967-7.644a8.439,8.439,0,0,1,1.911.2c1.568.392,1.862.2,2.352-1.274l1.274-3.626c.931-2.646.343-3.724-2.45-4.312a21.084,21.084,0,0,0-3.822-.392c-13.083,0-19.5,9.9-19.5,18.914,0,9.751,7.742,17.787,19.012,17.787A27.239,27.239,0,0,0,230.79.245c3.479-.686,4.214-1.96,3.185-5.292l-1.323-4.165c-.735-2.352-1.225-2.646-3.626-2.009A12.515,12.515,0,0,1,226.037-10.829Zm37.142,3.92c-.245-3.92-1.274-4.8-5.194-4.41l-8.33.833-.735-5.292,6.468-.539c3.087-.294,3.773-1.127,3.479-4.214-.294-3.185-1.127-3.871-4.263-3.626l-6.664.49-.49-5,9.31-1.078c3.332-.392,4.116-1.323,3.871-4.7-.294-3.43-1.176-4.165-4.508-3.773L242.06-36.554c-3.92.49-4.753,1.519-4.459,5.488L239.61-5c.294,3.969,1.323,4.9,5.292,4.949L258.671.2c3.92.049,4.753-.931,4.606-4.851Zm7.693,8.232c14.308,0,28.028-7.938,28.028-19.355S288.022-35.28,273.273-35.28c-1.029,0-2.107,0-3.136.049-2.45.1-3.038.735-3.087,3.185L266.756-.882c0,1.617.392,2.058,2.009,2.156C269.451,1.323,270.186,1.323,270.872,1.323ZM276.115-9.9l.735-15.876c.294,0,.588-.049.833-.049,6.272,0,9.457,3.724,9.457,7.546C287.14-14.161,283.465-9.947,276.115-9.9Z" transform="translate(358.5 1390)" fill="#101010"></path>
      <g id="food_1_" data-name="food (1)" transform="translate(153 1233.066)">
        <g id="a" transform="translate(2.077 4.578)">
          <path id="Pfad_161" data-name="Pfad 161" d="M148.634,68.306v54.613H12.1a9.129,9.129,0,0,1-9.1-9.1V68.306A27.328,27.328,0,0,1,30.306,41h91.021A27.328,27.328,0,0,1,148.634,68.306Z" transform="translate(6.102 141.042)" fill="#f0c000"></path>
          <path id="Pfad_162" data-name="Pfad 162" d="M164.838,10.1a8.9,8.9,0,0,1-2.685,6.417,8.9,8.9,0,0,1-6.417,2.685H10.1A9.129,9.129,0,0,1,1,10.1,8.9,8.9,0,0,1,3.685,3.685,8.9,8.9,0,0,1,10.1,1H155.736A9.129,9.129,0,0,1,164.838,10.1Z" transform="translate(-1 -1)" fill="#f0c000"></path>
          <path id="Pfad_163" data-name="Pfad 163" d="M148.634,5V86.919a13.635,13.635,0,0,0-13.653-13.653,13.138,13.138,0,0,0-4.642.865c0-.273.091-.592.091-.865a13.624,13.624,0,0,0-18.75-12.652,13.519,13.519,0,0,0-23.074-5.689,13.6,13.6,0,0,0-25.577,0,13.594,13.594,0,0,0-23.62,9.239c0,.273.091.592.091.865a13.139,13.139,0,0,0-4.642-.865,13.533,13.533,0,0,0-13.107,10.1A13.624,13.624,0,0,0,3,86.919V5Z" transform="translate(6.102 13.204)" fill="#71b9e8"></path>
          <path id="Pfad_164" data-name="Pfad 164" d="M148.634,54.96V77.715a40.963,40.963,0,0,1-40.96,40.96H43.96A40.963,40.963,0,0,1,3,77.715V54.96A13.624,13.624,0,0,1,21.75,42.308,13.533,13.533,0,0,1,34.857,32.2a13.139,13.139,0,0,1,4.642.865c0-.273-.091-.592-.091-.865a13.594,13.594,0,0,1,23.62-9.239,13.6,13.6,0,0,1,25.577,0,13.519,13.519,0,0,1,23.074,5.689,13.624,13.624,0,0,1,18.75,12.652c0,.273-.091.592-.091.865a13.139,13.139,0,0,1,4.642-.865A13.635,13.635,0,0,1,148.634,54.96Z" transform="translate(6.102 45.164)" fill="#c96946"></path>
          <path id="Pfad_165" data-name="Pfad 165" d="M12,37H75.715V55.2H12Z" transform="translate(38.062 126.838)" fill="#526666"></path>
          <path id="Pfad_166" data-name="Pfad 166" d="M137.308,83.857H35V52h86.561a13.686,13.686,0,0,1,12.561,8.283l7.373,17.249A4.523,4.523,0,0,1,137.308,83.857Z" transform="translate(119.736 180.104)" fill="#ed8b13"></path>
          <path id="Pfad_167" data-name="Pfad 167" d="M116.919,73.225H35v-18.2c9.1-13.653,22.755-4.551,22.755-4.551,13.653-9.1,22.755-1.411,22.755-1.411,18.2-4.551,22.755,9.1,22.755,9.1C116.919,62.712,116.919,73.225,116.919,73.225Z" transform="translate(119.736 158.879)" fill="#c96946"></path>
        </g>
        <g id="b" transform="translate(0 0)">
          <path id="Pfad_168" data-name="Pfad 168" d="M43.862,184.007c-8.988-.569-19.6,2.153-25.932,9.33-6.868,6.849-8.888,16.748-8.2,26.091l.177,26.61v13.307a11.009,11.009,0,0,0,9.621,10.982c17.7,0,113.44,1.939,133.273,2.28a8.247,8.247,0,0,0,4.578-1.293c19.369-.742,38.739-1.051,58.108-1.042l29.068.086,14.536.237a6.961,6.961,0,0,0,4.729-1.393,6.773,6.773,0,0,0,2.553-4.533c.246-3.286-1.547-5.3-2.348-7.951L258.6,243.075a16.619,16.619,0,0,0-13.89-9.516c-.724-.018-1.47-.041-2.2-.059-2.462-6.872-8.624-11.4-15.455-13.553a18.206,18.206,0,0,0-3.928-5.188c-5.215-5.038-12.93-5.689-19.774-4.492-6.758-4.97-15.774-4.292-23.078-.783a19.793,19.793,0,0,0-18.9-.765c-3.177-17.353-18.7-28.126-37.678-26.059l-2.926.05-.578-12.474c22.987-2.89,40.928-22.409,39.153-47.031q.266-48.489,1.989-96.974C174.919,22.39,173.558.481,157.361.03L156,.017l-2.722-.023L142.383,0C114.449.258,40.631,1.778,11.722,2.388a11.31,11.31,0,0,0-10.4,7.2c-2.38,5.652.965,12.11,6.3,14.295C6.644,56.991,7.349,90.1,7.768,123.2c-1.265,25.627,16.68,45.133,40.482,47.786l.6,12.939c-2.931.05-4.988.082-4.988.082Zm209.854,61.48,6.071,13.052c.432,1.192,2.421,4.719,2.262,5.684a2.5,2.5,0,0,1-2.949,2.253c-31.794.492-65.927.523-97.811-.61a8.225,8.225,0,0,0,.191-.942c.141-1.743.027-2.371.1-3.773.086-6.572.2-13.407.278-20.252,17.881.71,35.762.127,53.639-.232l28.922-.824A10.682,10.682,0,0,1,253.716,245.487ZM178.578,217.48a3.555,3.555,0,0,0,3.7-.314,23.178,23.178,0,0,1,9.371-4.647,14.289,14.289,0,0,1,10.158,1.811c2.312.828,5.234-1.12,7.755-.856A14.488,14.488,0,0,1,220.6,217.4c2.23,1.675,2.681,5.379,4.31,6.108,4.455,1.6,8.938,5.27,10.062,9.789-23.957-.7-49.465-1.716-73.049-.851.027-4.351.036-8.656,0-12.87a13.124,13.124,0,0,1,6.522-3.882c3.168-.787,7.3.273,10.122,1.789ZM130.3,190.67c11.446.1,21.6,9.625,22.4,21.026.187,14.846.018,31.157.391,46.13l.091,6.2a.442.442,0,0,1-.378.432l-9.462.178a84.083,84.083,0,0,0-.478-23.411c-3.686-5.2-3.236,11.81-3.45,13.653.109.942.046,5.925.464,9.821l-10.395.2a75.008,75.008,0,0,0-.469-22.15c-3.932-5.68-3.391,15.619-2.785,16.985a45.75,45.75,0,0,1,.537,5.22l-11.141.209a66.518,66.518,0,0,0-.46-20.894c-4.178-6.162-3.923,19.629-2.125,20.316a2.3,2.3,0,0,1,.218.623l-11.491.214a58.544,58.544,0,0,0-.451-19.633c-3.422-5.147-4.091,11.742-2.926,19.7l-8.52.159a49.37,49.37,0,0,0-.492-18.341c-3.427-4.915-4.073,10.932-2.894,18.4l-8.551.159a42.722,42.722,0,0,0-.492-17.048c-3.413-4.665-4.064,10.131-2.89,17.112l-8.6.159a37.565,37.565,0,0,0-.451-15.756c-3.391-4.4-4.069,9.339-2.908,15.82l-16.229.3c-8.77.159-17.963.187-26.392.15a7.308,7.308,0,0,1-6.444-7.259c-.046-8.492.123-31.148.182-39.917-1.274-12.779,4.993-25.554,17.713-29.227,3.9-1.252,7.851-1.07,12.443-.983l26.61.437,53.22.915,6.608.1ZM141.378,88.758c-1.552-8.815-11.155-15.187-19.856-12.6-3.459-9.1-15.7-12.443-23.474-6.781C92.581,59.367,77.531,58.917,71,68.046c-9.352-6.813-23.656-1.183-26.373,9.885A18.279,18.279,0,0,0,27.9,86.651a17.979,17.979,0,0,0-11.783,2.385c.25-21.449.337-42.9-.282-64.352,3.9-.036,9.052-.082,10.859-.091C55.158,24.306,121.062,26,153.4,26.763c.81,22.423,1.293,44.846,1.6,67.269a16.1,16.1,0,0,0-13.621-5.27Zm-129.655-82c34.629.655,107.664,2.408,141.556,2.394.846-.009,3.281-.027,4.082-.036,6.321.077,6.208,9.348,0,9.589-37.387.806-107.737,2.867-144.278,2.153-10.213.978-11.51-13.667-1.356-14.1ZM15.677,123.2q.123-9.619.259-19.233c.9-5.853,7.2-10.017,12.816-7.7a4.5,4.5,0,0,0,6.1-3.04,9.314,9.314,0,0,1,12-6.649,4.106,4.106,0,0,0,2.075.287,3.846,3.846,0,0,0,3.309-4.319c-1.242-9.216,11.018-14.723,17.4-7.873a3.03,3.03,0,0,0,1.356.892A2.819,2.819,0,0,0,74.509,73.7c3.045-9.839,17.258-10.058,20.921-.319a1.98,1.98,0,0,0,3.354.669c5.807-7.15,18.068-3.9,20.052,5.006a1.706,1.706,0,0,0,2.23.928c7.573-3.336,16.985,3.636,15.465,11.755a2.4,2.4,0,0,0,3.427,2.539c5.985-2.722,13.034,1.074,15.132,7.027.086,7.3.237,14.6.278,21.891,2.148,26.537-19.62,46.2-45.725,43.221-12.515-.036-37.7-.369-50.212-.619-25.718,1.952-45.811-16.375-43.754-42.6ZM57.106,171.15c.778-.05,1.543-.046,2.326-.132,12.511-.25,37.7-.587,50.212-.619.992.1,1.966.091,2.945.127l-.569,12.338-41.547.71s-7.091.118-13.954.228Z" transform="translate(-0.544 0.006)" fill="#232323"></path>
          <path id="Pfad_169" data-name="Pfad 169" d="M25.285,39.7a5.478,5.478,0,0,0-.1-7.746,3.834,3.834,0,0,1-.046-5.074c2.371-3.327,7.582-2.039,8.7,1.452.655,1.4.337,2.412,1.406,3.623l1.32,1.5a4.033,4.033,0,0,0,6.831-1.5c1.083-3.563-1.2-7.286-3.928-9.248-8.7-5.4-18.659-.46-22.428,9.248l-.76,1.893C14.008,39.217,21.221,44,25.285,39.7Z" transform="translate(53.786 72.748)" fill="#232323"></path>
          <path id="Pfad_170" data-name="Pfad 170" d="M34.389,35.954c1.083-3.563-1.2-7.286-3.928-9.248-8.7-5.4-18.659-.46-22.428,9.248l-.76,1.893C5.007,43.217,12.22,48,16.284,43.7a5.478,5.478,0,0,0-.1-7.746,3.834,3.834,0,0,1-.046-5.074c2.371-3.327,7.582-2.039,8.7,1.452.655,1.4.337,2.412,1.406,3.623l1.32,1.5A4.033,4.033,0,0,0,34.389,35.954Z" transform="translate(21.823 86.952)" fill="#232323"></path>
          <path id="Pfad_171" data-name="Pfad 171" d="M34.285,43.7a5.478,5.478,0,0,0-.1-7.746,3.834,3.834,0,0,1-.046-5.074c2.371-3.327,7.582-2.039,8.7,1.452.655,1.4.337,2.412,1.406,3.623l1.32,1.5a4.033,4.033,0,0,0,6.831-1.5c1.083-3.563-1.2-7.286-3.928-9.248-8.7-5.4-18.659-.46-22.428,9.248l-.76,1.893C23.008,43.217,30.221,48,34.285,43.7Z" transform="translate(85.746 86.952)" fill="#232323"></path>
          <path id="Pfad_172" data-name="Pfad 172" d="M25.285,47.7a5.478,5.478,0,0,0-.1-7.746,3.834,3.834,0,0,1-.046-5.074c2.371-3.327,7.582-2.039,8.7,1.452.655,1.4.337,2.412,1.406,3.623l1.32,1.5a4.033,4.033,0,0,0,6.831-1.5c1.083-3.563-1.2-7.286-3.928-9.248-8.7-5.4-18.659-.46-22.428,9.248l-.76,1.893C14.008,47.217,21.221,52,25.285,47.7Z" transform="translate(53.786 101.156)" fill="#232323"></path>
        </g>
      </g>
      <g id="Ellipse_9" data-name="Ellipse 9" transform="translate(764 1272)" fill="#ffdd5f" stroke="#000" stroke-width="2" stroke-dasharray="11">
        <circle cx="98" cy="98" r="98" stroke="none"></circle>
        <circle cx="98" cy="98" r="97" fill="none"></circle>
      </g>
      <g id="Rechteck_10" data-name="Rechteck 10" transform="translate(1105 1242)" fill="none" stroke="#000" stroke-width="2">
        <rect width="657" height="256" rx="30" stroke="none"></rect>
        <rect x="1" y="1" width="655" height="254" rx="29" fill="none"></rect>
      </g>
      <path id="Pfad_231" data-name="Pfad 231" d="M27-5.243c-.1-3.92-1.127-4.8-5.047-4.508l-7.987.637.294-23.569c.049-3.92-.931-4.8-4.851-4.508l-2.6.2C2.842-36.7,1.96-35.672,2.205-31.7L3.822-3.43C4.067.49,5.1,1.421,9.016,1.127L22.3.147C26.264-.147,27.146-1.127,27-5.243ZM39.494-9.7c12.005-.539,18.13-6.664,18.13-15.435,0-7.546-7.105-11.564-16.807-11.564a38.115,38.115,0,0,0-7.154.588c-3.577.637-4.7,2.009-4.606,5.684l.686,26.7c.1,3.969,1.078,4.9,5.047,4.9,4.067,0,5-.931,4.9-4.851Zm1.029-8.036a11.507,11.507,0,0,1-1.274-.049L39-26.558a12.016,12.016,0,0,1,3.822-.588c4.165,0,6.076,1.862,6.076,3.92C48.9-20.629,45.864-17.738,40.523-17.738Zm62.72,10.633c-.2-3.871-1.078-4.753-4.949-4.263L89.621-10.29l.245-21.9c.049-3.92-.931-4.7-4.851-4.7H83.643c-3.92,0-4.851,1.176-4.655,5.1L80.311-3.43c.2,3.92,1.225,4.851,5.145,4.557L98.539.2c3.969-.294,5-1.274,4.8-5.243Zm37.73-10.927c0-10.829-7.6-19.6-17.934-19.6-10.143,0-17.836,9.163-17.836,19.747,0,10.437,7.6,19.306,17.689,19.306C133.084,1.421,140.973-7.742,140.973-18.032ZM123.137-8.82c-5.047,0-7.35-3.675-7.35-8.33,0-4.557,3.087-8.575,7.5-8.575,4.116,0,6.762,3.871,6.762,8.428C130.046-12.789,127.547-8.82,123.137-8.82Zm38.955-3.136c-3.332,0-6.86-1.323-6.86-4.655,0-2.989,2.156-5.684,6.174-6.86,4.263-1.274,4.753-1.96,4.41-6.37l-.441-5.537c-.1-.98-.343-1.274-1.372-1.323a12.839,12.839,0,0,0-1.372-.049c-12.152,0-19.159,10.535-19.159,20.531,0,9.065,5.782,17.689,18.718,17.689.686,0,1.372,0,2.107-.049,1.519-.1,1.96-.539,1.96-2.107l.049-9.8c0-1.715-.343-1.96-2.009-1.666A10.552,10.552,0,0,1,162.092-11.956ZM188.6-18.228l8.134-10.682c2.4-3.136,2.156-4.459-1.078-6.615l-.294-.2c-3.283-2.156-4.655-1.96-7.056,1.225l-8.036,10.584.588-8.036c.294-3.871-.686-4.851-4.557-4.606l-2.45.147c-3.92.245-4.851,1.274-4.7,5.194l1.176,28.028C170.471.637,171.5,1.47,175.273.931c3.969-.588,4.851-1.617,4.9-5.537l.147-8.134L191.394-.784c2.695,2.891,4.067,2.94,7.007.343l.882-.833c2.842-2.7,2.94-3.92.147-6.615Zm38.906,12.4c-.2-3.283-1.176-4.018-4.41-3.626l-9.9,1.225-.2-4.9,8.673-.931c2.744-.294,3.185-.98,3.185-3.724,0-2.793-.931-3.43-3.626-3.185l-8.722.784-.2-4.361,9.9-.735c3.969-.294,4.8-1.323,4.8-5.292v-2.058c0-3.92-1.078-4.8-5-4.41l-13.867,1.323c-3.969.392-4.851,1.421-4.655,5.39l1.421,27.342c.2,3.871,1.225,4.753,5.1,4.116l13.769-2.156C227.066-1.519,227.7-2.45,227.507-5.831ZM236.523.833c18.963,0,27.734-9.065,27.734-18.179,0-10.78-9.114-18.669-25.823-18.669a38.883,38.883,0,0,0-4.165.2c-3.136.294-3.969,1.274-3.822,4.459l1.47,29.792c.1,1.715.539,2.205,2.3,2.3C235,.784,235.739.833,236.523.833Zm7.2-11.564c-.539,0-1.127-.049-1.715-.1l.294-14.406c7.154.1,11.613,2.989,11.613,7.546C253.918-13.034,249.851-10.731,243.726-10.731Z" transform="translate(1168.5 1390)" fill="#101010"></path>
      <g id="Canned_Fish" transform="translate(1512.035 1310.169)">
        <g id="Gruppe_20" data-name="Gruppe 20" transform="translate(0)">
          <g id="Gruppe_9" data-name="Gruppe 9" transform="translate(126.987 2.972)">
            <path id="Pfad_113" data-name="Pfad 113" d="M8.017,36.093c.077,4.973.181,11.06.31,17.872.622,29.036,1.84,71.308,2.616,97.909.181,6.657.363,12.329.492,16.577a25.843,25.843,0,0,0,6.321,16.24A28.968,28.968,0,0,0,24.7,190.8c5.8,3.03,12.277,4.507,18.727,5.62a206.422,206.422,0,0,0,28.777,2.9h.1c8.522-.285,17.458-1.425,25.591-4.274a25.906,25.906,0,0,0,17.121-22.638c.492-6.657.932-13.417,1.32-20.229,1.839-30.745,2.849-62.656,2.72-93.454q0-10.334-.233-20.436a16.929,16.929,0,0,0-13.287-16.215,295.483,295.483,0,0,0-52.166-6.838,165.353,165.353,0,0,0-32.377,4.144A16.888,16.888,0,0,0,8.017,36.093Z" transform="translate(-8.016 -15.241)" fill="#fd6229"></path>
          </g>
          <g id="Gruppe_10" data-name="Gruppe 10" transform="translate(127.299 41.641)">
            <path id="Pfad_114" data-name="Pfad 114" d="M3,29.913c.622,29.036,1.84,71.308,2.616,97.909A151.83,151.83,0,0,0,29.863,130.1c16.137.518,32.274.311,48.41.1,15.36-.181,30.745-.388,46-2.072,1.839-30.745,2.849-62.656,2.72-93.454-9.713-1.269-19.737-1.606-29.191-2.2Q50.441,29.486,3,29.913Z" transform="translate(-3.002 -29.86)" fill="#fff"></path>
          </g>
          <g id="Gruppe_11" data-name="Gruppe 11" transform="translate(155.693 84.815)">
            <path id="Pfad_115" data-name="Pfad 115" d="M11.389,47.594c5.77,5.178,11.93,10.015,18.859,13.494,11.434,5.74,21.92,5.187,34.1,2.991,4.406-.794,8.84-1.907,12.664-4.234s7-6.035,7.8-10.441c-10.995-1.8-22.08-3.6-33.212-3.153S22.533,56.013,13.646,62.73C23.332,58.5,22.177,53.418,11.389,47.594Z" transform="translate(-11.389 -46.182)" fill="#f7ca49"></path>
          </g>
          <g id="Gruppe_12" data-name="Gruppe 12" transform="translate(2.658 75.977)">
            <path id="Pfad_116" data-name="Pfad 116" d="M42.581,65.594c.1.673.233,1.347.31,2.046,1.217,4.041,5.7,6.838,10,7.874,18.7,4.429,36.392,4.377,55.637,4.248,22.586-.13,45.742,1.994,67.293-4.662a6.193,6.193,0,0,0,.648-.181c6.631-2.1,9.558-5.077,10-8.263,1.088-7.485-11.137-16.292-20.384-18.779-25.2-6.734-54.989-5.776-80.632-2.564C73.508,46.789,61.463,49.2,50.947,55c-.337.181-.648.389-.985.57-2.8,1.684-5.517,3.963-6.708,6.787A7.716,7.716,0,0,0,42.581,65.594Z" transform="translate(-42.579 -42.84)" fill="#fff"></path>
          </g>
          <g id="Gruppe_13" data-name="Gruppe 13" transform="translate(2.658 84.835)">
            <path id="Pfad_117" data-name="Pfad 117" d="M46.622,60.084c.1.673.233,1.347.31,2.046,1.217,4.041,5.7,6.838,10,7.874,18.7,4.429,36.392,4.377,55.637,4.248,22.586-.13,45.742,1.994,67.293-4.662.622-7.382-11.319-15.929-20.41-18.364-25.2-6.735-54.99-5.776-80.633-2.565C67.991,50.008,57.061,52.106,47.3,56.847A7.716,7.716,0,0,0,46.622,60.084Z" transform="translate(-46.621 -46.189)" fill="#7a7979"></path>
          </g>
          <g id="Gruppe_14" data-name="Gruppe 14" transform="translate(67.647 100.362)">
            <path id="Pfad_118" data-name="Pfad 118" d="M42.483,127.615c3.937.155,7.9.13,11.811-.026a181.279,181.279,0,0,0,53.954-9.972,28.526,28.526,0,0,0,7.926-4.585,10.153,10.153,0,0,0,3.807-7.149c1.217-16.81,1.891-37.584,1.683-53.824-.466,3.186-3.393,6.139-10.05,8.185-.285.077-.6.181-.88.259-.052,14.609-.7,31.367-1.71,45.38a10.15,10.15,0,0,1-3.807,7.149,28.161,28.161,0,0,1-7.926,4.585,181.279,181.279,0,0,1-53.954,9.972C43.053,127.589,42.768,127.615,42.483,127.615Z" transform="translate(-42.483 -52.059)" fill="#fff"></path>
          </g>
          <g id="Gruppe_15" data-name="Gruppe 15" transform="translate(3.256 100.181)">
            <path id="Pfad_119" data-name="Pfad 119" d="M47.458,60.357c.907,13.857.026,29.735.181,43.152a10.016,10.016,0,0,0,4.973,8.5c17.406,10.257,38,15.049,58.408,15.723.285,0,.57-.026.855-.026a181.279,181.279,0,0,0,53.954-9.972,28.16,28.16,0,0,0,7.926-4.585A10.15,10.15,0,0,0,177.562,106c1.011-14.013,1.658-30.771,1.71-45.38-14.194,4.222-29.062,4.637-43.981,4.43h-.415c-7.589-.1-15.178-.363-22.716-.389-19.245-.026-36.936-.13-55.585-4.714-4.3-1.062-8.755-3.885-9.946-7.951C46.992,54.658,47.251,57.455,47.458,60.357Z" transform="translate(-46.629 -51.99)" fill="#f7ca49"></path>
          </g>
          <g id="Gruppe_18" data-name="Gruppe 18" transform="translate(37.919 135.558)">
            <g id="Gruppe_16" data-name="Gruppe 16">
              <path id="Pfad_120" data-name="Pfad 120" d="M55.912,66.777c5.77,5.178,11.93,10.015,18.859,13.494,11.434,5.74,21.92,5.187,34.1,2.991,4.406-.794,8.84-1.907,12.664-4.234s7-6.035,7.8-10.441c-10.995-1.8-22.08-3.6-33.212-3.153S67.056,75.2,58.169,81.913C70.5,78.27,68.139,73.051,55.912,66.777Z" transform="translate(-55.912 -65.365)" fill="#fd6229"></path>
            </g>
            <g id="Gruppe_17" data-name="Gruppe 17" transform="translate(53.258 1.621)">
              <path id="Pfad_121" data-name="Pfad 121" d="M64.358,65.977a16.058,16.058,0,0,0-.292,12.036" transform="translate(-63.036 -65.977)" fill="#fd6229"></path>
            </g>
          </g>
          <g id="Gruppe_19" data-name="Gruppe 19">
            <path id="Pfad_122" data-name="Pfad 122" d="M24.425,61.5a82.874,82.874,0,0,0-7.539,4.988,2.645,2.645,0,0,1-3.19-4.221c1.673-1.263,3.71-2.653,6-4.076-2.667-2-5.44-4.3-8.424-6.98A2.645,2.645,0,0,1,14.8,47.273a110.655,110.655,0,0,0,9.864,8c9.049-5.017,20.215-9.682,28.474-10.015,11.427-.475,22.771,1.392,33.746,3.183a2.646,2.646,0,0,1,2.176,3.082c-.868,4.81-4.159,9.269-9.027,12.232-4.39,2.671-9.324,3.813-13.571,4.577A85.21,85.21,0,0,1,51.383,69.9a44.578,44.578,0,0,1-20.675-4.8A66.57,66.57,0,0,1,24.425,61.5Zm58.588-8.331c-4.372-.707-8.8-1.372-13.231-1.87a13.293,13.293,0,0,0,.01,9.245,2.58,2.58,0,0,1,.034,1.635,27.286,27.286,0,0,0,7.458-2.947A14.675,14.675,0,0,0,83.013,53.168ZM65.28,63.161a2.631,2.631,0,0,1-.429-.732,18.651,18.651,0,0,1-.492-11.648,98.227,98.227,0,0,0-11-.24c-6.521.263-15.621,3.818-23.631,8.005,1.121.656,2.237,1.261,3.358,1.824C43.5,65.6,53.15,65.331,65.28,63.161Z" transform="translate(142.658 36.986)"></path>
            <path id="Pfad_123" data-name="Pfad 123" d="M10.779,100.483l.39-.227c.194-.116.389-.232.567-.328,11.622-6.412,25.052-8.711,35.451-10C79,85.95,106,86.754,127.541,92.266c-.878-33.147-.95-38.872-1.2-54.29a19.416,19.416,0,0,1,15.018-19.317,175.824,175.824,0,0,1,43.655-4.279,2.586,2.586,0,0,1,2.413.076,297.513,297.513,0,0,1,52.894,6.885A19.484,19.484,0,0,1,255.7,40.079c.847,36.332-.326,87.119-3.813,134.377A28.494,28.494,0,0,1,233,199.4c-12.343,4.311-26.729,4.875-39.907,4.422a210.331,210.331,0,0,1-29.148-2.94c-16.838-2.914-21.706-6.383-27.209-12.6a26.234,26.234,0,0,1-3.25-4.809,185.357,185.357,0,0,1-51.924,9.185c-24.95,1.01-50.409-3.534-71.676-16.068a12.712,12.712,0,0,1-6.258-10.726v0c-.189-15.42,1.011-34.051-.739-49.1C0,110.051,4.522,104.263,10.779,100.483ZM8.8,124.033a2.608,2.608,0,0,1,1.478-.159c-.515-.244-1.024-.5-1.522-.8C8.772,123.392,8.779,123.718,8.8,124.033Zm74.646.423.81.011q-.626-.356-1.23-.748A2.65,2.65,0,0,1,83.443,124.456Zm1.17-31.741A297.276,297.276,0,0,0,47.84,95.18c-20.168,2.5-27.509,6.43-34.442,9.9-9.412,5.7-7.025,12.257,2.427,14.616,15.465,3.793,30.266,4.445,45.541,4.575-.361-.328-.729-.648-1.061-1.01a2.646,2.646,0,0,1,3.9-3.575,10.971,10.971,0,0,0,4.935,3.074,2.6,2.6,0,0,1,1.668,1.555c.693,0,1.392.028,2.085.034l-3.369-1.666a2.646,2.646,0,0,1,2.346-4.743L81.9,122.9a2.613,2.613,0,0,1-.324-3.362,2.644,2.644,0,0,1,3.688-.63,19,19,0,0,0,4.683,2.42,2.632,2.632,0,0,1,1.636,3.237q3.06.03,6.129.022c-.966-.521-1.914-1.077-2.823-1.691a2.646,2.646,0,0,1,2.96-4.386,27.63,27.63,0,0,0,5.254,2.777,2.622,2.622,0,0,1,1.525,3.194c.827-.024,1.651-.076,2.477-.11a2.614,2.614,0,0,1-.81-3.379,2.645,2.645,0,0,1,3.588-1.057l4.97,2.71a2.579,2.579,0,0,1,1.049,1.149c1.869-.172,3.728-.393,5.58-.644-.233-.088-.458-.2-.694-.28a2.645,2.645,0,0,1,1.71-5.006,30.374,30.374,0,0,1,5.954,2.787,2.566,2.566,0,0,1,.965,1.13c2.8-.6,5.584-1.271,8.315-2.137,4.944-1.565,7.849-3.733,8.178-6.12.784-5.394-9.731-13.5-18.449-15.846C115.1,94.371,100.764,92.715,84.613,92.715ZM250.409,40.2a14.22,14.22,0,0,0-11.2-13.691,306.19,306.19,0,0,0-44.677-6.432c.507.509,1.012,1.02,1.491,1.558a2.645,2.645,0,0,1-3.955,3.513,32.9,32.9,0,0,0-6.368-5.458c-1.247-.028-2.492-.037-3.739-.043l2.852,1.876a2.646,2.646,0,0,1-2.906,4.422l-4.618-3.038a2.61,2.61,0,0,1-.94-3.211q-3.1.072-6.189.246c.037.023.081.024.117.048a59.608,59.608,0,0,1,8.012,6.432,2.646,2.646,0,1,1-3.658,3.823,54.052,54.052,0,0,0-7.3-5.859,2.646,2.646,0,0,1-.727-3.671,2.609,2.609,0,0,1,.6-.6q-3.107.227-6.2.562a2.57,2.57,0,0,1,.692.42,35.468,35.468,0,0,0,6.142,4.539,2.644,2.644,0,1,1-2.666,4.567A40.708,40.708,0,0,1,158.122,25a2.646,2.646,0,0,1-.152-3.738,2.468,2.468,0,0,1,.326-.236,152.345,152.345,0,0,0-15.729,2.788A14.158,14.158,0,0,0,131.63,37.9c.023,1.471.048,3.076.076,4.737a41.928,41.928,0,0,1,5.476,4.049,2.646,2.646,0,0,1-3.5,3.973c-.6-.528-1.235-1.015-1.869-1.5q.035,1.956.074,4.009c52.228-.365,107.5,3.188,118.733,4.446C250.606,51.753,250.541,45.906,250.409,40.2Zm.232,22.714c-9.956-1.148-66.678-4.9-118.642-4.479.01.41.02.815.03,1.224a2.629,2.629,0,0,1,1.888-.181,25.189,25.189,0,0,1,5.972,2.627,2.645,2.645,0,0,1-2.738,4.526,19.869,19.869,0,0,0-4.72-2.074,2.353,2.353,0,0,1-.288-.152q.023.971.047,1.938a2.618,2.618,0,0,1,1.741.807,22.842,22.842,0,0,0,5.164,4.107,2.644,2.644,0,1,1-2.658,4.572,28.026,28.026,0,0,1-4.089-2.964c.05,2.017.1,4.043.149,6.056a2.579,2.579,0,0,1,1.786-.126,33.6,33.6,0,0,1,7.95,3.611,2.644,2.644,0,1,1-2.8,4.49,28.269,28.269,0,0,0-6.694-3.038c-.045-.014-.076-.049-.12-.065q.038,1.481.077,2.962a2.618,2.618,0,0,1,2.207.174l7.268,4.239a2.646,2.646,0,0,1-2.666,4.572l-6.677-3.894c.019.7.036,1.4.054,2.1,9.029,3.682,18.652,11.54,18.313,19.392a2.6,2.6,0,0,1,.284,1.106c.145,11.563-.154,25.413-.79,38.632,1.866.112,3.733.223,5.548.282,17.611.561,68.959.584,91.812-1.72C249.788,121.912,250.72,92.353,250.641,62.917ZM140.7,184.784c4.486,5.073,7.791,8.053,24.134,10.883a205.051,205.051,0,0,0,28.527,2.865c12.392.431,26.22-.056,37.887-4.131a23.2,23.2,0,0,0,15.356-20.333c.417-5.643.789-11.369,1.131-17.132-22.047,2.15-72.166,2.337-91.67,1.708-1.843-.059-3.752-.176-5.654-.288l-.023.417a32.332,32.332,0,0,1,9.481,2.421,2.644,2.644,0,1,1-2.082,4.862,27.171,27.171,0,0,0-7.719-2c-.07,1.076-.141,2.149-.215,3.2a2.636,2.636,0,0,1,2.03.061l7.658,3.459a2.645,2.645,0,1,1-2.178,4.82l-7.661-3.459a2.585,2.585,0,0,1-.641-.461,12.747,12.747,0,0,1-4.085,5.842,32.847,32.847,0,0,1-6.52,4.114A21.149,21.149,0,0,0,140.7,184.784ZM8.915,165.8a7.3,7.3,0,0,0,3.653,6.231C36.359,186.047,63.1,188.119,81.345,187.37c19.284-.772,37.173-4.076,53.168-9.824a25.588,25.588,0,0,0,7.181-4.172,7.433,7.433,0,0,0,2.8-5.262c1.057-14.381,1.684-31.3,1.729-45.888a26.822,26.822,0,0,1-6.674,2.966c-17.78,5.479-36.647,5.05-54.892,4.634-3.4-.077-6.795-.123-10.185-.163-1.288-.005-2.58-.019-3.863-.01-19.01.119-36.978.248-56.276-4.319a21.256,21.256,0,0,1-2.949-.971l3.027,2.273a2.646,2.646,0,0,1-3.177,4.231l-2.2-1.652c.036,1.246.041,2.517.059,3.779a2.591,2.591,0,0,1,1.089.428l6.512,4.6a2.645,2.645,0,1,1-3.053,4.319l-4.512-3.187c-.006,1.85-.014,3.7-.037,5.549a2.606,2.606,0,0,1,1,.616,39.886,39.886,0,0,0,6.5,5.363,2.644,2.644,0,1,1-2.916,4.412A44.877,44.877,0,0,1,9,151.491c-.014.94-.024,1.842-.037,2.763a2.459,2.459,0,0,1,.752,1.941,48.71,48.71,0,0,0,5.814,4.854,2.646,2.646,0,0,1-3.064,4.314c-1.222-.869-2.406-1.8-3.553-2.767,0,1.063-.012,2.161,0,3.2Z" transform="translate(-1.996 -14.118)"></path>
            <path id="Pfad_124" data-name="Pfad 124" d="M100.811,65.23c-.107,0-.217,0-.327,0a11.739,11.739,0,0,1-8.906-4.066,7.732,7.732,0,0,1-1.411-2.7c-2.69-.146-5.386-.174-8.069-.057a2.645,2.645,0,0,1-.227-5.285c2.927-.125,5.871-.088,8.807.077a16.69,16.69,0,0,1,2.615-3.735,2.643,2.643,0,0,1,3.609-.344,2.673,2.673,0,0,1,2.7-1.6,9.384,9.384,0,0,1,5.865,3.343,11.577,11.577,0,0,1,3.033,5.461,7.375,7.375,0,0,1-2.082,7.016A8.1,8.1,0,0,1,100.811,65.23Zm2.512-7.825a6.633,6.633,0,0,0-1.75-2.963,4.521,4.521,0,0,0-2.5-1.656,2.629,2.629,0,0,1-1.355-.542,2.607,2.607,0,0,1-.449.713c-.222.253-.438.515-.65.776.3.037.608.061.91.1a2.634,2.634,0,0,1-.22,5.244,7.466,7.466,0,0,0,3.313.858,3.307,3.307,0,0,0,2.263-.527A2.243,2.243,0,0,0,103.323,57.406Z" transform="translate(-59.305 40.824)"></path>
            <path id="Pfad_125" data-name="Pfad 125" d="M59.325,66.454a110.471,110.471,0,0,0,9.864,8C78.238,69.435,89.4,64.77,97.665,64.437c11.445-.468,22.781,1.395,33.745,3.185a2.646,2.646,0,0,1,2.175,3.082c-.868,4.807-4.158,9.263-9.027,12.232-4.38,2.666-9.318,3.81-13.571,4.577-12.954,2.336-23.994,2.674-35.757-3.232a67.179,67.179,0,0,1-6.282-3.6,83.024,83.024,0,0,0-7.538,4.988,2.646,2.646,0,0,1-3.19-4.221c1.673-1.263,3.71-2.653,6-4.074-2.667-2-5.442-4.306-8.424-6.982a2.645,2.645,0,0,1,3.534-3.937Zm68.21,5.9c-4.368-.707-8.791-1.376-13.229-1.875a13.289,13.289,0,0,0,.01,9.247,2.58,2.58,0,0,1,.034,1.636,27.35,27.35,0,0,0,7.455-2.943A14.718,14.718,0,0,0,127.535,72.352ZM77.6,79.554c10.428,5.234,20.074,4.961,32.2,2.791a2.633,2.633,0,0,1-.432-.734,18.643,18.643,0,0,1-.491-11.651,97.609,97.609,0,0,0-11.005-.237c-6.523.263-15.622,3.818-23.633,8.005C75.365,78.384,76.481,78.991,77.6,79.554Z" transform="translate(-19.64 68.548)"></path>
            <path id="Pfad_126" data-name="Pfad 126" d="M37.91,18.684a2.645,2.645,0,0,1,3.614-.969,67.04,67.04,0,0,1,10.452,7.468A2.645,2.645,0,1,1,48.5,29.172,61.617,61.617,0,0,0,38.876,22.3,2.646,2.646,0,0,1,37.91,18.684Z" transform="translate(107.02 -8.783)"></path>
            <path id="Pfad_127" data-name="Pfad 127" d="M40.788,19.979a2.648,2.648,0,0,1,3.7-.581l11.528,8.39A2.645,2.645,0,1,1,52.9,32.066l-11.528-8.39A2.647,2.647,0,0,1,40.788,19.979Z" transform="translate(95.59 -6.265)"></path>
            <path id="Pfad_128" data-name="Pfad 128" d="M43.27,22.23A2.643,2.643,0,0,1,47,21.918l8.51,7.187a2.644,2.644,0,1,1-3.412,4.04l-8.51-7.187A2.645,2.645,0,0,1,43.27,22.23Z" transform="translate(89.987 -2.316)"></path>
            <path id="Pfad_129" data-name="Pfad 129" d="M38.985,76.4a2.642,2.642,0,0,1,3.641-.86L49.5,79.782a2.645,2.645,0,1,1-2.78,4.5l-6.879-4.244A2.645,2.645,0,0,1,38.985,76.4Z" transform="translate(106.404 86.278)"></path>
            <path id="Pfad_130" data-name="Pfad 130" d="M45.018,77.734l6.459,4.3a2.646,2.646,0,1,1-2.936,4.4l-6.455-4.3a2.644,2.644,0,1,1,2.932-4.4Z" transform="translate(98.382 89.812)"></path>
          </g>
        </g>
      </g>
      <path id="Pfad_343" data-name="Pfad 343" d="M-57.036,42.28c6.216,0,13.608-2.324,13.608-7.168,0-2.968-2.352-4.424-5.74-4.732,2.24-1.512,3.528-2.912,3.528-4.816,0-2.968-3.752-4.508-8.68-4.508a27.523,27.523,0,0,0-5.068.5c-2.128.42-2.688,1.12-2.548,3.276l.924,15.316c.084,1.484.532,1.932,2.016,2.044C-58.38,42.252-57.708,42.28-57.036,42.28Zm1.064-12.516-.364-4.088a4.221,4.221,0,0,1,1.9-.448c1.54,0,2.688.644,2.688,1.9C-51.744,28.588-53.676,29.708-55.972,29.764Zm.98,7.924-.392-3.724a6.463,6.463,0,0,1,2.548-.476c1.512,0,2.6.448,2.6,1.624C-50.232,36.68-52.472,37.632-54.992,37.688Zm25.76-9.576c0,4.648-.812,7.56-3,7.56-2.1,0-2.884-3.752-2.884-9.464,0-.756.028-1.512.056-2.212.084-1.764-.252-2.184-2.016-2.324l-3.276-.252c-1.512-.112-1.96.224-2.044,1.736-.028.672-.056,1.316-.056,1.988,0,9.352,3.64,17.92,9.52,17.92,6.524,0,8.792-7.532,8.792-16.828q0-1.3-.084-2.52c-.112-1.96-.644-2.464-2.6-2.492h-.28c-2.184,0-2.66.5-2.408,2.66A36.13,36.13,0,0,1-29.232,28.112Zm19.46,5.8,5.012-8.792c1.092-1.932.868-2.772-1.26-3.416l-.28-.084c-2.128-.784-2.884-.5-3.892,1.512l-2.772,5.4-3.836-5.74c-1.26-1.876-2.044-2.072-3.892-.756l-1.064.756c-1.848,1.26-1.988,2.016-.616,3.78l5.684,7.364-.2,5.656c-.056,2.24.476,2.8,2.716,2.856l1.708.028c2.24.056,2.8-.5,2.772-2.744Zm28.9-7.168,1.68-.084c2.24-.084,2.772-.644,2.772-2.884,0-2.268-.588-2.8-2.8-2.66l-10.864.672c-2.072.14-2.52.672-2.3,2.744.224,2.128.784,2.6,2.856,2.548l1.988-.056-.112,12.544c-.028,2.268.5,2.856,2.772,3.08l.28.028c2.24.224,2.828-.28,2.968-2.52ZM29.2,34.86l1.6-6.8,1.988,6.58Zm5.6-11.48c-.812-2.156-1.484-2.66-4.144-2.744-2.3-.056-2.968.392-3.64,2.576L22.008,39.34c-.672,2.1-.28,2.772,1.9,3.192l.84.14c2.212.42,2.856,0,3.332-2.212l.336-1.484,5.544-.392.476,1.6c.644,2.156,1.344,2.548,4.256,1.708,2.128-.616,2.492-1.316,1.708-3.416Zm21.252,8.008,4.928-6.048c1.372-1.708,1.232-2.464-.728-3.444l-1.2-.588c-2.016-1.036-2.8-.812-4.06,1.064L51.6,27.328l-3.668-3.836c-1.568-1.652-2.38-1.736-4.312-.56l-.42.28c-1.876,1.148-1.96,1.9-.476,3.5l5.124,5.46-5.04,5.292c-1.512,1.568-1.4,2.324.5,3.388L45.3,41.944c1.988,1.092,2.744.924,3.976-.952l2.884-4.312,3.416,3.5c1.568,1.624,2.38,1.708,4.06.168l1.316-1.2c1.652-1.456,1.652-2.212-.028-3.64Z" transform="translate(863.778 1364.387) rotate(41)" fill="#101010"></path>
    </g>
    <path id="Pfad_345" data-name="Pfad 345" d="M34.609-19.186c0-11.66-6.1-21.094-16.271-21.094-10.07,0-16.483,9.063-16.483,20.034C1.855-8.109,8,1.59,18.02,1.59,30,1.59,34.609-9.275,34.609-19.186Zm-16.43,9.169c-4.558,0-5.83-4.4-5.83-8.056,0-5.406,2.65-9.063,7.208-9.063,2.915,0,5.247,2.332,5.247,7C24.8-15.688,23.108-10.017,18.179-10.017ZM56.816-28.461c0-7.314-3.816-13.2-10.176-13.2-6.307,0-10.335,5.671-10.335,12.561,0,7.579,3.869,13.674,10.123,13.674C53.9-15.423,56.816-22.26,56.816-28.461ZM75.366-34.4c1.643-2.756,1.378-3.816-1.325-5.459-2.756-1.7-3.869-1.431-5.459,1.272L49.078-5.512C47.435-2.7,47.7-1.59,50.3.318c2.65,1.961,3.71,1.749,5.3-1.007ZM46.534-22.684c-2.862,0-3.657-2.756-3.657-5.088,0-3.392,1.643-5.671,4.505-5.671,1.855,0,3.286,1.484,3.286,4.4C50.668-26.235,49.608-22.684,46.534-22.684ZM77.327,2.332c7.473,0,10.388-6.837,10.388-13.038,0-7.314-3.816-13.2-10.176-13.2C71.232-23.9,67.2-18.232,67.2-11.342,67.2-3.763,71.073,2.332,77.327,2.332Zm.106-7.261c-2.862,0-3.657-2.756-3.657-5.088,0-3.392,1.643-5.671,4.5-5.671,1.855,0,3.286,1.484,3.286,4.4C81.567-8.48,80.507-4.929,77.433-4.929Z" transform="matrix(0.719, 0.695, -0.695, 0.719, 830, 1334)" fill="#101010"></path>
  </g>
</svg>
